<svg width="17" height="10" viewBox="0 0 17 10" fill="none" xmlns="http://www.w3.org/2000/svg">
<path d="M12.1999 0.600045C8.3999 -0.099955 0.899902 0.900047 0.899902 6.00005C0.899902 8.10005 1.2999 8.70005 3.3999 9.10005C6.5999 10.5 11.3999 8.90005 14.2999 7.40005C18.5999 4.90005 16.3999 1.40005 12.1999 0.600045ZM11.6999 7.00005C10.0999 7.60005 7.8999 8.40005 5.7999 8.50005C4.7999 8.40005 3.7999 8.10005 2.9999 7.60005C-1.7001 4.50005 7.0999 1.20005 9.4999 1.10005C11.0999 1.00005 13.4999 1.20004 14.4999 2.70004C15.9999 4.80004 13.2999 6.30005 11.6999 7.00005Z" fill="white"/>
</svg>
