<svg width="230" height="147" viewBox="0 0 230 147" fill="none" xmlns="http://www.w3.org/2000/svg">
<path d="M179.196 128.069C179.77 127.994 180.348 127.913 180.929 127.827C180.352 127.913 179.774 127.994 179.196 128.069ZM178.1 128.2H178.148C178.019 128.215 177.89 128.23 177.761 128.245C177.772 128.243 177.783 128.242 177.794 128.24L177.814 128.236C177.979 128.209 178.047 128.2 178.1 128.2ZM177.235 128.3C177.253 128.299 177.272 128.299 177.291 128.298C176.598 128.374 175.905 128.443 175.212 128.504L175.209 128.504C171.948 128.801 168.612 128.897 165.39 128.604L165.375 128.603L165.359 128.602C163.664 128.502 161.948 128.306 160.547 127.606L159.988 127.326L160.589 126.809L159.952 126.597C165.645 127.859 171.381 128.653 177.235 128.3ZM108.906 145.196C111.127 145.405 113.353 145.519 115.577 145.529C111.858 145.519 108.124 145.218 104.418 144.667C105.926 144.877 107.424 145.053 108.904 145.195L108.906 145.196ZM55.6358 117.003C59.6395 123.969 65.3639 129.412 72.0016 133.595C71.3148 133.168 70.6362 132.729 69.9665 132.276C66.7165 130.01 63.6799 127.461 61.0432 124.531L61.031 124.517L61.0182 124.504C57.9856 121.374 55.4416 117.852 53.3854 113.935L53.3823 113.929C52.5822 112.429 51.8189 110.995 51.247 109.477C51.0982 108.989 50.9794 108.489 50.8515 107.951C50.8216 107.825 50.7911 107.697 50.7597 107.566C50.5958 106.885 50.4084 106.156 50.1333 105.441L50.1334 105.441L50.1284 105.429C49.6211 104.16 48.8292 103.508 47.9961 103.032L47.8162 102.929L47.6104 102.906C46.1669 102.746 44.7794 102.306 43.3175 101.797C45.1741 102.131 47.0109 102.441 48.8088 102.745C49.2019 102.811 49.5932 102.878 49.9824 102.943C50.0043 102.957 50.0278 102.969 50.0527 102.982C50.0655 102.988 50.0781 102.994 50.0907 103H50.0529L50.4427 104.289C51.7478 108.606 53.2746 112.998 55.6358 117.003ZM24.6413 96.996C27.6829 98.1647 30.8544 99.0981 34.06 99.8809C28.3736 98.6309 22.8535 96.7818 17.8038 93.8362L17.7975 93.8326C16.2987 92.973 14.847 92.0051 13.4662 90.9395C16.8423 93.5062 20.6407 95.4587 24.6413 96.996ZM8.00916 85.7523C5.76955 83.1155 3.94841 80.1524 2.73524 76.9461C1.92385 74.8017 1.50749 72.6714 1.43717 70.5606C1.71834 73.9589 2.72813 77.32 4.41864 80.4726L4.42226 80.4792C5.47895 82.4145 6.68235 84.1652 8.00916 85.7523Z" stroke="url(#paint0_linear)" stroke-width="2"/>
<defs>
<linearGradient id="paint0_linear" x1="69" y1="74" x2="197" y2="72" gradientUnits="userSpaceOnUse">
<stop offset="0.161458" stop-color="white"/>
<stop offset="1" stop-color="#1A2130" stop-opacity="0"/>
</linearGradient>
</defs>
</svg>
