<svg width="16" height="16" viewBox="0 0 16 16" fill="none" xmlns="http://www.w3.org/2000/svg">
<path fill-rule="evenodd" clip-rule="evenodd" d="M8.00032 1C4.13441 1 1 4.13441 1 8C1 11.8656 4.13441 15 8.00032 15C11.8662 15 15 11.8656 15 8C15 4.13441 11.8662 1 8.00032 1ZM8.00032 14.363C4.486 14.363 1.637 11.515 1.637 8C1.637 4.48505 4.486 1.637 8.00032 1.637C11.5146 1.637 14.3636 4.48505 14.3636 8C14.3636 11.515 11.5146 14.363 8.00032 14.363ZM8.00032 4.50064C8.96664 4.50064 9.84195 4.89136 10.4748 5.52486L10.9247 5.07559C10.1767 4.32723 9.14227 3.86364 8.00032 3.86364C5.71577 3.86364 3.86395 5.71609 3.86395 8C3.86395 10.2839 5.71577 12.1364 8.00032 12.1364C9.14227 12.1364 10.1767 11.6728 10.9247 10.9244L10.4748 10.4751C9.84195 11.1083 8.96664 11.4994 8.00032 11.4994C6.06736 11.4994 4.5 9.93295 4.5 8C4.5 6.06705 6.06736 4.50064 8.00032 4.50064Z" fill="#141414" stroke="#141414" stroke-width="0.5"/>
</svg>
