<svg width="49" height="25" viewBox="0 0 49 25" fill="none" xmlns="http://www.w3.org/2000/svg">
<rect width="49" height="25" fill="white"/>
<path d="M25.1033 21.3C29.2858 21.3 34.6825 19.9992 37.3809 13.6252C38.7301 10.3732 38.9999 7.38129 38.865 5.29999H11.3417C11.2067 7.38129 11.4766 10.3732 12.8258 13.6252C15.5241 19.9992 21.0558 21.3 25.1033 21.3Z" fill="#C84B06"/>
<path d="M11.3418 5.29999C11.3418 6.21056 11.3418 7.38129 11.4767 8.55202H38.8651C39.0001 7.25121 39.0001 6.21056 39.0001 5.29999H11.3418Z" fill="#A33D05"/>
<path d="M27.937 11.5439C27.937 11.8041 27.6672 12.0643 27.3973 12.0643C27.1275 12.0643 26.8577 11.8041 26.8577 11.5439C26.8577 11.2838 27.1275 11.0236 27.3973 11.0236C27.6672 11.0236 27.937 11.2838 27.937 11.5439Z" fill="#E6E6E6"/>
<path d="M17.1436 9.85285C17.1436 10.3732 16.6039 10.8935 16.0642 10.8935C15.5245 10.8935 14.9849 10.5033 14.9849 9.85285C14.9849 9.33252 15.5245 8.81219 16.0642 8.81219C16.6039 8.81219 17.1436 9.33252 17.1436 9.85285Z" fill="#E6E6E6"/>
<path d="M24.8337 15.8366C24.5638 15.9667 24.1591 15.9667 24.0242 15.7065C23.8893 15.4463 23.8893 15.0561 24.1591 14.926C24.4289 14.7959 24.8337 14.7959 24.9686 15.0561C25.1035 15.3163 25.1035 15.7065 24.8337 15.8366Z" fill="#E6E6E6"/>
<path d="M33.7382 12.4545C33.4684 12.5846 33.0636 12.5846 32.9287 12.3244C32.7938 12.0643 32.7938 11.8041 33.0636 11.5439C33.3335 11.4139 33.7382 11.4139 33.8731 11.674C34.0081 12.0643 34.0081 12.3244 33.7382 12.4545Z" fill="#E6E6E6"/>
<path d="M31.9843 10.8935C31.7145 11.0236 31.3097 11.0236 31.1748 10.7634C31.0399 10.5032 31.0399 10.113 31.3097 9.98291C31.5796 9.85282 31.9843 9.85282 32.1192 10.113C32.2541 10.3731 32.2541 10.7634 31.9843 10.8935Z" fill="#E6E6E6"/>
<path d="M27.6669 9.98295C27.3971 10.113 26.9923 10.113 26.8574 9.85287C26.7225 9.59271 26.7225 9.20246 26.9923 9.07238C27.2622 8.9423 27.6669 8.9423 27.8018 9.20246C28.0717 9.46263 27.9368 9.85287 27.6669 9.98295Z" fill="#E6E6E6"/>
<path d="M29.6906 7.64147C29.151 7.90164 28.4764 7.77155 28.2065 7.38131C27.9367 6.86098 28.0716 6.21058 28.4764 5.95042C29.0161 5.69025 29.6907 5.82033 29.9605 6.21058C30.3652 6.7309 30.2303 7.38131 29.6906 7.64147Z" fill="#E6E6E6"/>
<path d="M30.905 13.235C30.3653 13.4951 29.6907 13.3651 29.4209 12.9748C29.1511 12.4545 29.286 11.8041 29.6907 11.5439C30.2304 11.2838 30.905 11.4138 31.1748 11.8041C31.5796 12.1943 31.4447 12.8447 30.905 13.235Z" fill="#E6E6E6"/>
<path d="M21.3257 15.5764C21.0559 15.4463 20.9209 15.056 21.0559 14.7959C21.1908 14.5357 21.5955 14.4056 21.8654 14.5357C22.1352 14.6658 22.2701 15.056 22.1352 15.3162C22.0003 15.5764 21.5955 15.7064 21.3257 15.5764Z" fill="#E6E6E6"/>
<path d="M22.8098 17.9179C22.54 17.7878 22.4051 17.3975 22.54 17.1374C22.6749 16.8772 23.0797 16.7471 23.3495 16.8772C23.6193 17.0073 23.7543 17.3975 23.6193 17.6577C23.4844 17.9179 23.0797 18.0479 22.8098 17.9179Z" fill="#E6E6E6"/>
<path d="M25.1035 17.3975C24.8337 17.2674 24.6988 16.8772 24.8337 16.617C24.9686 16.3569 25.3734 16.2268 25.6432 16.3569C25.913 16.487 26.048 16.8772 25.913 17.1374C25.6432 17.3975 25.3734 17.5276 25.1035 17.3975Z" fill="#E6E6E6"/>
<path d="M23.6194 13.3651C23.3496 13.235 23.2146 12.8447 23.3496 12.5846C23.4845 12.3244 23.8892 12.1943 24.1591 12.3244C24.4289 12.4545 24.5638 12.8447 24.4289 13.1049C24.294 13.3651 23.8892 13.4951 23.6194 13.3651Z" fill="#E6E6E6"/>
<path d="M21.5957 9.85284C21.0561 9.59268 20.7862 8.94227 21.0561 8.42195C21.3259 7.90162 22.0005 7.64146 22.5402 7.90162C23.0798 8.16179 23.3497 8.81219 23.0798 9.33252C22.81 9.98292 22.1354 10.113 21.5957 9.85284Z" fill="#E6E6E6"/>
<path d="M28.0718 16.7472C27.802 16.6171 27.667 16.2269 27.802 15.9667C27.9369 15.7065 28.3416 15.5765 28.6115 15.7065C28.8813 15.8366 29.0162 16.2269 28.8813 16.487C28.7464 16.7472 28.3416 16.8773 28.0718 16.7472Z" fill="#E6E6E6"/>
<path d="M29.5559 19.0886C29.2861 18.9585 29.1512 18.5683 29.2861 18.3081C29.421 18.048 29.8258 17.9179 30.0956 18.048C30.3654 18.1781 30.5003 18.5683 30.3654 18.8285C30.0956 19.0886 29.8258 19.2187 29.5559 19.0886Z" fill="#E6E6E6"/>
<path d="M31.7149 18.5682C31.445 18.4382 31.3101 18.0479 31.445 17.7878C31.5799 17.5276 31.9847 17.3975 32.2545 17.5276C32.5244 17.6577 32.6593 18.0479 32.5244 18.3081C32.3894 18.5682 31.9847 18.6983 31.7149 18.5682Z" fill="#E6E6E6"/>
<path d="M30.3655 16.487C30.0957 16.3569 29.9607 15.9667 30.0957 15.7065C30.2306 15.4464 30.6353 15.3163 30.9052 15.4464C31.175 15.5764 31.3099 15.9667 31.175 16.2268C30.9052 16.6171 30.6353 16.6171 30.3655 16.487Z" fill="#E6E6E6"/>
<path d="M29.6909 7.64147C29.1512 7.90164 28.4766 7.77155 28.2068 7.38131C27.937 6.86098 28.0719 6.21058 28.4766 5.95042C29.0163 5.69025 29.6909 5.82033 29.9607 6.21058C30.3655 6.7309 30.2306 7.38131 29.6909 7.64147Z" fill="#E6E6E6"/>
<path d="M25.2385 7.90166C24.9687 7.77158 24.8338 7.51142 24.9687 7.25126C25.1036 6.99109 25.5084 6.86101 25.7782 6.9911C26.048 7.12118 26.183 7.51142 26.048 7.77158C25.7782 7.90166 25.5084 8.03175 25.2385 7.90166Z" fill="#E6E6E6"/>
<path d="M32.3892 7.64149C32.1193 7.51141 31.9844 7.12116 32.1193 6.861C32.2543 6.60084 32.659 6.47075 32.9288 6.60084C33.1987 6.73092 33.3336 7.12116 33.1987 7.38132C33.0638 7.64149 32.659 7.77157 32.3892 7.64149Z" fill="#E6E6E6"/>
<path d="M33.1985 15.8366C32.6588 15.5764 32.389 14.926 32.6588 14.4057C32.9287 13.8854 33.6033 13.6252 34.1429 13.8854C34.6826 14.1456 34.9524 14.796 34.6826 15.3163C34.4128 15.8366 33.7382 16.0968 33.1985 15.8366Z" fill="#E6E6E6"/>
<path d="M25.9131 19.4788C25.6432 19.2187 25.6432 18.9585 25.9131 18.6984C26.1829 18.4382 26.4527 18.4382 26.7226 18.6984C26.9924 18.9585 26.9924 19.2187 26.7226 19.4788C26.5877 19.6089 26.1829 19.6089 25.9131 19.4788Z" fill="#E6E6E6"/>
<path d="M35.3572 12.5846C35.0873 12.3244 35.0873 12.0642 35.3572 11.8041C35.627 11.5439 35.8968 11.5439 36.1667 11.8041C36.4365 12.0642 36.4365 12.3244 36.1667 12.5846C35.8968 12.8447 35.4921 12.8447 35.3572 12.5846Z" fill="#E6E6E6"/>
<path d="M35.6269 14.2756C35.3571 14.0154 35.3571 13.7553 35.6269 13.4951C35.8968 13.2349 36.1666 13.2349 36.4365 13.4951C36.7063 13.7553 36.7063 14.0154 36.4365 14.2756C36.1666 14.4057 35.8968 14.4057 35.6269 14.2756Z" fill="#E6E6E6"/>
<path d="M35.3572 9.98293C35.0873 9.72277 35.0873 9.46261 35.3572 9.20245C35.627 8.94228 35.8968 8.94228 36.1667 9.20245C36.4365 9.46261 36.4365 9.72277 36.1667 9.98293C36.0318 10.2431 35.627 10.2431 35.3572 9.98293Z" fill="#E6E6E6"/>
<path d="M19.5717 19.0886C19.1669 18.6984 19.032 18.0479 19.4368 17.6577C19.8415 17.2675 20.5161 17.1374 20.9209 17.5276C21.3256 17.9179 21.4605 18.5683 21.0558 18.9585C20.651 19.3488 19.9764 19.4788 19.5717 19.0886Z" fill="#E6E6E6"/>
<path d="M18.2227 16.2268C18.0877 16.4869 17.8179 16.617 17.5481 16.617C17.2782 16.4869 17.1433 16.2268 17.1433 15.9666C17.2782 15.7064 17.5481 15.5764 17.8179 15.5764C18.2227 15.5764 18.3576 15.8365 18.2227 16.2268Z" fill="#E6E6E6"/>
<path d="M20.6509 13.365C20.516 13.6252 20.2462 13.7553 19.9763 13.7553C19.5716 13.6252 19.4367 13.2349 19.5716 12.9748C19.7065 12.7146 19.9763 12.5845 20.2462 12.5845C20.516 12.7146 20.7859 12.9748 20.6509 13.365Z" fill="#E6E6E6"/>
<path d="M19.5718 11.0236C19.4369 11.2837 19.167 11.4138 18.8972 11.4138C18.6274 11.2837 18.4924 11.0236 18.4924 10.7634C18.6274 10.5032 18.8972 10.3732 19.167 10.3732C19.4369 10.3732 19.5718 10.7634 19.5718 11.0236Z" fill="#E6E6E6"/>
<path d="M15.6589 12.9747C15.524 13.2349 15.2542 13.365 14.9843 13.365C14.7145 13.2349 14.5796 12.9747 14.5796 12.7146C14.7145 12.4544 14.9843 12.3243 15.2542 12.3243C15.524 12.3243 15.6589 12.7146 15.6589 12.9747Z" fill="#E6E6E6"/>
<path d="M18.762 13.8853C18.6271 14.4057 17.9525 14.7959 17.4128 14.5357C16.8732 14.4057 16.4684 13.7553 16.7382 13.2349C16.8732 12.7146 17.5477 12.3244 18.0874 12.5845C18.6271 12.7146 18.8969 13.365 18.762 13.8853Z" fill="#E6E6E6"/>
<path d="M11.7 2H38.4C38.5 2 38.7 2.1 38.7 2.2C38.9 4.5 39.9 21.3 25.5 21.3C9.19998 21.4 11.1 4.4 11.4 2.2C11.4 2.1 11.5 2 11.7 2Z" stroke="#141414" stroke-width="1.4173" stroke-miterlimit="10"/>
<path d="M38.7999 5.59997C38.7999 5.59997 40.6999 3.89997 42.6999 4.59997C45.8999 5.79997 44.8999 9.79997 43.5999 11.6C42.2999 13.5 39.8999 17.3 37.8999 17.5C36.8999 17.6 35.8999 16.3 35.8999 16.3C35.8999 16.3 37.1999 13.8 37.9999 10.9C38.4999 8.89997 38.7999 5.59997 38.7999 5.59997Z" stroke="#141414" stroke-width="1.4173" stroke-miterlimit="10"/>
<path d="M2 21.8H47.8" stroke="#141414" stroke-width="1.4173" stroke-miterlimit="10" stroke-linecap="round"/>
<path d="M10 23L39.6 22.9" stroke="#141414" stroke-width="2.2677" stroke-miterlimit="10" stroke-linecap="round"/>
</svg>
