<svg width="42" height="38" viewBox="0 0 42 38" fill="none" xmlns="http://www.w3.org/2000/svg">
<rect width="42" height="38" fill="white"/>
<g clip-path="url(#clip0)">
<path fill-rule="evenodd" clip-rule="evenodd" d="M28.941 14.2188C30.8534 10.1444 34.6784 9.72865 36.9235 10.6433C40.4989 12.14 42.162 18.8753 35.1773 27.1072C33.4311 29.186 31.5186 30.849 29.523 32.1794C23.9519 35.8381 17.7987 36.5864 12.7265 36.0875C6.15759 35.5055 1.33483 32.8446 2.08319 32.0131C2.08319 32.0131 9.98253 33.5098 16.8841 30.3501C26.197 26.0262 25.8644 20.7877 28.941 14.2188ZM28.1926 21.4529C24.4508 28.8534 18.7965 32.7615 10.3151 33.0941C6.73964 33.2604 7.82061 33.9256 10.7309 33.9256C18.5471 33.8424 26.0307 30.1838 29.6893 23.1991C32.5996 17.7111 29.6062 18.709 28.1926 21.4529Z" fill="#E51A00"/>
<path fill-rule="evenodd" clip-rule="evenodd" d="M36.175 6.73521C37.5886 7.15097 38.3369 8.06563 38.8358 9.22974C39.3347 10.477 39.0021 10.477 37.7549 9.8118C36.2582 9.06344 34.1794 8.89714 32.6827 9.4792C31.768 9.89495 31.1859 9.72865 32.1838 8.31508C32.7658 7.56672 33.5142 6.81836 34.7614 6.40261C35.0109 3.15972 36.9234 2.32821 38.0043 1.74615C39.6673 0.831493 40.3326 2.99342 39.1684 3.32602C37.4223 3.90808 36.6739 4.90589 36.3413 6.31946C36.2582 6.56891 36.2582 6.65206 36.175 6.73521Z" fill="#E51A00"/>
</g>
<defs>
<clipPath id="clip0">
<rect width="38" height="36.1707" fill="white" transform="translate(2)"/>
</clipPath>
</defs>
</svg>
