<svg width="52" height="52" viewBox="0 0 52 52" fill="none" xmlns="http://www.w3.org/2000/svg">
<g clip-path="url(#clip0)">
<path fill-rule="evenodd" clip-rule="evenodd" d="M34.8102 26.7073C38.5036 24.135 42.024 25.6874 43.511 27.6021C45.8591 30.686 43.9317 37.3504 33.7668 40.9871C31.2152 41.9143 28.7274 42.3983 26.3339 42.5527C19.6799 42.9356 13.9769 40.5071 9.83368 37.5389C4.43585 33.7504 1.58964 29.0347 2.65349 28.6887C2.65349 28.6887 8.74617 33.9346 16.3029 34.649C26.5301 35.5608 28.8613 30.8579 34.8102 26.7073ZM30.545 32.5981C23.6043 37.1361 16.7535 37.6935 9.24209 33.7409C6.06247 32.0971 6.66601 33.2137 9.18639 34.6688C15.997 38.5049 24.3073 39.0782 30.9681 34.8586C36.2325 31.5611 33.1412 30.9285 30.545 32.5981Z" fill="#141414"/>
<path fill-rule="evenodd" clip-rule="evenodd" d="M44.8169 23.8434C45.8332 24.9102 46.024 26.0765 45.874 27.3341C45.6824 28.6637 45.3944 28.4974 44.6468 27.2977C43.7248 25.9013 42.0077 24.7178 40.4205 24.4736C39.4205 24.3763 38.9996 23.9412 40.5705 23.216C41.4487 22.8589 42.471 22.585 43.759 22.8485C45.5965 20.1648 47.6685 20.401 48.8957 20.4374C50.7932 20.4768 50.2884 22.6817 49.1139 22.3876C47.3107 22.0186 46.1636 22.5086 45.1688 23.5665C44.9721 23.7409 44.9305 23.8129 44.8169 23.8434Z" fill="#141414"/>
</g>
<path fill-rule="evenodd" clip-rule="evenodd" d="M20.4545 24.7015L17.1136 21.2537L16 22.403L20.4545 27L30 17.1493L28.8864 16L20.4545 24.7015Z" fill="#C84B06" stroke="#C84B06" stroke-width="0.6"/>
<defs>
<clipPath id="clip0">
<rect width="38" height="36.1707" fill="white" transform="translate(18.5881 0.922974) rotate(30)"/>
</clipPath>
</defs>
</svg>
