<svg width="10" height="13" viewBox="0 0 10 13" fill="none" xmlns="http://www.w3.org/2000/svg">
<g opacity="0.5">
<path d="M5.00014 4.76461L1.06227 0.971213C0.995479 0.906915 0.918618 0.874968 0.831789 0.874968C0.744925 0.874968 0.668063 0.907118 0.60131 0.971213L0.100271 1.45389C0.033517 1.51818 -2.22358e-07 1.59225 -2.18568e-07 1.67575C-2.14767e-07 1.75952 0.033517 1.83345 0.100271 1.89788L4.76963 6.39562C4.83641 6.45995 4.91328 6.49207 5.0001 6.49207C5.08697 6.49207 5.1638 6.45995 5.23058 6.39562L9.89994 1.89788C9.96683 1.83355 10 1.75976 10 1.67599C10 1.59222 9.96676 1.51845 9.89994 1.45412L9.39922 0.971483C9.33243 0.907185 9.25553 0.875105 9.16863 0.875105C9.08187 0.875105 9.00505 0.907151 8.93826 0.971483L5.00014 4.76461Z" fill="#C84B06"/>
<path d="M5.00014 10.3974L1.06227 6.60437C0.995479 6.54004 0.918617 6.50799 0.831788 6.50799C0.744924 6.50799 0.668063 6.54 0.601309 6.60437L0.100271 7.08677C0.033517 7.1511 -2.2236e-07 7.22514 -2.18569e-07 7.30867C-2.14767e-07 7.39244 0.033517 7.46648 0.100271 7.53077L4.76962 12.0286C4.83641 12.0929 4.91327 12.125 5.0001 12.125C5.08697 12.125 5.16379 12.0929 5.23058 12.0286L9.89993 7.53081C9.96683 7.46651 9.99999 7.39254 9.99999 7.30871C9.99999 7.22517 9.96676 7.15114 9.89993 7.08684L9.39921 6.6044C9.33242 6.54007 9.25552 6.50802 9.16863 6.50802C9.08187 6.50802 9.00504 6.54004 8.93825 6.6044L5.00014 10.3974Z" fill="#C84B06"/>
</g>
</svg>
