<svg width="267" height="146" viewBox="0 0 267 146" fill="none" xmlns="http://www.w3.org/2000/svg">
<path d="M263.9 79.2C260.4 73.4 252.9 68.5 246.4 66.5C254.1 63.4 259.7 55.5 259.6 47.4C259.4 35.6 251.1 25.9 242.3 19.1C222.1 3.30002 195.5 -2.09999 170.4 0.700014C158.4 2.00001 146 6.40001 137.8 15.6C136.8 14 134.4 11.5 133.3 10.7C129.2 7.70001 125.1 7.00001 120.1 7.00001C112.2 7.00001 104.2 10 97.8 14.4C93.1 17.7 89.2 21.6 87.8 27.4C87.5 28.6 87.7 32 88.3 33.9C71.4 33.9 51.3 40.1 41.9 55C37.7 61.7 36 68.9 38.8 76.3C41.6 83.7 47.5 89.8 54.3 93.7C61.5 97.9 69.5999 99.9 77.6999 101.1C78.1999 101.2 78.8 101.4 79.3 101.5C81 102.1 82.7 102.7 84.5 102.9C85.2 103.3 85.7999 103.8 86.1999 104.8C86.6999 106.1 86.9 107.5 87.3 108.8C87.9 110.4 88.7 111.9 89.5 113.4C91.5999 117.4 94.2 121 97.3 124.2C100 127.2 103.1 129.8 106.4 132.1C116.6 139 128.8 142.8 140.9 144.6C152 146.3 163.4 145.8 174 142C182.7 138.9 190.2 133.5 197.1 127.5C198.7 128.3 200.6 128.5 202.3 128.6C205.6 128.9 209 128.8 212.3 128.5C221.4 127.7 230.5 125.6 238.9 122.1C247.5 118.5 255.9 113.1 261.2 105.2C266.5 97.4 269 87.7 263.9 79.2ZM260.1 103.3C250.8 117.9 231.5 124.2 215.1 126.2C214.8 126.2 214.5 126.3 214.2 126.3C206 126.8 198 125 189.9 122.8C189.7 122.7 189.4 123 189.7 123.2C191.5 124.5 193.5 125.5 195.6 126.2C189.9 131.1 183.9 135.6 177.1 138.6C167.3 143 156.6 144.2 146 143.2C126.3 141.3 103.9 133.6 93.5 115.5C91.2 111.6 89.7 107.3 88.4 103H88.5C90.2 102.9 91.1999 102.4 92.6999 101.7C92.9999 101.6 92.7999 101.2 92.5 101.2C91.2 101.2 89.8999 101 88.5999 101.1C88.2999 101.1 87.8999 101.1 87.5999 101.1C87.5 101.1 87.5 101.1 87.4 101C70.9 98.2 51.2 95.3 42.3 79C38.6 72.1 38.3 64.2 41.9 57.2C45.6 50 52.4 44.7 59.5 41.3C68.7 36.8 79.1 34.9 89.3 35.3C90.3 35.3 90.9 33.7 89.8 33.4C89.3 33.3 89.0999 31.7 89 31.1C88.7999 29.1 89.5 27 90.4 25.2C94 17.8 102.6 12.6 110 9.90001C116.4 7.50001 123.6 7.10001 129.9 10.2C131.8 11.1 133.6 12.4 135.1 13.9C135.6 14.4 136.8 15.8 136.8 16.2C136.7 17.2 137.9 17.7 138.6 16.9C145.5 8.20002 156.4 4.30001 167.1 2.60001C178.5 0.800014 190.3 1.00001 201.7 2.90001C213.2 4.90001 224.5 8.90001 234.5 15C243.8 20.7 253.1 28.5 257.1 39C259.2 44.7 258.9 51.8 256.1 57.3C254.5 60 252.3 62.2 249.2 63.8C247 64.9 244.9 65.9 242.4 66.3C239.6 66.6 237 66.3 234.2 66.9C233.9 67 233.8 67.5 234.2 67.5C237.4 67.6 240.2 68.6 243.4 68.1C243.7 68.1 243.9 68 244.2 67.9C244.2 67.9 244.2 67.9 244.3 67.9C250.7 69.1 257.2 72.5 261.3 77.7C267.4 85.5 265.1 95.4 260.1 103.3Z" fill="url(#paint0_linear)"/>
<path d="M42.1999 94.7C38.6999 93.2 34.7999 92.5 31.0999 92.5C26.8999 92.5 22.4999 93.2 18.6999 95.1C14.1999 97.4 12.5999 101.4 13.3999 106.2C13.4999 106.5 13.6999 106.9 13.7999 107.2C15.4999 110.2 18.8999 111.6 21.9999 112.4C29.1999 114.2 37.4999 112.8 43.1999 107.9C45.4999 105.9 46.8999 103.5 46.5999 100.3C46.2999 97.4 44.7999 95.8 42.1999 94.7ZM39.8999 107.9C36.8999 109.8 33.4999 110.8 29.9999 111.1C25.4999 111.5 16.7999 110 14.4999 105.3C13.9999 103.1 14.4999 100.7 15.7999 99C17.9999 95.9 21.7999 94.7 25.3999 94.3C28.9999 93.8 32.5999 93.8 36.1999 94.3C39.1999 94.8 43.5999 95.6 44.9999 98.7C46.6999 102.5 42.7999 106.1 39.8999 107.9Z" fill="white"/>
<path d="M12.1999 114.6C8.3999 113.9 0.899902 114.9 0.899902 120C0.899902 122.1 1.2999 122.7 3.3999 123.1C6.5999 124.5 11.3999 122.9 14.2999 121.4C18.5999 118.9 16.3999 115.4 12.1999 114.6ZM11.6999 121C10.0999 121.6 7.8999 122.4 5.7999 122.5C4.7999 122.4 3.7999 122.1 2.9999 121.6C-1.7001 118.5 7.0999 115.2 9.4999 115.1C11.0999 115 13.4999 115.2 14.4999 116.7C15.9999 118.8 13.2999 120.3 11.6999 121Z" fill="white"/>
<defs>
<linearGradient id="paint0_linear" x1="76" y1="26.5" x2="255" y2="116" gradientUnits="userSpaceOnUse">
<stop stop-color="white"/>
<stop offset="0.953125" stop-color="#1A2130"/>
</linearGradient>
</defs>
</svg>
