<svg width="34" height="22" viewBox="0 0 34 22" fill="none" xmlns="http://www.w3.org/2000/svg">
<path d="M29.1999 2.7C25.6999 1.2 21.7999 0.5 18.0999 0.5C13.8999 0.5 9.49989 1.2 5.69989 3.1C1.19989 5.4 -0.400108 9.4 0.399892 14.2C0.499892 14.5 0.699891 14.9 0.799891 15.2C2.49989 18.2 5.89989 19.6 8.99989 20.4C16.1999 22.2 24.4999 20.8 30.1999 15.9C32.4999 13.9 33.8999 11.5 33.5999 8.3C33.2999 5.4 31.7999 3.8 29.1999 2.7ZM26.8999 15.9C23.8999 17.8 20.4999 18.8 16.9999 19.1C12.4999 19.5 3.79989 18 1.49989 13.3C0.999892 11.1 1.49989 8.7 2.79989 7C4.99989 3.9 8.79989 2.7 12.3999 2.3C15.9999 1.8 19.5999 1.8 23.1999 2.3C26.1999 2.8 30.5999 3.6 31.9999 6.7C33.6999 10.5 29.7999 14.1 26.8999 15.9Z" fill="white"/>
</svg>
