<svg width="49" height="25" viewBox="0 0 49 25" fill="none" xmlns="http://www.w3.org/2000/svg">
<rect width="49" height="25" fill="white"/>
<path d="M14 15.3C16.6671 20.1261 21.2392 21.1421 24.7953 21.1421C28.3513 21.1421 32.9234 19.9991 35.5905 15.3H14Z" fill="#C84B06"/>
<path d="M11.7 2H38.4C38.5 2 38.7 2.1 38.7 2.2C38.9 4.5 39.9 21.3 25.5 21.3C9.19998 21.4 11.1 4.4 11.4 2.2C11.4 2.1 11.5 2 11.7 2Z" stroke="#141414" stroke-width="1.4173" stroke-miterlimit="10"/>
<path d="M38.7999 5.59997C38.7999 5.59997 40.6999 3.89997 42.6999 4.59997C45.8999 5.79997 44.8999 9.79997 43.5999 11.6C42.2999 13.5 39.8999 17.3 37.8999 17.5C36.8999 17.6 35.8999 16.3 35.8999 16.3C35.8999 16.3 37.1999 13.8 37.9999 10.9C38.4999 8.89997 38.7999 5.59997 38.7999 5.59997Z" stroke="#141414" stroke-width="1.4173" stroke-miterlimit="10"/>
<path d="M2 21.8H47.8" stroke="#141414" stroke-width="1.4173" stroke-miterlimit="10" stroke-linecap="round"/>
<path d="M10 23L39.6 22.9" stroke="#141414" stroke-width="2.2677" stroke-miterlimit="10" stroke-linecap="round"/>
</svg>
