<svg width="24" height="18" viewBox="0 0 24 18" fill="none" xmlns="http://www.w3.org/2000/svg">
<path opacity="0.3" d="M20.25 1H3.75C2.23131 1 1 2.24241 1 3.77477V14.8739C1 16.4062 2.23131 17.6486 3.75 17.6486H20.25C21.7687 17.6486 23 16.4062 23 14.8739V3.77477C23 2.24241 21.7687 1 20.25 1ZM15.7235 8.40436L21.5444 3.371C21.5847 3.50107 21.625 3.63114 21.625 3.77477V14.8739C21.625 14.9701 21.5887 15.0554 21.57 15.1462L15.7235 8.40436ZM20.25 2.38739C20.3413 2.38739 20.4219 2.42264 20.5078 2.44024L12 9.79855L3.49219 2.44024C3.57812 2.42264 3.65869 2.38739 3.75 2.38739H20.25ZM2.4294 15.1448C2.41058 15.0541 2.375 14.9701 2.375 14.8739V3.77477C2.375 3.63114 2.41595 3.50107 2.45625 3.371L8.27517 8.40301L2.4294 15.1448ZM3.75 16.2613C3.61104 16.2613 3.4848 16.2206 3.35791 16.1813L9.31982 9.30668L11.5529 11.2374C11.6811 11.3499 11.8409 11.4054 12 11.4054C12.1591 11.4054 12.3189 11.3499 12.4471 11.2374L14.6802 9.30672L20.6421 16.1814C20.5159 16.2206 20.3896 16.2613 20.25 16.2613H3.75Z" fill="#141414" stroke="#141414" stroke-width="0.2"/>
</svg>
