<svg width="300" height="327" viewBox="0 0 300 327" fill="none" xmlns="http://www.w3.org/2000/svg">
<path d="M172.885 195.794C189.676 182.418 205.446 167.786 219.755 152.303C222.888 148.913 223.147 143.771 220.373 140.082L211.478 128.26L232.418 130.806C235.751 131.214 239.054 129.84 241.118 127.2C267.901 92.9501 287.562 56.3658 299.555 18.46C300.355 15.9312 300.068 13.1835 298.76 10.8738C297.451 8.5666 295.24 6.90402 292.655 6.28677C268.749 0.574757 244.159 -1.25707 219.578 0.841068C195.345 2.90685 171.688 8.73833 149.265 18.1712C102.637 37.7912 64.584 71.3465 39.217 115.211C26.0325 138.014 16.9237 162.582 12.1425 188.237C7.52329 213.032 7.02972 238.314 10.6767 263.38C10.9061 264.95 11.5268 266.414 12.4491 267.666C7.34132 283.171 3.24063 298.909 0.174457 314.81C-0.825165 319.995 2.57255 325.005 7.7651 326.003C8.37584 326.12 8.98409 326.174 9.58486 326.174C14.0819 326.174 18.0929 322.996 18.9753 318.424C22.1736 301.833 26.6881 285.145 32.3867 268.674C81.7022 254.955 130.075 229.887 172.885 195.794ZM229.315 111.174L191.484 106.577C187.68 106.114 183.958 107.968 182.038 111.283C180.119 114.601 180.371 118.743 182.674 121.806L200.223 145.13C188.053 157.768 174.871 169.76 160.944 180.85C124.135 210.167 83.0708 232.463 40.9944 246.117C47.396 230.798 54.8046 215.802 63.1357 201.396C113.044 115.089 190.756 54.5091 271.802 38.4333C261.228 63.504 247.011 87.8703 229.315 111.174ZM55.7968 124.768C94.0068 58.6929 165.366 19.1768 239.735 19.1768C247.744 19.1768 255.791 19.6372 263.835 20.5705C223.698 29.3066 183.382 48.588 146.665 76.7001C107.301 106.841 72.6832 146.655 46.5559 191.839C39.4738 204.084 33.0797 216.564 27.3836 229.237C27.4833 192.71 37.1081 157.089 55.7968 124.768Z" fill="#F2ECE9"/>
</svg>
