<svg width="30" height="30" viewBox="0 0 30 30" fill="none" xmlns="http://www.w3.org/2000/svg">
<g opacity="0.3" clip-path="url(#clip0)">
<path d="M19.6155 16.1537L23.654 16.1537C24.1348 16.1537 24.5435 16.3219 24.8801 16.6585C25.2165 16.9951 25.3849 17.4037 25.3849 17.8846L25.3849 18.4613C25.3849 19.7354 24.9341 20.8231 24.0325 21.7246C23.1311 22.6258 22.0432 23.0766 20.7692 23.0766L19.6155 23.0766C19.303 23.0766 19.0327 23.1909 18.8042 23.4192C18.5759 23.6476 18.4617 23.9179 18.4617 24.2304L18.4617 26.5383C18.4617 26.8508 18.576 27.1213 18.8042 27.3498C19.0326 27.5778 19.303 27.6923 19.6155 27.6923L20.7692 27.6923C22.0194 27.6923 23.212 27.4486 24.348 26.9621C25.4838 26.4752 26.4662 25.8171 27.2957 24.9877C28.125 24.1586 28.783 23.1761 29.2698 22.0401C29.7566 20.9043 30 19.7113 30 18.4613L30 5.76934C30 4.80729 29.6636 3.99042 28.9905 3.31709C28.3174 2.64413 27.4999 2.30768 26.5384 2.30768L19.615 2.30768C18.6536 2.30768 17.8364 2.64413 17.1632 3.31709C16.4902 3.99042 16.1536 4.8073 16.1536 5.76934L16.1536 12.6921C16.1536 13.654 16.4902 14.4708 17.1636 15.1442C17.8365 15.8171 18.6541 16.1537 19.6155 16.1537Z" fill="#C84B06"/>
<path d="M1.009 15.1442C1.68189 15.8171 2.4992 16.1537 3.46087 16.1537L7.49931 16.1537C7.97985 16.1537 8.38898 16.3219 8.72499 16.6585C9.06169 16.9951 9.22979 17.4037 9.22979 17.8846L9.22979 18.4613C9.22979 19.7354 8.77898 20.823 7.87787 21.7246C6.9767 22.6258 5.88893 23.0766 4.61431 23.0766L3.4608 23.0766C3.14829 23.0766 2.87777 23.1909 2.64949 23.4192C2.42134 23.6476 2.30673 23.9179 2.30673 24.2304L2.30673 26.5383C2.30673 26.8508 2.42128 27.1213 2.64949 27.3498C2.87771 27.5778 3.14823 27.6923 3.4608 27.6923L4.61431 27.6923C5.86513 27.6923 7.05753 27.4486 8.1938 26.9621C9.32943 26.4752 10.3116 25.8171 11.141 24.9877C11.9704 24.1586 12.6287 23.1761 13.1153 22.0401C13.602 20.9043 13.8457 19.7113 13.8457 18.4613L13.8457 5.76933C13.8457 4.80728 13.509 3.99041 12.8361 3.31707C12.1631 2.64411 11.3458 2.30766 10.3842 2.30766L3.46124 2.30766C2.49958 2.30766 1.68233 2.64411 1.00944 3.31707C0.336038 3.99041 3.4239e-05 4.80728 3.43231e-05 5.76933L3.49283e-05 12.6921C-2.88838e-05 13.654 0.336039 14.4708 1.009 15.1442Z" fill="#C84B06"/>
</g>
<defs>
<clipPath id="clip0">
<rect width="30" height="30" fill="white" transform="translate(30 30) rotate(180)"/>
</clipPath>
</defs>
</svg>
