<svg width="61" height="64" viewBox="0 0 61 64" fill="none" xmlns="http://www.w3.org/2000/svg">
<g filter="url(#filter0_d)">
<path d="M17.0996 16.6018C17.431 16.6551 17.7663 16.6816 18.1021 16.681C18.962 16.6793 19.8112 16.4926 20.5906 16.1339C21.37 15.7753 22.061 15.2534 22.6153 14.6044C23.1697 13.9555 23.5741 13.1951 23.8006 12.3761C24.027 11.5572 24.07 10.6994 23.9266 9.86239C23.7179 8.66975 23.1405 7.57008 22.2735 6.71427C21.4066 5.85846 20.2926 5.28844 19.0845 5.08243C18.1526 4.92625 17.1963 4.99266 16.2956 5.2761C15.395 5.55954 14.5763 6.05178 13.9078 6.71162C13.2394 7.37146 12.7408 8.17973 12.4537 9.0688C12.1665 9.95787 12.0993 10.9019 12.2575 11.8219C12.4662 13.0145 13.0436 14.1142 13.9105 14.97C14.7775 15.8258 15.8914 16.3958 17.0996 16.6018ZM15.681 8.46205C15.9965 8.14766 16.372 7.89827 16.7859 7.72838C17.1998 7.55849 17.6438 7.47148 18.092 7.47241C18.2886 7.4732 18.4847 7.48975 18.6785 7.52189C19.431 7.65318 20.1171 8.02993 20.6269 8.5918C21.1368 9.15368 21.4409 9.86819 21.4907 10.6209C21.5404 11.3737 21.3328 12.1211 20.9012 12.7436C20.4695 13.3661 19.8388 13.8276 19.11 14.0542C18.3811 14.2809 17.5963 14.2595 16.8812 13.9937C16.1661 13.7278 15.562 13.2327 15.1658 12.5877C14.7695 11.9427 14.6039 11.1852 14.6955 10.4362C14.7871 9.68734 15.1306 8.99043 15.671 8.4571L15.681 8.46205ZM9.37529 19.6846C8.86509 20.2503 8.48206 20.9163 8.25138 21.6386C8.0207 22.361 7.94762 23.1234 8.03695 23.8757L9.23995 32.8517C9.32453 33.5925 9.58636 34.3028 10.0038 34.924C10.4213 35.5452 10.9824 36.0595 11.6409 36.4244L13.5858 50.4822C13.6658 51.1737 14.0006 51.8121 14.5266 52.2756C15.0525 52.7392 15.7328 52.9955 16.4379 52.9959H19.7512C20.4499 52.9976 21.1251 52.747 21.6495 52.2913C22.1739 51.8355 22.5114 51.2062 22.5983 50.5218L24.5431 36.4244C25.1998 36.0616 25.7596 35.5497 26.1762 34.931C26.5929 34.3124 26.8544 33.6048 26.9391 32.8666L28.1521 23.846C28.236 23.0986 28.1593 22.3422 27.927 21.6261C27.6947 20.91 27.3121 20.2502 26.8041 19.6899C26.2961 19.1296 25.6742 18.6813 24.9788 18.3743C24.2835 18.0673 23.5304 17.9085 22.7687 17.9082H21.2399C21.0213 17.9075 20.8054 17.9557 20.6083 18.0491C20.4113 18.1425 20.2382 18.2787 20.102 18.4475L18.097 20.9216L16.092 18.4475C15.9574 18.2775 15.7856 18.1398 15.5894 18.0447C15.3932 17.9496 15.1778 17.8995 14.9592 17.8983H13.4154C12.6526 17.8991 11.8986 18.0586 11.2025 18.3664C10.5064 18.6742 9.88378 19.1234 9.37529 19.6846ZM11.245 21.3323C11.5171 21.0282 11.852 20.7852 12.2273 20.6196C12.6025 20.454 13.0094 20.3697 13.4204 20.3724H14.4229L16.6635 23.1285C16.7833 23.2767 16.936 23.3957 17.1098 23.4764C17.2837 23.557 17.4739 23.5972 17.666 23.5937H18.5331C18.7252 23.5972 18.9154 23.557 19.0893 23.4764C19.2631 23.3957 19.4158 23.2767 19.5356 23.1285L21.7712 20.3724H22.7737C23.1826 20.3728 23.5867 20.4582 23.9599 20.6229C24.3332 20.7877 24.667 21.0283 24.9399 21.3289C25.2127 21.6294 25.4183 21.9834 25.5434 22.3676C25.6685 22.7519 25.7103 23.1578 25.6659 23.559L24.4529 32.5746C24.4082 32.991 24.2466 33.3868 23.9862 33.7173C23.7258 34.0478 23.377 34.2998 22.9792 34.4451C22.7666 34.5226 22.5793 34.6555 22.4372 34.8298C22.2951 35.0041 22.2035 35.2131 22.1722 35.4347L20.1121 50.2051C20.1023 50.293 20.0601 50.3744 19.9936 50.4336C19.927 50.4929 19.8408 50.5261 19.7512 50.5267H16.4379C16.3438 50.5256 16.2536 50.4892 16.1857 50.4249C16.1177 50.3606 16.0771 50.2732 16.072 50.1804L14.0319 35.4347C14.0002 35.2126 13.9078 35.0031 13.7648 34.8288C13.6218 34.6545 13.4334 34.5218 13.2199 34.4451C12.8143 34.3019 12.4579 34.0485 12.1918 33.7141C11.9258 33.3796 11.7609 32.9778 11.7161 32.5549L10.5231 23.559C10.4765 23.1586 10.5168 22.7529 10.6412 22.369C10.7657 21.985 10.9715 21.6317 11.245 21.3323ZM38.7035 50.4525C50.8036 46.103 50.6182 36.5975 50.4528 28.1856C50.4528 27.6908 50.4528 27.2355 50.4528 26.7704C45.741 26.5626 41.9666 25.1523 38.7285 22.3813C36.9565 23.9148 34.8882 25.0779 32.6483 25.8006C32.4914 25.8536 32.3254 25.8753 32.1598 25.8645C31.9943 25.8537 31.8326 25.8106 31.6841 25.7376C31.5356 25.6647 31.4033 25.5633 31.2948 25.4395C31.1862 25.3156 31.1037 25.1717 31.0519 25.0162C31.0002 24.8606 30.9802 24.6964 30.9932 24.5332C31.0062 24.3699 31.052 24.2109 31.1277 24.0652C31.2035 23.9195 31.3078 23.7901 31.4346 23.6846C31.5614 23.579 31.7082 23.4993 31.8664 23.4502C34.1205 22.7157 36.1698 21.4721 37.8513 19.8182C38.0853 19.593 38.3992 19.467 38.726 19.467C39.0528 19.467 39.3667 19.593 39.6007 19.8182C42.7786 22.8663 46.6232 24.3013 51.6758 24.3013C52.0082 24.3013 52.3269 24.4316 52.5619 24.6636C52.7969 24.8956 52.9289 25.2102 52.9289 25.5383C52.9289 26.3647 52.9289 27.2306 52.964 28.1163C53.1244 36.5283 53.35 48.0625 39.1195 52.9316C38.8533 53.0228 38.5637 53.0228 38.2974 52.9316C32.5431 50.9671 28.7035 47.8052 26.5481 43.243C26.4784 43.0958 26.4386 42.9365 26.4312 42.7742C26.4238 42.6118 26.4489 42.4496 26.505 42.2969C26.561 42.1441 26.6471 42.0037 26.7581 41.8837C26.8692 41.7638 27.003 41.6666 27.1521 41.5977C27.3012 41.5288 27.4626 41.4896 27.6271 41.4823C27.7915 41.475 27.9558 41.4997 28.1106 41.5551C28.2653 41.6105 28.4075 41.6954 28.529 41.805C28.6506 41.9146 28.749 42.0468 28.8188 42.194C30.6233 46.0041 33.8564 48.7107 38.7035 50.4525ZM33.4604 37.5476C33.3167 37.467 33.1906 37.3591 33.0894 37.2301C32.9881 37.1012 32.9137 36.9538 32.8704 36.7963C32.8271 36.6389 32.8158 36.4745 32.8371 36.3128C32.8584 36.151 32.9119 35.995 32.9945 35.8537C33.0771 35.7124 33.1873 35.5886 33.3185 35.4895C33.4498 35.3904 33.5997 35.3179 33.7594 35.2762C33.9192 35.2345 34.0858 35.2245 34.2495 35.2466C34.4132 35.2687 34.5709 35.3225 34.7135 35.405C35.623 35.928 36.4378 36.5969 37.1245 37.3843C38.7042 35.4407 40.5615 33.7339 42.6383 32.3173C42.9054 32.2015 43.2052 32.1812 43.4858 32.2602C43.7665 32.3391 44.0104 32.5123 44.1755 32.7498C44.3407 32.9873 44.4167 33.2743 44.3904 33.5612C44.3642 33.8481 44.2373 34.1169 44.0317 34.3214C41.7285 35.9052 39.7305 37.8825 38.132 40.1603C38.0166 40.3237 37.8629 40.4571 37.684 40.5493C37.5051 40.6415 37.3063 40.6897 37.1045 40.6897H37.0493C36.8375 40.6817 36.6312 40.6207 36.4497 40.5125C36.2683 40.4044 36.1176 40.2525 36.0117 40.0712C35.4006 39.0234 34.5206 38.153 33.4604 37.5476Z" fill="white"/>
<path d="M17.0996 16.6018C17.431 16.6551 17.7663 16.6816 18.1021 16.681C18.962 16.6793 19.8112 16.4926 20.5906 16.1339C21.37 15.7753 22.061 15.2534 22.6153 14.6044C23.1697 13.9555 23.5741 13.1951 23.8006 12.3761C24.027 11.5572 24.07 10.6994 23.9266 9.86239C23.7179 8.66975 23.1405 7.57008 22.2735 6.71427C21.4066 5.85846 20.2926 5.28844 19.0845 5.08243C18.1526 4.92625 17.1963 4.99266 16.2956 5.2761C15.395 5.55954 14.5763 6.05178 13.9078 6.71162C13.2394 7.37146 12.7408 8.17973 12.4537 9.0688C12.1665 9.95787 12.0993 10.9019 12.2575 11.8219C12.4662 13.0145 13.0436 14.1142 13.9105 14.97C14.7775 15.8258 15.8914 16.3958 17.0996 16.6018ZM15.681 8.46205C15.9965 8.14766 16.372 7.89827 16.7859 7.72838C17.1998 7.55849 17.6438 7.47148 18.092 7.47241C18.2886 7.4732 18.4847 7.48975 18.6785 7.52189C19.431 7.65318 20.1171 8.02993 20.6269 8.5918C21.1368 9.15368 21.4409 9.86819 21.4907 10.6209C21.5404 11.3737 21.3328 12.1211 20.9012 12.7436C20.4695 13.3661 19.8388 13.8276 19.11 14.0542C18.3811 14.2809 17.5963 14.2595 16.8812 13.9937C16.1661 13.7278 15.562 13.2327 15.1658 12.5877C14.7695 11.9427 14.6039 11.1852 14.6955 10.4362C14.7871 9.68734 15.1306 8.99043 15.671 8.4571L15.681 8.46205ZM9.37529 19.6846C8.86509 20.2503 8.48206 20.9163 8.25138 21.6386C8.0207 22.361 7.94762 23.1234 8.03695 23.8757L9.23995 32.8517C9.32453 33.5925 9.58636 34.3028 10.0038 34.924C10.4213 35.5452 10.9824 36.0595 11.6409 36.4244L13.5858 50.4822C13.6658 51.1737 14.0006 51.8121 14.5266 52.2756C15.0525 52.7392 15.7328 52.9955 16.4379 52.9959H19.7512C20.4499 52.9976 21.1251 52.747 21.6495 52.2913C22.1739 51.8355 22.5114 51.2062 22.5983 50.5218L24.5431 36.4244C25.1998 36.0616 25.7596 35.5497 26.1762 34.931C26.5929 34.3124 26.8544 33.6048 26.9391 32.8666L28.1521 23.846C28.236 23.0986 28.1593 22.3422 27.927 21.6261C27.6947 20.91 27.3121 20.2502 26.8041 19.6899C26.2961 19.1296 25.6742 18.6813 24.9788 18.3743C24.2835 18.0673 23.5304 17.9085 22.7687 17.9082H21.2399C21.0213 17.9075 20.8054 17.9557 20.6083 18.0491C20.4113 18.1425 20.2382 18.2787 20.102 18.4475L18.097 20.9216L16.092 18.4475C15.9574 18.2775 15.7856 18.1398 15.5894 18.0447C15.3932 17.9496 15.1778 17.8995 14.9592 17.8983H13.4154C12.6526 17.8991 11.8986 18.0586 11.2025 18.3664C10.5064 18.6742 9.88378 19.1234 9.37529 19.6846ZM11.245 21.3323C11.5171 21.0282 11.852 20.7852 12.2273 20.6196C12.6025 20.454 13.0094 20.3697 13.4204 20.3724H14.4229L16.6635 23.1285C16.7833 23.2767 16.936 23.3957 17.1098 23.4764C17.2837 23.557 17.4739 23.5972 17.666 23.5937H18.5331C18.7252 23.5972 18.9154 23.557 19.0893 23.4764C19.2631 23.3957 19.4158 23.2767 19.5356 23.1285L21.7712 20.3724H22.7737C23.1826 20.3728 23.5867 20.4582 23.9599 20.6229C24.3332 20.7877 24.667 21.0283 24.9399 21.3289C25.2127 21.6294 25.4183 21.9834 25.5434 22.3676C25.6685 22.7519 25.7103 23.1578 25.6659 23.559L24.4529 32.5746C24.4082 32.991 24.2466 33.3868 23.9862 33.7173C23.7258 34.0478 23.377 34.2998 22.9792 34.4451C22.7666 34.5226 22.5793 34.6555 22.4372 34.8298C22.2951 35.0041 22.2035 35.2131 22.1722 35.4347L20.1121 50.2051C20.1023 50.293 20.0601 50.3744 19.9936 50.4336C19.927 50.4929 19.8408 50.5261 19.7512 50.5267H16.4379C16.3438 50.5256 16.2536 50.4892 16.1857 50.4249C16.1177 50.3606 16.0771 50.2732 16.072 50.1804L14.0319 35.4347C14.0002 35.2126 13.9078 35.0031 13.7648 34.8288C13.6218 34.6545 13.4334 34.5218 13.2199 34.4451C12.8143 34.3019 12.4579 34.0485 12.1918 33.7141C11.9258 33.3796 11.7609 32.9778 11.7161 32.5549L10.5231 23.559C10.4765 23.1586 10.5168 22.7529 10.6412 22.369C10.7657 21.985 10.9715 21.6317 11.245 21.3323ZM38.7035 50.4525C50.8036 46.103 50.6182 36.5975 50.4528 28.1856C50.4528 27.6908 50.4528 27.2355 50.4528 26.7704C45.741 26.5626 41.9666 25.1523 38.7285 22.3813C36.9565 23.9148 34.8882 25.0779 32.6483 25.8006C32.4914 25.8536 32.3254 25.8753 32.1598 25.8645C31.9943 25.8537 31.8326 25.8106 31.6841 25.7376C31.5356 25.6647 31.4033 25.5633 31.2948 25.4395C31.1862 25.3156 31.1037 25.1717 31.0519 25.0162C31.0002 24.8606 30.9802 24.6964 30.9932 24.5332C31.0062 24.3699 31.052 24.2109 31.1277 24.0652C31.2035 23.9195 31.3078 23.7901 31.4346 23.6846C31.5614 23.579 31.7082 23.4993 31.8664 23.4502C34.1205 22.7157 36.1698 21.4721 37.8513 19.8182C38.0853 19.593 38.3992 19.467 38.726 19.467C39.0528 19.467 39.3667 19.593 39.6007 19.8182C42.7786 22.8663 46.6232 24.3013 51.6758 24.3013C52.0082 24.3013 52.3269 24.4316 52.5619 24.6636C52.7969 24.8956 52.9289 25.2102 52.9289 25.5383C52.9289 26.3647 52.9289 27.2306 52.964 28.1163C53.1244 36.5283 53.35 48.0625 39.1195 52.9316C38.8533 53.0228 38.5637 53.0228 38.2974 52.9316C32.5431 50.9671 28.7035 47.8052 26.5481 43.243C26.4784 43.0958 26.4386 42.9365 26.4312 42.7742C26.4238 42.6118 26.4489 42.4496 26.505 42.2969C26.561 42.1441 26.6471 42.0037 26.7581 41.8837C26.8692 41.7638 27.003 41.6666 27.1521 41.5977C27.3012 41.5288 27.4626 41.4896 27.6271 41.4823C27.7915 41.475 27.9558 41.4997 28.1106 41.5551C28.2653 41.6105 28.4075 41.6954 28.529 41.805C28.6506 41.9146 28.749 42.0468 28.8188 42.194C30.6233 46.0041 33.8564 48.7107 38.7035 50.4525ZM33.4604 37.5476C33.3167 37.467 33.1906 37.3591 33.0894 37.2301C32.9881 37.1012 32.9137 36.9538 32.8704 36.7963C32.8271 36.6389 32.8158 36.4745 32.8371 36.3128C32.8584 36.151 32.9119 35.995 32.9945 35.8537C33.0771 35.7124 33.1873 35.5886 33.3185 35.4895C33.4498 35.3904 33.5997 35.3179 33.7594 35.2762C33.9192 35.2345 34.0858 35.2245 34.2495 35.2466C34.4132 35.2687 34.5709 35.3225 34.7135 35.405C35.623 35.928 36.4378 36.5969 37.1245 37.3843C38.7042 35.4407 40.5615 33.7339 42.6383 32.3173C42.9054 32.2015 43.2052 32.1812 43.4858 32.2602C43.7665 32.3391 44.0104 32.5123 44.1755 32.7498C44.3407 32.9873 44.4167 33.2743 44.3904 33.5612C44.3642 33.8481 44.2373 34.1169 44.0317 34.3214C41.7285 35.9052 39.7305 37.8825 38.132 40.1603C38.0166 40.3237 37.8629 40.4571 37.684 40.5493C37.5051 40.6415 37.3063 40.6897 37.1045 40.6897H37.0493C36.8375 40.6817 36.6312 40.6207 36.4497 40.5125C36.2683 40.4044 36.1176 40.2525 36.0117 40.0712C35.4006 39.0234 34.5206 38.153 33.4604 37.5476Z" fill="url(#paint0_linear)"/>
<path d="M17.0996 16.6018C17.431 16.6551 17.7663 16.6816 18.1021 16.681C18.962 16.6793 19.8112 16.4926 20.5906 16.1339C21.37 15.7753 22.061 15.2534 22.6153 14.6044C23.1697 13.9555 23.5741 13.1951 23.8006 12.3761C24.027 11.5572 24.07 10.6994 23.9266 9.86239C23.7179 8.66975 23.1405 7.57008 22.2735 6.71427C21.4066 5.85846 20.2926 5.28844 19.0845 5.08243C18.1526 4.92625 17.1963 4.99266 16.2956 5.2761C15.395 5.55954 14.5763 6.05178 13.9078 6.71162C13.2394 7.37146 12.7408 8.17973 12.4537 9.0688C12.1665 9.95787 12.0993 10.9019 12.2575 11.8219C12.4662 13.0145 13.0436 14.1142 13.9105 14.97C14.7775 15.8258 15.8914 16.3958 17.0996 16.6018ZM15.681 8.46205C15.9965 8.14766 16.372 7.89827 16.7859 7.72838C17.1998 7.55849 17.6438 7.47148 18.092 7.47241C18.2886 7.4732 18.4847 7.48975 18.6785 7.52189C19.431 7.65318 20.1171 8.02993 20.6269 8.5918C21.1368 9.15368 21.4409 9.86819 21.4907 10.6209C21.5404 11.3737 21.3328 12.1211 20.9012 12.7436C20.4695 13.3661 19.8388 13.8276 19.11 14.0542C18.3811 14.2809 17.5963 14.2595 16.8812 13.9937C16.1661 13.7278 15.562 13.2327 15.1658 12.5877C14.7695 11.9427 14.6039 11.1852 14.6955 10.4362C14.7871 9.68734 15.1306 8.99043 15.671 8.4571L15.681 8.46205ZM9.37529 19.6846C8.86509 20.2503 8.48206 20.9163 8.25138 21.6386C8.0207 22.361 7.94762 23.1234 8.03695 23.8757L9.23995 32.8517C9.32453 33.5925 9.58636 34.3028 10.0038 34.924C10.4213 35.5452 10.9824 36.0595 11.6409 36.4244L13.5858 50.4822C13.6658 51.1737 14.0006 51.8121 14.5266 52.2756C15.0525 52.7392 15.7328 52.9955 16.4379 52.9959H19.7512C20.4499 52.9976 21.1251 52.747 21.6495 52.2913C22.1739 51.8355 22.5114 51.2062 22.5983 50.5218L24.5431 36.4244C25.1998 36.0616 25.7596 35.5497 26.1762 34.931C26.5929 34.3124 26.8544 33.6048 26.9391 32.8666L28.1521 23.846C28.236 23.0986 28.1593 22.3422 27.927 21.6261C27.6947 20.91 27.3121 20.2502 26.8041 19.6899C26.2961 19.1296 25.6742 18.6813 24.9788 18.3743C24.2835 18.0673 23.5304 17.9085 22.7687 17.9082H21.2399C21.0213 17.9075 20.8054 17.9557 20.6083 18.0491C20.4113 18.1425 20.2382 18.2787 20.102 18.4475L18.097 20.9216L16.092 18.4475C15.9574 18.2775 15.7856 18.1398 15.5894 18.0447C15.3932 17.9496 15.1778 17.8995 14.9592 17.8983H13.4154C12.6526 17.8991 11.8986 18.0586 11.2025 18.3664C10.5064 18.6742 9.88378 19.1234 9.37529 19.6846ZM11.245 21.3323C11.5171 21.0282 11.852 20.7852 12.2273 20.6196C12.6025 20.454 13.0094 20.3697 13.4204 20.3724H14.4229L16.6635 23.1285C16.7833 23.2767 16.936 23.3957 17.1098 23.4764C17.2837 23.557 17.4739 23.5972 17.666 23.5937H18.5331C18.7252 23.5972 18.9154 23.557 19.0893 23.4764C19.2631 23.3957 19.4158 23.2767 19.5356 23.1285L21.7712 20.3724H22.7737C23.1826 20.3728 23.5867 20.4582 23.9599 20.6229C24.3332 20.7877 24.667 21.0283 24.9399 21.3289C25.2127 21.6294 25.4183 21.9834 25.5434 22.3676C25.6685 22.7519 25.7103 23.1578 25.6659 23.559L24.4529 32.5746C24.4082 32.991 24.2466 33.3868 23.9862 33.7173C23.7258 34.0478 23.377 34.2998 22.9792 34.4451C22.7666 34.5226 22.5793 34.6555 22.4372 34.8298C22.2951 35.0041 22.2035 35.2131 22.1722 35.4347L20.1121 50.2051C20.1023 50.293 20.0601 50.3744 19.9936 50.4336C19.927 50.4929 19.8408 50.5261 19.7512 50.5267H16.4379C16.3438 50.5256 16.2536 50.4892 16.1857 50.4249C16.1177 50.3606 16.0771 50.2732 16.072 50.1804L14.0319 35.4347C14.0002 35.2126 13.9078 35.0031 13.7648 34.8288C13.6218 34.6545 13.4334 34.5218 13.2199 34.4451C12.8143 34.3019 12.4579 34.0485 12.1918 33.7141C11.9258 33.3796 11.7609 32.9778 11.7161 32.5549L10.5231 23.559C10.4765 23.1586 10.5168 22.7529 10.6412 22.369C10.7657 21.985 10.9715 21.6317 11.245 21.3323ZM38.7035 50.4525C50.8036 46.103 50.6182 36.5975 50.4528 28.1856C50.4528 27.6908 50.4528 27.2355 50.4528 26.7704C45.741 26.5626 41.9666 25.1523 38.7285 22.3813C36.9565 23.9148 34.8882 25.0779 32.6483 25.8006C32.4914 25.8536 32.3254 25.8753 32.1598 25.8645C31.9943 25.8537 31.8326 25.8106 31.6841 25.7376C31.5356 25.6647 31.4033 25.5633 31.2948 25.4395C31.1862 25.3156 31.1037 25.1717 31.0519 25.0162C31.0002 24.8606 30.9802 24.6964 30.9932 24.5332C31.0062 24.3699 31.052 24.2109 31.1277 24.0652C31.2035 23.9195 31.3078 23.7901 31.4346 23.6846C31.5614 23.579 31.7082 23.4993 31.8664 23.4502C34.1205 22.7157 36.1698 21.4721 37.8513 19.8182C38.0853 19.593 38.3992 19.467 38.726 19.467C39.0528 19.467 39.3667 19.593 39.6007 19.8182C42.7786 22.8663 46.6232 24.3013 51.6758 24.3013C52.0082 24.3013 52.3269 24.4316 52.5619 24.6636C52.7969 24.8956 52.9289 25.2102 52.9289 25.5383C52.9289 26.3647 52.9289 27.2306 52.964 28.1163C53.1244 36.5283 53.35 48.0625 39.1195 52.9316C38.8533 53.0228 38.5637 53.0228 38.2974 52.9316C32.5431 50.9671 28.7035 47.8052 26.5481 43.243C26.4784 43.0958 26.4386 42.9365 26.4312 42.7742C26.4238 42.6118 26.4489 42.4496 26.505 42.2969C26.561 42.1441 26.6471 42.0037 26.7581 41.8837C26.8692 41.7638 27.003 41.6666 27.1521 41.5977C27.3012 41.5288 27.4626 41.4896 27.6271 41.4823C27.7915 41.475 27.9558 41.4997 28.1106 41.5551C28.2653 41.6105 28.4075 41.6954 28.529 41.805C28.6506 41.9146 28.749 42.0468 28.8188 42.194C30.6233 46.0041 33.8564 48.7107 38.7035 50.4525ZM33.4604 37.5476C33.3167 37.467 33.1906 37.3591 33.0894 37.2301C32.9881 37.1012 32.9137 36.9538 32.8704 36.7963C32.8271 36.6389 32.8158 36.4745 32.8371 36.3128C32.8584 36.151 32.9119 35.995 32.9945 35.8537C33.0771 35.7124 33.1873 35.5886 33.3185 35.4895C33.4498 35.3904 33.5997 35.3179 33.7594 35.2762C33.9192 35.2345 34.0858 35.2245 34.2495 35.2466C34.4132 35.2687 34.5709 35.3225 34.7135 35.405C35.623 35.928 36.4378 36.5969 37.1245 37.3843C38.7042 35.4407 40.5615 33.7339 42.6383 32.3173C42.9054 32.2015 43.2052 32.1812 43.4858 32.2602C43.7665 32.3391 44.0104 32.5123 44.1755 32.7498C44.3407 32.9873 44.4167 33.2743 44.3904 33.5612C44.3642 33.8481 44.2373 34.1169 44.0317 34.3214C41.7285 35.9052 39.7305 37.8825 38.132 40.1603C38.0166 40.3237 37.8629 40.4571 37.684 40.5493C37.5051 40.6415 37.3063 40.6897 37.1045 40.6897H37.0493C36.8375 40.6817 36.6312 40.6207 36.4497 40.5125C36.2683 40.4044 36.1176 40.2525 36.0117 40.0712C35.4006 39.0234 34.5206 38.153 33.4604 37.5476Z" stroke="black"/>
<path d="M17.0996 16.6018C17.431 16.6551 17.7663 16.6816 18.1021 16.681C18.962 16.6793 19.8112 16.4926 20.5906 16.1339C21.37 15.7753 22.061 15.2534 22.6153 14.6044C23.1697 13.9555 23.5741 13.1951 23.8006 12.3761C24.027 11.5572 24.07 10.6994 23.9266 9.86239C23.7179 8.66975 23.1405 7.57008 22.2735 6.71427C21.4066 5.85846 20.2926 5.28844 19.0845 5.08243C18.1526 4.92625 17.1963 4.99266 16.2956 5.2761C15.395 5.55954 14.5763 6.05178 13.9078 6.71162C13.2394 7.37146 12.7408 8.17973 12.4537 9.0688C12.1665 9.95787 12.0993 10.9019 12.2575 11.8219C12.4662 13.0145 13.0436 14.1142 13.9105 14.97C14.7775 15.8258 15.8914 16.3958 17.0996 16.6018ZM15.681 8.46205C15.9965 8.14766 16.372 7.89827 16.7859 7.72838C17.1998 7.55849 17.6438 7.47148 18.092 7.47241C18.2886 7.4732 18.4847 7.48975 18.6785 7.52189C19.431 7.65318 20.1171 8.02993 20.6269 8.5918C21.1368 9.15368 21.4409 9.86819 21.4907 10.6209C21.5404 11.3737 21.3328 12.1211 20.9012 12.7436C20.4695 13.3661 19.8388 13.8276 19.11 14.0542C18.3811 14.2809 17.5963 14.2595 16.8812 13.9937C16.1661 13.7278 15.562 13.2327 15.1658 12.5877C14.7695 11.9427 14.6039 11.1852 14.6955 10.4362C14.7871 9.68734 15.1306 8.99043 15.671 8.4571L15.681 8.46205ZM9.37529 19.6846C8.86509 20.2503 8.48206 20.9163 8.25138 21.6386C8.0207 22.361 7.94762 23.1234 8.03695 23.8757L9.23995 32.8517C9.32453 33.5925 9.58636 34.3028 10.0038 34.924C10.4213 35.5452 10.9824 36.0595 11.6409 36.4244L13.5858 50.4822C13.6658 51.1737 14.0006 51.8121 14.5266 52.2756C15.0525 52.7392 15.7328 52.9955 16.4379 52.9959H19.7512C20.4499 52.9976 21.1251 52.747 21.6495 52.2913C22.1739 51.8355 22.5114 51.2062 22.5983 50.5218L24.5431 36.4244C25.1998 36.0616 25.7596 35.5497 26.1762 34.931C26.5929 34.3124 26.8544 33.6048 26.9391 32.8666L28.1521 23.846C28.236 23.0986 28.1593 22.3422 27.927 21.6261C27.6947 20.91 27.3121 20.2502 26.8041 19.6899C26.2961 19.1296 25.6742 18.6813 24.9788 18.3743C24.2835 18.0673 23.5304 17.9085 22.7687 17.9082H21.2399C21.0213 17.9075 20.8054 17.9557 20.6083 18.0491C20.4113 18.1425 20.2382 18.2787 20.102 18.4475L18.097 20.9216L16.092 18.4475C15.9574 18.2775 15.7856 18.1398 15.5894 18.0447C15.3932 17.9496 15.1778 17.8995 14.9592 17.8983H13.4154C12.6526 17.8991 11.8986 18.0586 11.2025 18.3664C10.5064 18.6742 9.88378 19.1234 9.37529 19.6846ZM11.245 21.3323C11.5171 21.0282 11.852 20.7852 12.2273 20.6196C12.6025 20.454 13.0094 20.3697 13.4204 20.3724H14.4229L16.6635 23.1285C16.7833 23.2767 16.936 23.3957 17.1098 23.4764C17.2837 23.557 17.4739 23.5972 17.666 23.5937H18.5331C18.7252 23.5972 18.9154 23.557 19.0893 23.4764C19.2631 23.3957 19.4158 23.2767 19.5356 23.1285L21.7712 20.3724H22.7737C23.1826 20.3728 23.5867 20.4582 23.9599 20.6229C24.3332 20.7877 24.667 21.0283 24.9399 21.3289C25.2127 21.6294 25.4183 21.9834 25.5434 22.3676C25.6685 22.7519 25.7103 23.1578 25.6659 23.559L24.4529 32.5746C24.4082 32.991 24.2466 33.3868 23.9862 33.7173C23.7258 34.0478 23.377 34.2998 22.9792 34.4451C22.7666 34.5226 22.5793 34.6555 22.4372 34.8298C22.2951 35.0041 22.2035 35.2131 22.1722 35.4347L20.1121 50.2051C20.1023 50.293 20.0601 50.3744 19.9936 50.4336C19.927 50.4929 19.8408 50.5261 19.7512 50.5267H16.4379C16.3438 50.5256 16.2536 50.4892 16.1857 50.4249C16.1177 50.3606 16.0771 50.2732 16.072 50.1804L14.0319 35.4347C14.0002 35.2126 13.9078 35.0031 13.7648 34.8288C13.6218 34.6545 13.4334 34.5218 13.2199 34.4451C12.8143 34.3019 12.4579 34.0485 12.1918 33.7141C11.9258 33.3796 11.7609 32.9778 11.7161 32.5549L10.5231 23.559C10.4765 23.1586 10.5168 22.7529 10.6412 22.369C10.7657 21.985 10.9715 21.6317 11.245 21.3323ZM38.7035 50.4525C50.8036 46.103 50.6182 36.5975 50.4528 28.1856C50.4528 27.6908 50.4528 27.2355 50.4528 26.7704C45.741 26.5626 41.9666 25.1523 38.7285 22.3813C36.9565 23.9148 34.8882 25.0779 32.6483 25.8006C32.4914 25.8536 32.3254 25.8753 32.1598 25.8645C31.9943 25.8537 31.8326 25.8106 31.6841 25.7376C31.5356 25.6647 31.4033 25.5633 31.2948 25.4395C31.1862 25.3156 31.1037 25.1717 31.0519 25.0162C31.0002 24.8606 30.9802 24.6964 30.9932 24.5332C31.0062 24.3699 31.052 24.2109 31.1277 24.0652C31.2035 23.9195 31.3078 23.7901 31.4346 23.6846C31.5614 23.579 31.7082 23.4993 31.8664 23.4502C34.1205 22.7157 36.1698 21.4721 37.8513 19.8182C38.0853 19.593 38.3992 19.467 38.726 19.467C39.0528 19.467 39.3667 19.593 39.6007 19.8182C42.7786 22.8663 46.6232 24.3013 51.6758 24.3013C52.0082 24.3013 52.3269 24.4316 52.5619 24.6636C52.7969 24.8956 52.9289 25.2102 52.9289 25.5383C52.9289 26.3647 52.9289 27.2306 52.964 28.1163C53.1244 36.5283 53.35 48.0625 39.1195 52.9316C38.8533 53.0228 38.5637 53.0228 38.2974 52.9316C32.5431 50.9671 28.7035 47.8052 26.5481 43.243C26.4784 43.0958 26.4386 42.9365 26.4312 42.7742C26.4238 42.6118 26.4489 42.4496 26.505 42.2969C26.561 42.1441 26.6471 42.0037 26.7581 41.8837C26.8692 41.7638 27.003 41.6666 27.1521 41.5977C27.3012 41.5288 27.4626 41.4896 27.6271 41.4823C27.7915 41.475 27.9558 41.4997 28.1106 41.5551C28.2653 41.6105 28.4075 41.6954 28.529 41.805C28.6506 41.9146 28.749 42.0468 28.8188 42.194C30.6233 46.0041 33.8564 48.7107 38.7035 50.4525ZM33.4604 37.5476C33.3167 37.467 33.1906 37.3591 33.0894 37.2301C32.9881 37.1012 32.9137 36.9538 32.8704 36.7963C32.8271 36.6389 32.8158 36.4745 32.8371 36.3128C32.8584 36.151 32.9119 35.995 32.9945 35.8537C33.0771 35.7124 33.1873 35.5886 33.3185 35.4895C33.4498 35.3904 33.5997 35.3179 33.7594 35.2762C33.9192 35.2345 34.0858 35.2245 34.2495 35.2466C34.4132 35.2687 34.5709 35.3225 34.7135 35.405C35.623 35.928 36.4378 36.5969 37.1245 37.3843C38.7042 35.4407 40.5615 33.7339 42.6383 32.3173C42.9054 32.2015 43.2052 32.1812 43.4858 32.2602C43.7665 32.3391 44.0104 32.5123 44.1755 32.7498C44.3407 32.9873 44.4167 33.2743 44.3904 33.5612C44.3642 33.8481 44.2373 34.1169 44.0317 34.3214C41.7285 35.9052 39.7305 37.8825 38.132 40.1603C38.0166 40.3237 37.8629 40.4571 37.684 40.5493C37.5051 40.6415 37.3063 40.6897 37.1045 40.6897H37.0493C36.8375 40.6817 36.6312 40.6207 36.4497 40.5125C36.2683 40.4044 36.1176 40.2525 36.0117 40.0712C35.4006 39.0234 34.5206 38.153 33.4604 37.5476Z" stroke="url(#paint1_linear)"/>
</g>
<defs>
<filter id="filter0_d" x="0" y="0" width="61" height="64" filterUnits="userSpaceOnUse" color-interpolation-filters="sRGB">
<feFlood flood-opacity="0" result="BackgroundImageFix"/>
<feColorMatrix in="SourceAlpha" type="matrix" values="0 0 0 0 0 0 0 0 0 0 0 0 0 0 0 0 0 0 127 0"/>
<feOffset dy="3"/>
<feGaussianBlur stdDeviation="4"/>
<feColorMatrix type="matrix" values="0 0 0 0 1 0 0 0 0 0.511965 0 0 0 0 0.445415 0 0 0 0.15 0"/>
<feBlend mode="normal" in2="BackgroundImageFix" result="effect1_dropShadow"/>
<feBlend mode="normal" in="SourceGraphic" in2="effect1_dropShadow" result="shape"/>
</filter>
<linearGradient id="paint0_linear" x1="8" y1="5" x2="55.1041" y2="7.16223" gradientUnits="userSpaceOnUse">
<stop stop-color="#E46857"/>
<stop offset="0.0001" stop-color="#FF8372"/>
<stop offset="1" stop-color="#F35050"/>
</linearGradient>
<linearGradient id="paint1_linear" x1="8" y1="5" x2="55.1041" y2="7.16223" gradientUnits="userSpaceOnUse">
<stop stop-color="#E46857"/>
<stop offset="0.0001" stop-color="#FF8372"/>
<stop offset="1" stop-color="#F35050"/>
</linearGradient>
</defs>
</svg>
