<svg width="43" height="51" viewBox="0 0 43 51" fill="none" xmlns="http://www.w3.org/2000/svg">
<path d="M23.1498 31.7549H20.3483C19.3296 31.7549 18.5045 30.9297 18.5045 29.911C18.5045 28.8923 19.3296 28.0672 20.3483 28.0672H25.2789C25.9513 28.0672 26.5014 27.5171 26.5014 26.8447C26.5014 26.1724 25.9513 25.6222 25.2789 25.6222H22.9664V23.921C22.9664 23.2487 22.4163 22.6985 21.744 22.6985C21.0716 22.6985 20.5215 23.2487 20.5215 23.921V25.6222H20.3483C17.9849 25.6222 16.0596 27.5476 16.0596 29.911C16.0596 32.2744 17.9849 34.1998 20.3483 34.1998H23.1498C24.1685 34.1998 24.9937 35.025 24.9937 36.0437C24.9937 37.0624 24.1685 37.8875 23.1498 37.8875H18.1276C17.4552 37.8875 16.9051 38.4376 16.9051 39.11C16.9051 39.7823 17.4552 40.3324 18.1276 40.3324H20.5317V42.0744C20.5317 42.7468 21.0818 43.2969 21.7542 43.2969C22.4265 43.2969 22.9766 42.7468 22.9766 42.0744V40.3324H23.1804C23.1905 40.3324 23.2007 40.3324 23.2109 40.3324C25.554 40.3019 27.4386 38.3867 27.4386 36.0437C27.4386 33.6803 25.5132 31.7549 23.1498 31.7549Z" fill="black" stroke="#151515" stroke-width="0.5"/>
<path d="M40.1217 28.984C38.8382 26.0297 37.0656 23.1672 34.8244 20.4879C32.1147 17.2281 29.4151 15.048 28.0398 14.0395L33.2352 4.40249C33.4899 3.9237 33.4084 3.33285 33.0111 2.95593C31.6664 1.64179 30.2402 1 28.6511 1C27.1943 1 25.8598 1.5501 24.6985 2.03909C23.7816 2.41601 22.9157 2.78274 22.2128 2.78274C21.9989 2.78274 21.8155 2.75218 21.6321 2.68087C19.2076 1.79459 17.3434 1.24449 15.5402 1.24449C13.2583 1.24449 11.3126 2.16133 9.4076 4.11726C9.0103 4.52474 8.94918 5.16653 9.26498 5.64532L14.8679 14.1108C13.4824 15.1397 10.8338 17.2994 8.17495 20.4879C5.94398 23.1672 4.16123 26.0297 2.87766 28.984C1.26809 32.7023 0.453125 36.5836 0.453125 40.5158C0.453125 45.7418 4.71134 50 9.93733 50H33.0621C38.2881 50 42.5463 45.7418 42.5463 40.5158C42.5463 36.5836 41.7313 32.7023 40.1217 28.984ZM11.8729 5.13597C13.0546 4.11726 14.1854 3.66902 15.5402 3.66902C16.9868 3.66902 18.6167 4.158 20.7866 4.96279C21.2348 5.12578 21.7136 5.20728 22.2026 5.20728C23.3945 5.20728 24.5355 4.73867 25.6255 4.28025C26.6747 3.8422 27.6731 3.42453 28.6409 3.42453C29.1095 3.42453 29.7716 3.50603 30.607 4.09688L25.7172 13.1838H17.2007L11.8729 5.13597ZM33.0621 47.5551H9.93733C6.05604 47.5551 2.89803 44.3971 2.89803 40.5158C2.89803 33.9859 5.292 27.7921 9.99845 22.1077C12.9731 18.5116 15.9987 16.2807 16.9155 15.6287H26.0635C26.9905 16.2705 30.0059 18.5116 32.9806 22.1077C37.6972 27.7921 40.081 33.9757 40.081 40.5158C40.1014 44.3971 36.9434 47.5551 33.0621 47.5551Z" fill="black" stroke="#151515" stroke-width="0.5"/>
<defs>
<linearGradient id="paint0_linear" x1="0" y1="0" x2="42.8015" y2="1.7846" gradientUnits="userSpaceOnUse">
<stop stop-color="#E46857"/>
<stop offset="0.0001" stop-color="#FF8372"/>
<stop offset="1" stop-color="#F35050"/>
</linearGradient>
<linearGradient id="paint1_linear" x1="8.47461" y1="12.0386" x2="33.5106" y2="13.2644" gradientUnits="userSpaceOnUse">
<stop stop-color="#E46857"/>
<stop offset="0.0001" stop-color="#FF8372"/>
<stop offset="1" stop-color="#F35050"/>
</linearGradient>
<linearGradient id="paint2_linear" x1="14.4067" y1="19.8743" x2="26.8127" y2="20.644" gradientUnits="userSpaceOnUse">
<stop stop-color="#E46857"/>
<stop offset="0.0001" stop-color="#FF8372"/>
<stop offset="1" stop-color="#F35050"/>
</linearGradient>
</defs>
</svg>
