<svg width="45" height="36" viewBox="0 0 45 36" fill="none" xmlns="http://www.w3.org/2000/svg">
<path d="M44.4339 21.2925L37.4544 14.3713V3.8231C37.4544 3.09989 36.8623 2.51302 36.1328 2.51302H31.3649C30.6353 2.51302 30.0433 3.09989 30.0433 3.8231V7.02468L23.3462 0.383952C23.0982 0.138168 22.7615 0 22.4114 0C22.0614 0 21.7251 0.138168 21.4772 0.383952L0.38709 21.2925C-0.12903 21.8041 -0.12903 22.6331 0.38709 23.1447C0.90367 23.6564 1.73857 23.6564 2.25561 23.1447L22.4114 3.16236L42.565 23.1452C42.823 23.4015 43.1602 23.5273 43.4992 23.5273C43.8364 23.5273 44.1754 23.4015 44.4335 23.1452C44.9501 22.6336 44.9501 21.8041 44.4339 21.2925ZM32.6865 5.13274H34.8112V11.7511L32.6865 9.6444V5.13274Z" fill="black"/>
<path d="M36.1328 20.9003C35.4033 20.9003 34.8112 21.4872 34.8112 22.2104V33.2091H26.3744V25.5264C26.3744 24.8028 25.7828 24.2164 25.0533 24.2164H19.7669C19.0374 24.2164 18.4454 24.8028 18.4454 25.5264V33.2091H10.0103V22.2104C10.0103 21.4872 9.41833 20.9003 8.68877 20.9003C7.95921 20.9003 7.36719 21.4872 7.36719 22.2104V34.5192C7.36719 35.2424 7.95921 35.8293 8.68877 35.8293H19.7669H25.0533H36.1328C36.8624 35.8293 37.4544 35.2424 37.4544 34.5192V22.2104C37.4544 21.4872 36.8624 20.9003 36.1328 20.9003ZM21.0885 33.2091V26.8361H23.7317V33.2091H21.0885Z" fill="black"/>
<defs>
<linearGradient id="paint0_linear" x1="0" y1="0" x2="46.61" y2="4.34749" gradientUnits="userSpaceOnUse">
<stop stop-color="#E46857"/>
<stop offset="0.0001" stop-color="#FF8372"/>
<stop offset="1" stop-color="#F35050"/>
</linearGradient>
<linearGradient id="paint1_linear" x1="7.36719" y1="20.9003" x2="38.6232" y2="23.9846" gradientUnits="userSpaceOnUse">
<stop stop-color="#E46857"/>
<stop offset="0.0001" stop-color="#FF8372"/>
<stop offset="1" stop-color="#F35050"/>
</linearGradient>
</defs>
</svg>
