<svg width="50" height="27" viewBox="0 0 50 27" fill="none" xmlns="http://www.w3.org/2000/svg">
<path d="M50 11.7068C50 9.72955 49.4007 8.38636 48.4377 6.85227L45.1044 1.55455C44.4916 0.579545 43.4411 0 42.303 0H24.0404C22.6128 0 21.2593 0.552273 20.229 1.56136L13.67 7.99773C13.2458 8.41364 12.7205 8.7 12.1481 8.82273L2.59933 11.4818C1.08418 11.8295 0 13.2068 0 14.7614V19.6636C0 21.5318 1.50168 23.0455 3.34007 23.0455H4.3165L4.3771 23.2091C5.23906 25.4795 7.42088 27 9.80471 27C12.1886 27 14.3771 25.4795 15.2323 23.2091L15.2929 23.0455H33.8047L33.8653 23.2091C34.7273 25.4795 36.9091 27 39.2929 27C41.6835 27 43.8653 25.4795 44.7205 23.2091L44.7811 23.0455H46.633C48.4849 23.0455 49.9933 21.5182 49.9933 19.6432V11.7068H50ZM34.1077 2.21591H42.2963C42.6869 2.21591 43.0438 2.41364 43.2593 2.74773L46.8418 8.43409L46.3838 8.44091H34.1077V2.21591ZM21.7508 3.15682C22.3704 2.55 23.1785 2.21591 24.0404 2.21591H31.9192V8.44773H16.3636L21.7508 3.15682ZM9.80471 24.7841C7.80471 24.7841 6.17508 23.1341 6.17508 21.1091C6.17508 19.0841 7.80471 17.4341 9.80471 17.4341C11.8047 17.4341 13.4343 19.0841 13.4343 21.1091C13.4411 23.1341 11.8114 24.7841 9.80471 24.7841ZM39.2929 24.7841C37.2929 24.7841 35.6633 23.1341 35.6633 21.1091C35.6633 19.0841 37.2929 17.4341 39.2929 17.4341C41.2929 17.4341 42.9226 19.0841 42.9226 21.1091C42.9293 23.1341 41.2997 24.7841 39.2929 24.7841ZM47.8115 19.6432C47.8115 20.2977 47.2862 20.8295 46.6397 20.8295H45.1044L45.0842 20.5977C44.8283 17.5773 42.2828 15.2182 39.2929 15.2182C36.303 15.2182 33.7576 17.5841 33.5017 20.5977L33.4815 20.8295H15.6229L15.6027 20.5977C15.3468 17.5773 12.8013 15.2182 9.80471 15.2182C6.80808 15.2182 4.26936 17.5841 4.00673 20.5977L3.98653 20.8295H3.34007C2.70707 20.8295 2.18855 20.3045 2.18855 19.6636V14.7614C2.18855 14.2295 2.56566 13.7591 3.07744 13.6432L12.6263 10.9841C12.9158 10.9159 13.2054 10.8205 13.5488 10.6773L13.6498 10.6568H47.7306L47.7576 10.8818C47.7912 11.1614 47.8115 11.4341 47.8115 11.7068V19.6432Z" fill="black"/>
<path d="M50 11.7068C50 9.72955 49.4007 8.38636 48.4377 6.85227L45.1044 1.55455C44.4916 0.579545 43.4411 0 42.303 0H24.0404C22.6128 0 21.2593 0.552273 20.229 1.56136L13.67 7.99773C13.2458 8.41364 12.7205 8.7 12.1481 8.82273L2.59933 11.4818C1.08418 11.8295 0 13.2068 0 14.7614V19.6636C0 21.5318 1.50168 23.0455 3.34007 23.0455H4.3165L4.3771 23.2091C5.23906 25.4795 7.42088 27 9.80471 27C12.1886 27 14.3771 25.4795 15.2323 23.2091L15.2929 23.0455H33.8047L33.8653 23.2091C34.7273 25.4795 36.9091 27 39.2929 27C41.6835 27 43.8653 25.4795 44.7205 23.2091L44.7811 23.0455H46.633C48.4849 23.0455 49.9933 21.5182 49.9933 19.6432V11.7068H50ZM34.1077 2.21591H42.2963C42.6869 2.21591 43.0438 2.41364 43.2593 2.74773L46.8418 8.43409L46.3838 8.44091H34.1077V2.21591ZM21.7508 3.15682C22.3704 2.55 23.1785 2.21591 24.0404 2.21591H31.9192V8.44773H16.3636L21.7508 3.15682ZM9.80471 24.7841C7.80471 24.7841 6.17508 23.1341 6.17508 21.1091C6.17508 19.0841 7.80471 17.4341 9.80471 17.4341C11.8047 17.4341 13.4343 19.0841 13.4343 21.1091C13.4411 23.1341 11.8114 24.7841 9.80471 24.7841ZM39.2929 24.7841C37.2929 24.7841 35.6633 23.1341 35.6633 21.1091C35.6633 19.0841 37.2929 17.4341 39.2929 17.4341C41.2929 17.4341 42.9226 19.0841 42.9226 21.1091C42.9293 23.1341 41.2997 24.7841 39.2929 24.7841ZM47.8115 19.6432C47.8115 20.2977 47.2862 20.8295 46.6397 20.8295H45.1044L45.0842 20.5977C44.8283 17.5773 42.2828 15.2182 39.2929 15.2182C36.303 15.2182 33.7576 17.5841 33.5017 20.5977L33.4815 20.8295H15.6229L15.6027 20.5977C15.3468 17.5773 12.8013 15.2182 9.80471 15.2182C6.80808 15.2182 4.26936 17.5841 4.00673 20.5977L3.98653 20.8295H3.34007C2.70707 20.8295 2.18855 20.3045 2.18855 19.6636V14.7614C2.18855 14.2295 2.56566 13.7591 3.07744 13.6432L12.6263 10.9841C12.9158 10.9159 13.2054 10.8205 13.5488 10.6773L13.6498 10.6568H47.7306L47.7576 10.8818C47.7912 11.1614 47.8115 11.4341 47.8115 11.7068V19.6432Z" fill="black"/>
<defs>
<linearGradient id="paint0_linear" x1="-3.1248" y1="3.95464" x2="40.3409" y2="-9.03371" gradientUnits="userSpaceOnUse">
<stop stop-color="#E46857"/>
<stop offset="0.0001" stop-color="#FF8372"/>
<stop offset="1" stop-color="#F35050"/>
</linearGradient>
</defs>
</svg>
