<svg width="48" height="47" viewBox="0 0 48 47" fill="none" xmlns="http://www.w3.org/2000/svg">
<path fill-rule="evenodd" clip-rule="evenodd" d="M36.9735 45.3346C36.7485 45.5558 36.4433 45.6802 36.125 45.6802H1.8626C1.54434 45.6802 1.23911 45.5558 1.01407 45.3346C0.789026 45.1133 0.662598 44.8131 0.662598 44.5002V40.5495C0.668202 38.8604 1.19405 37.2127 2.17086 35.8233C3.14766 34.4339 4.5296 33.3681 6.1346 32.7662L15.2066 29.415C15.2107 29.403 15.2191 29.3918 15.2275 29.3807C15.2387 29.3658 15.2498 29.3511 15.2498 29.3348V26.7577C14.073 25.0901 13.3102 23.1744 13.0226 21.1645C12.2544 20.5425 11.6354 19.7614 11.2097 18.8769C10.7841 17.9925 10.5623 17.0265 10.5602 16.048C10.5523 15.5956 10.6389 15.1464 10.8148 14.7282C10.9907 14.3101 11.252 13.9319 11.5826 13.6172C11.9452 13.2758 12.3794 13.0165 12.8546 12.8573L12.8834 10.4973C12.8824 9.33229 13.1055 8.17761 13.541 7.09417C14.8178 4.01201 18.1202 0.708008 22.373 0.708008H24.4802C24.7976 0.709256 25.1016 0.834128 25.3256 1.05529C25.5496 1.27644 25.6754 1.57587 25.6754 1.88801V3.54945C27.8995 4.13581 29.8433 5.4724 31.1666 7.32545C31.9715 8.43479 32.3968 9.7671 32.381 11.1298V12.9186C32.8382 13.0873 33.2538 13.3495 33.6002 13.688C33.914 13.9984 34.1624 14.3667 34.3313 14.7716C34.5001 15.1766 34.5861 15.6103 34.5842 16.048C34.5836 17.0024 34.3746 17.9455 33.9713 18.8135C33.5681 19.6816 32.9799 20.4543 32.2466 21.0795C31.9536 23.1596 31.1587 25.1405 29.9282 26.8568V29.3018C29.9326 29.309 29.9384 29.3162 29.9443 29.3236C29.9576 29.3403 29.9714 29.3577 29.9714 29.3773L34.9874 31.2653C35.2853 31.3761 35.5262 31.5987 35.6572 31.8842C35.7882 32.1696 35.7985 32.4946 35.6858 32.7875C35.5731 33.0804 35.3468 33.3173 35.0564 33.4461C34.7661 33.5749 34.4357 33.585 34.1378 33.4742L29.2946 31.6712C28.5887 32.7948 27.5985 33.7191 26.4206 34.3536C25.2427 34.9882 23.9175 35.3113 22.5746 35.2914C21.2318 35.3108 19.9068 34.9875 18.729 34.353C17.5512 33.7185 16.5608 32.7945 15.8546 31.6712L6.9794 34.9752C5.83018 35.4064 4.84078 36.1698 4.14158 37.1649C3.44238 38.16 3.06619 39.34 3.0626 40.5495V43.3202H36.125C36.4433 43.3202 36.7485 43.4445 36.9735 43.6658C37.1986 43.8871 37.325 44.1872 37.325 44.5002C37.325 44.8131 37.1986 45.1133 36.9735 45.3346ZM13.4516 18.0178C13.7731 18.6263 14.2383 19.1502 14.8082 19.5455C14.9462 19.6416 15.0621 19.7653 15.1481 19.9084C15.2341 20.0516 15.2884 20.211 15.3074 20.3762C15.5078 22.1969 16.1678 23.9395 17.2274 25.4455C17.4858 25.7883 17.6255 26.2036 17.6258 26.6302V29.972C18.0823 30.8722 18.7871 31.6279 19.6596 32.1529C20.5322 32.6779 21.5373 32.951 22.5602 32.9409C23.5847 32.9528 24.5919 32.6805 25.4663 32.1554C26.3407 31.6304 27.047 30.8736 27.5042 29.972V26.7294C27.5066 26.2927 27.6532 25.8687 27.9218 25.521C29.0261 23.987 29.7089 22.1987 29.9042 20.329C29.9222 20.167 29.9741 20.0103 30.0567 19.869C30.1393 19.7276 30.2508 19.6046 30.3842 19.5078C30.9394 19.1105 31.3916 18.5903 31.7044 17.9893C32.0171 17.3882 32.1815 16.7232 32.1842 16.048C32.1878 15.9173 32.1646 15.7873 32.1159 15.6656C32.0673 15.544 31.9942 15.4332 31.901 15.34C31.7099 15.152 31.4513 15.0452 31.181 15.0426C31.0234 15.0426 30.8674 15.0121 30.7218 14.9528C30.5762 14.8935 30.4439 14.8066 30.3325 14.697C30.221 14.5875 30.1326 14.4574 30.0723 14.3142C30.012 14.1711 29.981 14.0176 29.981 13.8626V11.1345C29.9974 10.2692 29.7335 9.42117 29.2274 8.71313C28.6732 7.9049 27.9537 7.21923 27.1148 6.6999C26.2759 6.18057 25.3361 5.83902 24.3554 5.69705C24.0601 5.66668 23.7867 5.52971 23.5881 5.31263C23.3895 5.09555 23.2798 4.81377 23.2802 4.52177V3.07745H22.3922C19.253 3.07745 16.7474 5.63097 15.7874 7.99097C15.4662 8.80014 15.3033 9.6617 15.3074 10.5303L15.2642 13.8815C15.2624 14.0393 15.2284 14.1952 15.1643 14.3399C15.1001 14.4846 15.0071 14.6151 14.8908 14.7238C14.7744 14.8325 14.6371 14.9172 14.4868 14.9727C14.3366 15.0283 14.1766 15.0537 14.0162 15.0474C13.8784 15.0425 13.7411 15.0651 13.6124 15.1137C13.4837 15.1624 13.3663 15.2362 13.2674 15.3306C13.1687 15.4229 13.0905 15.5343 13.0376 15.6577C12.9847 15.7812 12.9584 15.9141 12.9602 16.048C12.9616 16.7338 13.1301 17.4092 13.4516 18.0178ZM42.768 35.5793H42.8112C46.7472 36.4809 47.3376 38.737 47.3184 40.002C47.319 41.0271 46.956 42.0202 46.2918 42.8103C45.6276 43.6004 44.704 44.1379 43.68 44.3302V45.312C43.68 45.6249 43.5536 45.9251 43.3285 46.1464C43.1035 46.3677 42.7983 46.492 42.48 46.492C42.1617 46.492 41.8565 46.3677 41.6315 46.1464C41.4064 45.9251 41.28 45.6249 41.28 45.312V44.3113C40.5579 44.1267 39.889 43.78 39.3261 43.2985C38.7631 42.8169 38.3212 42.2136 38.0352 41.536C37.9533 41.2587 37.9777 40.9615 38.1036 40.7007C38.2296 40.4399 38.4484 40.2336 38.7187 40.1207C38.989 40.0079 39.2919 39.9965 39.5702 40.0885C39.8485 40.1806 40.0828 40.3698 40.2288 40.6203C40.4144 41.0568 40.7272 41.4295 41.1278 41.6915C41.5284 41.9536 41.9989 42.0932 42.48 42.0929C43.656 42.0929 44.9184 41.4369 44.9184 39.9925C44.9184 39.6197 44.9184 38.4727 42.2112 37.8638H42.168C38.232 36.9623 37.6416 34.7061 37.6416 33.4412C37.641 32.4161 38.004 31.4229 38.6682 30.6328C39.3324 29.8427 40.2561 29.3052 41.28 29.1129V28.1312C41.28 27.8182 41.4064 27.5181 41.6315 27.2968C41.8565 27.0755 42.1617 26.9512 42.48 26.9512C42.7983 26.9512 43.1035 27.0755 43.3285 27.2968C43.5536 27.5181 43.68 27.8182 43.68 28.1312V29.1271C44.4101 29.3075 45.0873 29.6532 45.6573 30.1368C46.2274 30.6203 46.6746 31.2282 46.9632 31.9119C47.0297 32.0557 47.0662 32.2112 47.0704 32.3691C47.0747 32.527 47.0467 32.6841 46.988 32.8312C46.9294 32.9783 46.8413 33.1123 46.729 33.2252C46.6167 33.3382 46.4825 33.4278 46.3343 33.4888C46.1861 33.5499 46.027 33.581 45.8663 33.5804C45.7057 33.5798 45.5468 33.5475 45.399 33.4854C45.2513 33.4232 45.1178 33.3326 45.0064 33.2188C44.895 33.105 44.8079 32.9704 44.7504 32.8229C44.5648 32.3864 44.252 32.0137 43.8514 31.7516C43.4508 31.4896 42.9803 31.3499 42.4992 31.3502C41.328 31.3502 40.0608 32.0063 40.0608 33.4506C40.0608 33.8235 40.0608 34.9705 42.768 35.5793Z" fill="black"/>
<path d="M36.9735 45.3346L36.8859 45.2454V45.2454L36.9735 45.3346ZM1.01407 45.3346L1.10171 45.2454H1.10171L1.01407 45.3346ZM0.662598 40.5495L0.537598 40.5491V40.5495H0.662598ZM2.17086 35.8233L2.27311 35.8952H2.27311L2.17086 35.8233ZM6.1346 32.7662L6.09128 32.649L6.09071 32.6492L6.1346 32.7662ZM15.2066 29.415L15.2499 29.5323L15.3058 29.5116L15.325 29.4552L15.2066 29.415ZM15.2275 29.3807L15.3273 29.4559L15.3273 29.4559L15.2275 29.3807ZM15.2498 26.7577H15.3748V26.718L15.3519 26.6856L15.2498 26.7577ZM13.0226 21.1645L13.1463 21.1468L13.1394 21.0982L13.1013 21.0673L13.0226 21.1645ZM11.2097 18.8769L11.0971 18.9311L11.2097 18.8769ZM10.5602 16.048L10.6852 16.0477L10.6852 16.0458L10.5602 16.048ZM11.5826 13.6172L11.4969 13.5262L11.4964 13.5267L11.5826 13.6172ZM12.8546 12.8573L12.8943 12.9758L12.9785 12.9476L12.9796 12.8588L12.8546 12.8573ZM12.8834 10.4973L13.0084 10.4988L13.0084 10.4972L12.8834 10.4973ZM13.541 7.09417L13.4255 7.04633L13.425 7.04755L13.541 7.09417ZM24.4802 0.708008L24.4807 0.583008H24.4802V0.708008ZM25.3256 1.05529L25.2378 1.14424L25.2378 1.14424L25.3256 1.05529ZM25.6754 1.88801L25.5504 1.88801V1.88801H25.6754ZM25.6754 3.54945H25.5504V3.64576L25.6435 3.67032L25.6754 3.54945ZM31.1666 7.32545L31.0649 7.3981L31.0654 7.39886L31.1666 7.32545ZM32.381 11.1298L32.256 11.1283V11.1298H32.381ZM32.381 12.9186H32.256V13.0058L32.3378 13.0359L32.381 12.9186ZM33.6002 13.688L33.6881 13.5991L33.6876 13.5986L33.6002 13.688ZM34.3313 14.7716L34.4467 14.7235V14.7235L34.3313 14.7716ZM34.5842 16.048L34.4592 16.0475V16.0479L34.5842 16.048ZM32.2466 21.0795L32.1655 20.9844L32.1294 21.0152L32.1228 21.0621L32.2466 21.0795ZM29.9282 26.8568L29.8266 26.784L29.8032 26.8166V26.8568H29.9282ZM29.9282 29.3018H29.8032V29.3369L29.8215 29.3669L29.9282 29.3018ZM29.9443 29.3236L29.8465 29.4015L29.8465 29.4015L29.9443 29.3236ZM29.9714 29.3773H29.8464V29.4638L29.9274 29.4943L29.9714 29.3773ZM34.9874 31.2653L34.9434 31.3823L34.9438 31.3824L34.9874 31.2653ZM35.6572 31.8842L35.5436 31.9363L35.6572 31.8842ZM35.6858 32.7875L35.8025 32.8324L35.6858 32.7875ZM35.0564 33.4461L35.0058 33.3319H35.0058L35.0564 33.4461ZM34.1378 33.4742L34.0942 33.5914L34.0942 33.5914L34.1378 33.4742ZM29.2946 31.6712L29.3382 31.5541L29.2429 31.5186L29.1888 31.6047L29.2946 31.6712ZM26.4206 34.3536L26.3613 34.2436H26.3613L26.4206 34.3536ZM22.5746 35.2914L22.5764 35.1664L22.5728 35.1665L22.5746 35.2914ZM18.729 34.353L18.7882 34.2429L18.729 34.353ZM15.8546 31.6712L15.9604 31.6047L15.9063 31.5186L15.811 31.5541L15.8546 31.6712ZM6.9794 34.9752L6.93579 34.8581L6.93549 34.8582L6.9794 34.9752ZM4.14158 37.1649L4.0393 37.093L4.14158 37.1649ZM3.0626 40.5495L2.9376 40.5492V40.5495H3.0626ZM3.0626 43.3202H2.9376V43.4452H3.0626V43.3202ZM36.9735 43.6658L37.0612 43.5767V43.5766L36.9735 43.6658ZM14.8082 19.5455L14.8796 19.4429L14.8794 19.4428L14.8082 19.5455ZM13.4516 18.0178L13.3411 18.0762V18.0762L13.4516 18.0178ZM15.1481 19.9084L15.2552 19.844H15.2552L15.1481 19.9084ZM15.3074 20.3762L15.4317 20.3626L15.4316 20.362L15.3074 20.3762ZM17.2274 25.4455L17.1251 25.5175L17.1276 25.5208L17.2274 25.4455ZM17.6258 26.6302H17.7508V26.6301L17.6258 26.6302ZM17.6258 29.972H17.5008V30.0019L17.5143 30.0285L17.6258 29.972ZM19.6596 32.1529L19.5952 32.26L19.6596 32.1529ZM22.5602 32.9409L22.5616 32.8159L22.559 32.8159L22.5602 32.9409ZM25.4663 32.1554L25.4019 32.0483L25.4663 32.1554ZM27.5042 29.972L27.6157 30.0285L27.6292 30.0019V29.972H27.5042ZM27.5042 26.7294L27.3792 26.7287V26.7294H27.5042ZM27.9218 25.521L28.0208 25.5975L28.0232 25.5941L27.9218 25.521ZM29.9042 20.329L29.78 20.3153L29.7799 20.3161L29.9042 20.329ZM30.0567 19.869L29.9488 19.8059V19.8059L30.0567 19.869ZM30.3842 19.5078L30.3115 19.4061L30.3107 19.4066L30.3842 19.5078ZM31.7044 17.9893L31.8153 18.047V18.047L31.7044 17.9893ZM32.1842 16.048L32.0592 16.0445L32.0592 16.0475L32.1842 16.048ZM32.1159 15.6656L32.232 15.6192V15.6192L32.1159 15.6656ZM31.901 15.34L31.9894 15.2516L31.9887 15.2509L31.901 15.34ZM31.181 15.0426L31.1822 14.9176H31.181V15.0426ZM30.7218 14.9528L30.7689 14.8371H30.7689L30.7218 14.9528ZM30.3325 14.697L30.2448 14.7862V14.7862L30.3325 14.697ZM30.0723 14.3142L30.1875 14.2657L30.1875 14.2657L30.0723 14.3142ZM29.981 11.1345L29.856 11.1321V11.1345H29.981ZM29.2274 8.71313L29.1243 8.78383L29.1257 8.78582L29.2274 8.71313ZM24.3554 5.69705L24.3733 5.57323L24.3682 5.5727L24.3554 5.69705ZM23.5881 5.31263L23.6803 5.22826L23.5881 5.31263ZM23.2802 4.52177L23.4052 4.52195V4.52177H23.2802ZM23.2802 3.07745H23.4052V2.95245H23.2802V3.07745ZM15.7874 7.99097L15.6716 7.94387L15.6712 7.94485L15.7874 7.99097ZM15.3074 10.5303L15.4324 10.5319L15.4324 10.5297L15.3074 10.5303ZM15.2642 13.8815L15.1392 13.8799L15.1392 13.8801L15.2642 13.8815ZM15.1643 14.3399L15.05 14.2892V14.2892L15.1643 14.3399ZM14.8908 14.7238L14.9761 14.8152L14.8908 14.7238ZM14.4868 14.9727L14.5302 15.09H14.5302L14.4868 14.9727ZM14.0162 15.0474L14.0211 14.9225L14.0206 14.9224L14.0162 15.0474ZM13.6124 15.1137L13.6566 15.2306H13.6566L13.6124 15.1137ZM13.2674 15.3306L13.3528 15.4219L13.3537 15.421L13.2674 15.3306ZM13.0376 15.6577L13.1525 15.7069L13.0376 15.6577ZM12.9602 16.048L13.0852 16.0478L13.0852 16.0463L12.9602 16.048ZM42.8112 35.5793L42.8391 35.4575L42.8253 35.4543H42.8112V35.5793ZM42.768 35.5793L42.7406 35.7013L42.7541 35.7043H42.768V35.5793ZM47.3184 40.002L47.1934 40.0001V40.002L47.3184 40.002ZM43.68 44.3302L43.6569 44.2074L43.555 44.2265V44.3302H43.68ZM41.28 44.3113H41.405V44.2143L41.311 44.1902L41.28 44.3113ZM39.3261 43.2985L39.4073 43.2035L39.3261 43.2985ZM38.0352 41.536L37.9146 41.5716L37.92 41.5846L38.0352 41.536ZM38.1036 40.7007L38.2162 40.7551V40.7551L38.1036 40.7007ZM38.7187 40.1207L38.7668 40.2361L38.7187 40.1207ZM39.5702 40.0885L39.6095 39.9698L39.5702 40.0885ZM40.2288 40.6203L40.3438 40.5714L40.3408 40.5641L40.3368 40.5574L40.2288 40.6203ZM41.1278 41.6915L41.0594 41.7961L41.1278 41.6915ZM42.48 42.0929V41.9679H42.4799L42.48 42.0929ZM42.2112 37.8638L42.2386 37.7419L42.2251 37.7388H42.2112V37.8638ZM42.168 37.8638L42.1401 37.9857L42.1539 37.9888H42.168V37.8638ZM37.6416 33.4412H37.7666V33.4411L37.6416 33.4412ZM38.6682 30.6328L38.5725 30.5524L38.6682 30.6328ZM41.28 29.1129L41.3031 29.2358L41.405 29.2166V29.1129H41.28ZM43.68 29.1271H43.555V29.225L43.65 29.2484L43.68 29.1271ZM45.6573 30.1368L45.5765 30.2321L45.6573 30.1368ZM46.9632 31.9119L46.848 31.9605L46.8498 31.9644L46.9632 31.9119ZM47.0704 32.3691L46.9455 32.3724V32.3725L47.0704 32.3691ZM46.988 32.8312L47.1041 32.8775V32.8775L46.988 32.8312ZM46.729 33.2252L46.8176 33.3134V33.3134L46.729 33.2252ZM46.3343 33.4888L46.2867 33.3733L46.3343 33.4888ZM45.8663 33.5804L45.8658 33.7054H45.8658L45.8663 33.5804ZM45.399 33.4854L45.3506 33.6006H45.3506L45.399 33.4854ZM45.0064 33.2188L44.9171 33.3062V33.3063L45.0064 33.2188ZM44.7504 32.8229L44.8669 32.7774L44.8654 32.7739L44.7504 32.8229ZM43.8514 31.7516L43.783 31.8562L43.8514 31.7516ZM42.4992 31.3502V31.4752H42.4993L42.4992 31.3502ZM36.125 45.8052C36.4757 45.8052 36.8125 45.6682 37.0612 45.4237L36.8859 45.2454C36.6844 45.4435 36.4108 45.5552 36.125 45.5552V45.8052ZM1.8626 45.8052H36.125V45.5552H1.8626V45.8052ZM0.926427 45.4237C1.17507 45.6682 1.51186 45.8052 1.8626 45.8052V45.5552C1.57682 45.5552 1.30316 45.4435 1.10171 45.2454L0.926427 45.4237ZM0.537598 44.5002C0.537598 44.847 0.677715 45.1791 0.926428 45.4237L1.10171 45.2454C0.900337 45.0474 0.787598 44.7793 0.787598 44.5002H0.537598ZM0.537598 40.5495V44.5002H0.787598V40.5495H0.537598ZM2.0686 35.7514C1.07716 37.1616 0.543288 38.8343 0.537598 40.5491L0.787597 40.5499C0.793116 38.8866 1.31094 37.2637 2.27311 35.8952L2.0686 35.7514ZM6.09071 32.6492C4.46239 33.2598 3.06002 34.3412 2.0686 35.7514L2.27311 35.8952C3.23531 34.5265 4.59681 33.4763 6.17848 32.8833L6.09071 32.6492ZM15.1633 29.2978L6.09128 32.649L6.17791 32.8835L15.2499 29.5323L15.1633 29.2978ZM15.1276 29.3055C15.1223 29.3126 15.1 29.3402 15.0882 29.3749L15.325 29.4552C15.3226 29.4623 15.32 29.466 15.3206 29.4652C15.3207 29.4649 15.3213 29.4641 15.3224 29.4624C15.3237 29.4607 15.3251 29.4588 15.3273 29.4559L15.1276 29.3055ZM15.1248 29.3348C15.1248 29.3141 15.1319 29.3005 15.1334 29.2979C15.1342 29.2964 15.1345 29.2961 15.1334 29.2977C15.1322 29.2994 15.1307 29.3015 15.1276 29.3055L15.3273 29.4559C15.3317 29.45 15.3431 29.4354 15.3523 29.4186C15.3621 29.4008 15.3748 29.3718 15.3748 29.3348H15.1248ZM15.1248 26.7577V29.3348H15.3748V26.7577H15.1248ZM12.8989 21.1822C13.1893 23.2118 13.9596 25.1461 15.1477 26.8298L15.3519 26.6856C14.1865 25.0341 13.4311 23.137 13.1463 21.1468L12.8989 21.1822ZM11.0971 18.9311C11.5308 19.8324 12.1615 20.6281 12.9439 21.2616L13.1013 21.0673C12.3473 20.4569 11.74 19.6904 11.3224 18.8227L11.0971 18.9311ZM10.4352 16.0483C10.4373 17.0455 10.6634 18.0299 11.0971 18.9311L11.3224 18.8227C10.9048 17.955 10.6872 17.0075 10.6852 16.0477L10.4352 16.0483ZM10.6996 14.6798C10.517 15.1139 10.427 15.5804 10.4352 16.0502L10.6852 16.0458C10.6775 15.6108 10.7609 15.1789 10.93 14.7767L10.6996 14.6798ZM11.4964 13.5267C11.1534 13.8532 10.8821 14.2457 10.6996 14.6798L10.93 14.7767C11.0992 14.3745 11.3506 14.0107 11.6688 13.7077L11.4964 13.5267ZM12.8149 12.7388C12.3226 12.9036 11.8728 13.1723 11.4969 13.5262L11.6683 13.7082C12.0177 13.3793 12.4361 13.1293 12.8943 12.9758L12.8149 12.7388ZM12.7584 10.4958L12.7296 12.8558L12.9796 12.8588L13.0084 10.4988L12.7584 10.4958ZM13.425 7.04755C12.9836 8.14581 12.7574 9.31635 12.7584 10.4974L13.0084 10.4972C13.0074 9.34822 13.2275 8.20941 13.657 7.14079L13.425 7.04755ZM22.373 0.583008C18.0537 0.583008 14.7148 3.93415 13.4255 7.04633L13.6565 7.14201C14.9208 4.08987 18.1867 0.833008 22.373 0.833008V0.583008ZM24.4802 0.583008H22.373V0.833008H24.4802V0.583008ZM25.4134 0.966334C25.1659 0.721983 24.8305 0.584385 24.4807 0.583009L24.4797 0.833007C24.7647 0.834128 25.0373 0.946274 25.2378 1.14424L25.4134 0.966334ZM25.8004 1.88801C25.8004 1.54212 25.661 1.21075 25.4134 0.966334L25.2378 1.14424C25.4382 1.34213 25.5504 1.60962 25.5504 1.88801L25.8004 1.88801ZM25.8004 3.54945V1.88801H25.5504V3.54945H25.8004ZM31.2683 7.2528C29.9279 5.37576 27.9593 4.02229 25.7073 3.42858L25.6435 3.67032C27.8398 4.24933 29.7587 5.56904 31.0649 7.39809L31.2683 7.2528ZM32.506 11.1312C32.5221 9.74152 32.0884 8.38299 31.2678 7.25204L31.0654 7.39886C31.8547 8.48659 32.2715 9.79268 32.256 11.1283L32.506 11.1312ZM32.506 12.9186V11.1298H32.256V12.9186H32.506ZM33.6876 13.5986C33.3285 13.2477 32.8979 12.976 32.4242 12.8014L32.3378 13.0359C32.7786 13.1985 33.1791 13.4513 33.5128 13.7774L33.6876 13.5986ZM34.4467 14.7235C34.2714 14.3032 34.0136 13.9211 33.6881 13.5991L33.5123 13.7769C33.8144 14.0757 34.0535 14.4301 34.2159 14.8197L34.4467 14.7235ZM34.7092 16.0485C34.7112 15.5941 34.6219 15.1438 34.4467 14.7235L34.2159 14.8197C34.3784 15.2093 34.461 15.6265 34.4592 16.0475L34.7092 16.0485ZM34.0847 18.8662C34.4956 17.9817 34.7086 17.0207 34.7092 16.0481L34.4592 16.0479C34.4586 16.9841 34.2536 17.9092 33.858 18.7608L34.0847 18.8662ZM32.3277 21.1746C33.0746 20.5379 33.6738 19.7507 34.0847 18.8662L33.858 18.7608C33.4623 19.6125 32.8852 20.3708 32.1655 20.9844L32.3277 21.1746ZM30.0298 26.9296C31.272 25.1971 32.0746 23.1971 32.3704 21.097L32.1228 21.0621C31.8327 23.1221 31.0454 25.084 29.8266 26.784L30.0298 26.9296ZM30.0532 29.3018V26.8568H29.8032V29.3018H30.0532ZM30.042 29.2457C30.0389 29.2417 30.0371 29.2395 30.0357 29.2376C30.0343 29.2358 30.0343 29.2356 30.0349 29.2367L29.8215 29.3669C29.8308 29.3821 29.8418 29.3956 29.8465 29.4015L30.042 29.2457ZM30.0964 29.3773C30.0964 29.3375 30.0823 29.3063 30.0711 29.2869C30.0604 29.2684 30.0474 29.2525 30.042 29.2457L29.8465 29.4015C29.8501 29.406 29.852 29.4085 29.8536 29.4106C29.8551 29.4127 29.8552 29.4129 29.8545 29.4118C29.8536 29.4101 29.8464 29.3974 29.8464 29.3773H30.0964ZM35.0314 31.1483L30.0154 29.2603L29.9274 29.4943L34.9434 31.3823L35.0314 31.1483ZM35.7708 31.832C35.6258 31.5161 35.3595 31.2703 35.031 31.1481L34.9438 31.3824C35.2111 31.4818 35.4266 31.6813 35.5436 31.9363L35.7708 31.832ZM35.8025 32.8324C35.9272 32.508 35.9158 32.1481 35.7708 31.832L35.5436 31.9363C35.6605 32.1912 35.6697 32.4811 35.5691 32.7426L35.8025 32.8324ZM35.1071 33.5604C35.4274 33.4183 35.6777 33.1567 35.8025 32.8324L35.5691 32.7426C35.4685 33.0042 35.2661 33.2163 35.0058 33.3319L35.1071 33.5604ZM34.0942 33.5914C34.4227 33.7136 34.787 33.7024 35.1071 33.5604L35.0058 33.3319C34.7453 33.4474 34.4487 33.4565 34.1814 33.3571L34.0942 33.5914ZM29.251 31.7884L34.0942 33.5914L34.1814 33.3571L29.3382 31.5541L29.251 31.7884ZM26.4799 34.4637C27.6766 33.8189 28.683 32.8797 29.4004 31.7377L29.1888 31.6047C28.4945 32.7098 27.5203 33.6192 26.3613 34.2436L26.4799 34.4637ZM22.5728 35.4164C23.9369 35.4366 25.2831 35.1084 26.4799 34.4637L26.3613 34.2436C25.2023 34.868 23.8981 35.186 22.5764 35.1665L22.5728 35.4164ZM18.6697 34.463C19.8663 35.1077 21.2124 35.4361 22.5764 35.4164L22.5728 35.1665C21.2512 35.1856 19.9472 34.8673 18.7882 34.2429L18.6697 34.463ZM15.7488 31.7377C16.4666 32.8794 17.473 33.8184 18.6697 34.463L18.7882 34.2429C17.6293 33.6186 16.655 32.7095 15.9604 31.6047L15.7488 31.7377ZM7.02301 35.0924L15.8982 31.7884L15.811 31.5541L6.93579 34.8581L7.02301 35.0924ZM4.24385 37.2367C4.92845 36.2624 5.89742 35.5146 7.0233 35.0922L6.93549 34.8582C5.76295 35.2981 4.75311 36.0771 4.0393 37.093L4.24385 37.2367ZM3.1876 40.5499C3.19111 39.3661 3.55928 38.211 4.24385 37.2367L4.0393 37.093C3.32547 38.1089 2.94127 39.3139 2.9376 40.5492L3.1876 40.5499ZM3.1876 43.3202V40.5495H2.9376V43.3202H3.1876ZM36.125 43.1952H3.0626V43.4452H36.125V43.1952ZM37.0612 43.5766C36.8125 43.3322 36.4757 43.1952 36.125 43.1952V43.4452C36.4108 43.4452 36.6844 43.5568 36.8859 43.7549L37.0612 43.5766ZM37.45 44.5002C37.45 44.1534 37.3099 43.8212 37.0612 43.5767L36.8859 43.7549C37.0873 43.9529 37.2 44.2211 37.2 44.5002H37.45ZM37.0612 45.4237C37.3099 45.1791 37.45 44.847 37.45 44.5002H37.2C37.2 44.7793 37.0873 45.0474 36.8859 45.2454L37.0612 45.4237ZM14.8794 19.4428C14.3259 19.0588 13.8742 18.5501 13.5621 17.9594L13.3411 18.0762C13.672 18.7026 14.1508 19.2416 14.737 19.6482L14.8794 19.4428ZM15.2552 19.844C15.1601 19.6856 15.032 19.549 14.8796 19.4429L14.7368 19.6481C14.8605 19.7342 14.9641 19.8449 15.041 19.9728L15.2552 19.844ZM15.4316 20.362C15.4106 20.1789 15.3504 20.0024 15.2552 19.844L15.041 19.9728C15.1178 20.1007 15.1663 20.2431 15.1832 20.3905L15.4316 20.362ZM17.3296 25.3736C16.2821 23.8847 15.6297 22.1622 15.4316 20.3626L15.1831 20.3899C15.3859 22.2317 16.0535 23.9943 17.1252 25.5175L17.3296 25.3736ZM17.7508 26.6301C17.7504 26.1762 17.6018 25.7345 17.3272 25.3703L17.1276 25.5208C17.3698 25.842 17.5005 26.231 17.5008 26.6303L17.7508 26.6301ZM17.7508 29.972V26.6302H17.5008V29.972H17.7508ZM19.7241 32.0458C18.8714 31.5328 18.1831 30.7945 17.7373 29.9155L17.5143 30.0285C17.9815 30.9499 18.7027 31.7231 19.5952 32.26L19.7241 32.0458ZM22.559 32.8159C21.5591 32.8257 20.5767 32.5588 19.7241 32.0458L19.5952 32.26C20.4876 32.797 21.5155 33.0762 22.5614 33.0659L22.559 32.8159ZM25.4019 32.0483C24.5475 32.5614 23.5631 32.8275 22.5616 32.8159L22.5588 33.0659C23.6063 33.078 24.6363 32.7997 25.5306 32.2626L25.4019 32.0483ZM27.3927 29.9155C26.9462 30.7959 26.2564 31.5352 25.4019 32.0483L25.5306 32.2626C26.425 31.7255 27.1477 30.9513 27.6157 30.0285L27.3927 29.9155ZM27.3792 26.7294V29.972H27.6292V26.7294H27.3792ZM27.8229 25.4446C27.5376 25.8138 27.3818 26.2644 27.3792 26.7287L27.6292 26.7301C27.6315 26.321 27.7687 25.9236 28.0207 25.5975L27.8229 25.4446ZM29.7799 20.3161C29.5868 22.1639 28.912 23.9316 27.8203 25.448L28.0232 25.5941C29.1402 24.0425 29.8309 22.2334 30.0285 20.342L29.7799 20.3161ZM29.9488 19.8059C29.8574 19.9623 29.7999 20.1357 29.78 20.3153L30.0284 20.3428C30.0445 20.1982 30.0908 20.0583 30.1646 19.932L29.9488 19.8059ZM30.3107 19.4066C30.1635 19.5136 30.0402 19.6495 29.9488 19.8059L30.1646 19.932C30.2385 19.8057 30.3382 19.6957 30.4577 19.6089L30.3107 19.4066ZM31.5935 17.9316C31.2899 18.515 30.8508 19.0202 30.3115 19.4061L30.4569 19.6094C31.028 19.2008 31.4934 18.6656 31.8153 18.047L31.5935 17.9316ZM32.0592 16.0475C32.0565 16.7027 31.897 17.3481 31.5935 17.9316L31.8153 18.047C32.1371 17.4283 32.3064 16.7437 32.3092 16.0485L32.0592 16.0475ZM31.9999 15.7121C32.0422 15.8179 32.0624 15.931 32.0592 16.0445L32.3092 16.0515C32.3132 15.9037 32.287 15.7567 32.232 15.6192L31.9999 15.7121ZM31.8126 15.4284C31.8939 15.5097 31.9575 15.6062 31.9999 15.7121L32.232 15.6192C32.177 15.4818 32.0945 15.3568 31.9894 15.2516L31.8126 15.4284ZM31.1798 15.1676C31.4181 15.1699 31.6455 15.264 31.8133 15.4291L31.9887 15.2509C31.7742 15.0399 31.4846 14.9205 31.1822 14.9177L31.1798 15.1676ZM30.6746 15.0686C30.8352 15.134 31.0073 15.1676 31.181 15.1676V14.9176C31.0395 14.9176 30.8995 14.8902 30.7689 14.8371L30.6746 15.0686ZM30.2448 14.7862C30.368 14.9072 30.514 15.0032 30.6746 15.0686L30.7689 14.8371C30.6384 14.7839 30.5198 14.706 30.4201 14.6079L30.2448 14.7862ZM29.9571 14.3627C30.0239 14.5212 30.1217 14.6651 30.2448 14.7862L30.4201 14.6079C30.3204 14.5098 30.2414 14.3935 30.1875 14.2657L29.9571 14.3627ZM29.856 13.8626C29.856 14.0343 29.8904 14.2043 29.9571 14.3627L30.1875 14.2657C30.1337 14.1378 30.106 14.0009 30.106 13.8626H29.856ZM29.856 11.1345V13.8626H30.106V11.1345H29.856ZM29.1257 8.78582C29.6163 9.47212 29.872 10.2938 29.856 11.1321L30.106 11.1369C30.1229 10.2445 29.8507 9.37021 29.3291 8.64044L29.1257 8.78582ZM27.049 6.80618C27.8733 7.31643 28.58 7.99002 29.1243 8.78381L29.3305 8.64244C28.7664 7.81979 28.0342 7.12202 27.1806 6.59362L27.049 6.80618ZM24.3375 5.82076C25.3013 5.96028 26.2248 6.29593 27.049 6.80618L27.1806 6.59362C26.3271 6.06521 25.3709 5.71775 24.3733 5.57334L24.3375 5.82076ZM23.4958 5.397C23.7153 5.63693 24.0171 5.78792 24.3426 5.82139L24.3682 5.5727C24.103 5.54544 23.858 5.4225 23.6803 5.22826L23.4958 5.397ZM23.1552 4.52159C23.1547 4.84514 23.2763 5.15703 23.4958 5.397L23.6803 5.22826C23.5026 5.03407 23.4048 4.78239 23.4052 4.52195L23.1552 4.52159ZM23.1552 3.07745V4.52177H23.4052V3.07745H23.1552ZM22.3922 3.20245H23.2802V2.95245H22.3922V3.20245ZM15.9032 8.03807C16.8517 5.70641 19.3214 3.20245 22.3922 3.20245V2.95245C19.1846 2.95245 16.6431 5.55553 15.6716 7.94387L15.9032 8.03807ZM15.4324 10.5297C15.4284 9.67714 15.5882 8.83143 15.9036 8.03709L15.6712 7.94485C15.3441 8.76885 15.1783 9.64626 15.1824 10.5309L15.4324 10.5297ZM15.3892 13.8831L15.4324 10.5319L15.1824 10.5287L15.1392 13.8799L15.3892 13.8831ZM15.2786 14.3905C15.3496 14.2304 15.3872 14.0578 15.3892 13.883L15.1392 13.8801C15.1376 14.0209 15.1073 14.16 15.05 14.2892L15.2786 14.3905ZM14.9761 14.8152C15.1047 14.6951 15.2076 14.5507 15.2786 14.3905L15.05 14.2892C14.9927 14.4184 14.9096 14.5352 14.8054 14.6325L14.9761 14.8152ZM14.5302 15.09C14.6959 15.0287 14.8475 14.9353 14.9761 14.8152L14.8054 14.6325C14.7013 14.7298 14.5782 14.8057 14.4435 14.8555L14.5302 15.09ZM14.0113 15.1723C14.1881 15.1792 14.3645 15.1513 14.5302 15.09L14.4435 14.8555C14.3087 14.9054 14.1651 14.9281 14.0211 14.9225L14.0113 15.1723ZM13.6566 15.2306C13.7697 15.1879 13.8905 15.168 14.0118 15.1723L14.0206 14.9224C13.8663 14.917 13.7124 14.9423 13.5682 14.9968L13.6566 15.2306ZM13.3537 15.421C13.4405 15.3382 13.5435 15.2734 13.6566 15.2306L13.5682 14.9968C13.4239 15.0514 13.2922 15.1341 13.1811 15.2401L13.3537 15.421ZM13.1525 15.7069C13.1985 15.5995 13.2667 15.5024 13.3528 15.4219L13.182 15.2393C13.0707 15.3434 12.9824 15.4691 12.9227 15.6085L13.1525 15.7069ZM13.0852 16.0463C13.0836 15.9299 13.1065 15.8144 13.1525 15.7069L12.9227 15.6085C12.863 15.748 12.8332 15.8982 12.8352 16.0497L13.0852 16.0463ZM13.5621 17.9594C13.25 17.3687 13.0865 16.7132 13.0852 16.0478L12.8352 16.0483C12.8366 16.7544 13.0101 17.4498 13.3411 18.0762L13.5621 17.9594ZM42.8112 35.4543H42.768V35.7043H42.8112V35.4543ZM47.4434 40.0039C47.4533 39.3513 47.3059 38.4413 46.6474 37.5785C45.9884 36.7151 44.8282 35.9131 42.8391 35.4575L42.7833 35.7012C44.7302 36.1471 45.8332 36.9239 46.4486 37.7302C47.0645 38.5371 47.2027 39.3877 47.1934 40.0001L47.4434 40.0039ZM46.3875 42.8908C47.0705 42.0783 47.444 41.0567 47.4434 40.0019L47.1934 40.002C47.194 40.9975 46.8415 41.9622 46.1961 42.7299L46.3875 42.8908ZM43.7031 44.4531C44.7551 44.2555 45.7045 43.7032 46.3875 42.8908L46.1961 42.7299C45.5507 43.4977 44.6528 44.0204 43.6569 44.2074L43.7031 44.4531ZM43.805 45.312V44.3302H43.555V45.312H43.805ZM43.4162 46.2355C43.6649 45.9909 43.805 45.6588 43.805 45.312H43.555C43.555 45.5911 43.4423 45.8592 43.2409 46.0572L43.4162 46.2355ZM42.48 46.617C42.8307 46.617 43.1675 46.48 43.4162 46.2355L43.2409 46.0572C43.0394 46.2553 42.7658 46.367 42.48 46.367V46.617ZM41.5438 46.2355C41.7925 46.48 42.1293 46.617 42.48 46.617V46.367C42.1942 46.367 41.9206 46.2553 41.7191 46.0572L41.5438 46.2355ZM41.155 45.312C41.155 45.6588 41.2951 45.9909 41.5438 46.2355L41.7191 46.0572C41.5177 45.8592 41.405 45.5911 41.405 45.312H41.155ZM41.155 44.3113V45.312H41.405V44.3113H41.155ZM39.2448 43.3935C39.8224 43.8875 40.5085 44.2431 41.249 44.4324L41.311 44.1902C40.6072 44.0103 39.9557 43.6725 39.4073 43.2035L39.2448 43.3935ZM37.92 41.5846C38.2137 42.2803 38.6672 42.8994 39.2448 43.3935L39.4073 43.2035C38.859 42.7345 38.4288 42.147 38.1504 41.4874L37.92 41.5846ZM37.9911 40.6464C37.8516 40.9351 37.8246 41.2642 37.9153 41.5714L38.1551 41.5006C38.082 41.2531 38.1037 40.988 38.2162 40.7551L37.9911 40.6464ZM38.6705 40.0054C38.3724 40.1298 38.1305 40.3577 37.9911 40.6464L38.2162 40.7551C38.3287 40.5221 38.5244 40.3373 38.7668 40.2361L38.6705 40.0054ZM39.6095 39.9698C39.3026 39.8683 38.9686 39.881 38.6705 40.0054L38.7668 40.2361C39.0093 40.1349 39.2812 40.1246 39.531 40.2072L39.6095 39.9698ZM40.3368 40.5574C40.1753 40.2802 39.9164 40.0714 39.6095 39.9698L39.531 40.2072C39.7807 40.2898 39.9904 40.4594 40.1208 40.6832L40.3368 40.5574ZM41.1962 41.5869C40.8162 41.3383 40.5197 40.9849 40.3438 40.5714L40.1138 40.6692C40.3092 41.1287 40.6383 41.5207 41.0594 41.7961L41.1962 41.5869ZM42.4799 41.9679C42.023 41.9682 41.5764 41.8356 41.1962 41.5869L41.0594 41.7961C41.4804 42.0716 41.9748 42.2183 42.4801 42.2179L42.4799 41.9679ZM44.7934 39.9925C44.7934 40.6731 44.4982 41.1618 44.0655 41.4841C43.6288 41.8094 43.047 41.9679 42.48 41.9679V42.2179C43.089 42.2179 43.7264 42.0484 44.2149 41.6846C44.7074 41.3178 45.0434 40.7563 45.0434 39.9925H44.7934ZM42.1838 37.9858C43.5234 38.2871 44.1699 38.7166 44.4837 39.0963C44.7938 39.4716 44.7934 39.8148 44.7934 39.9925H45.0434C45.0434 39.7973 45.043 39.3807 44.6764 38.937C44.3133 38.4978 43.6062 38.0494 42.2386 37.7419L42.1838 37.9858ZM42.168 37.9888H42.2112V37.7388H42.168V37.9888ZM37.5166 33.4412C37.5166 34.0927 37.6688 35.0023 38.3296 35.8648C38.9909 36.728 40.1509 37.53 42.1401 37.9857L42.1959 37.742C40.2491 37.2961 39.1459 36.5192 38.528 35.7128C37.9096 34.9056 37.7666 34.0546 37.7666 33.4412H37.5166ZM38.5725 30.5524C37.8896 31.3648 37.516 32.3865 37.5166 33.4412L37.7666 33.4411C37.766 32.4457 38.1185 31.481 38.7639 30.7132L38.5725 30.5524ZM41.2569 28.9901C40.2049 29.1876 39.2555 29.74 38.5725 30.5524L38.7639 30.7132C39.4093 29.9455 40.3072 29.4228 41.3031 29.2358L41.2569 28.9901ZM41.155 28.1312V29.1129H41.405V28.1312H41.155ZM41.5438 27.2077C41.2951 27.4522 41.155 27.7844 41.155 28.1312H41.405C41.405 27.8521 41.5177 27.5839 41.7191 27.3859L41.5438 27.2077ZM42.48 26.8262C42.1293 26.8262 41.7925 26.9632 41.5438 27.2077L41.7191 27.3859C41.9206 27.1878 42.1942 27.0762 42.48 27.0762V26.8262ZM43.4162 27.2077C43.1675 26.9632 42.8307 26.8262 42.48 26.8262V27.0762C42.7658 27.0762 43.0394 27.1878 43.2409 27.3859L43.4162 27.2077ZM43.805 28.1312C43.805 27.7844 43.6649 27.4522 43.4162 27.2077L43.2409 27.3859C43.4423 27.5839 43.555 27.8521 43.555 28.1312H43.805ZM43.805 29.1271V28.1312H43.555V29.1271H43.805ZM45.7382 30.0414C45.1533 29.5453 44.4587 29.1907 43.71 29.0057L43.65 29.2484C44.3615 29.4242 45.0212 29.7611 45.5765 30.2321L45.7382 30.0414ZM47.0784 31.8633C46.7821 31.1614 46.3231 30.5375 45.7382 30.0414L45.5765 30.2321C46.1317 30.703 46.5671 31.295 46.848 31.9605L47.0784 31.8633ZM47.1954 32.3657C47.1907 32.1908 47.1503 32.0186 47.0767 31.8594L46.8498 31.9644C46.9091 32.0928 46.9417 32.2316 46.9455 32.3724L47.1954 32.3657ZM47.1041 32.8775C47.1691 32.7147 47.2001 32.5406 47.1954 32.3657L46.9455 32.3725C46.9493 32.5133 46.9243 32.6536 46.8719 32.7849L47.1041 32.8775ZM46.8176 33.3134C46.9417 33.1885 47.0392 33.0403 47.1041 32.8775L46.8719 32.7849C46.8195 32.9162 46.7408 33.036 46.6403 33.1371L46.8176 33.3134ZM46.3819 33.6044C46.5453 33.5371 46.6935 33.4382 46.8176 33.3134L46.6403 33.1371C46.5398 33.2382 46.4196 33.3185 46.2867 33.3733L46.3819 33.6044ZM45.8658 33.7054C46.0429 33.706 46.2184 33.6717 46.3819 33.6044L46.2867 33.3733C46.1538 33.428 46.011 33.4559 45.8668 33.4554L45.8658 33.7054ZM45.3506 33.6006C45.5135 33.6691 45.6887 33.7047 45.8658 33.7054L45.8668 33.4554C45.7226 33.4548 45.58 33.4258 45.4475 33.3701L45.3506 33.6006ZM44.9171 33.3063C45.0402 33.432 45.1876 33.5321 45.3506 33.6006L45.4475 33.3701C45.315 33.3144 45.1954 33.2332 45.0957 33.1313L44.9171 33.3063ZM44.6339 32.8683C44.6976 33.0316 44.7939 33.1805 44.9171 33.3062L45.0957 33.1314C44.996 33.0295 44.9182 32.9091 44.8669 32.7774L44.6339 32.8683ZM43.783 31.8562C44.163 32.1048 44.4595 32.4583 44.6354 32.8718L44.8654 32.7739C44.67 32.3145 44.3409 31.9225 43.9198 31.647L43.783 31.8562ZM42.4993 31.4752C42.9562 31.4749 43.4028 31.6076 43.783 31.8562L43.9198 31.647C43.4988 31.3716 43.0045 31.2249 42.4991 31.2252L42.4993 31.4752ZM40.1858 33.4506C40.1858 32.7703 40.482 32.2815 40.9154 31.9591C41.3528 31.6337 41.9347 31.4752 42.4992 31.4752V31.2252C41.8925 31.2252 41.2552 31.3948 40.7662 31.7585C40.2732 32.1252 39.9358 32.6866 39.9358 33.4506H40.1858ZM42.7954 35.4574C41.4558 35.1561 40.8093 34.7265 40.4956 34.3468C40.1854 33.9716 40.1858 33.6283 40.1858 33.4506H39.9358C39.9358 33.6458 39.9362 34.0624 40.3028 34.5061C40.6659 34.9453 41.373 35.3937 42.7406 35.7013L42.7954 35.4574Z" fill="black"/>
<defs>
<linearGradient id="paint0_linear" x1="0.662598" y1="0.708008" x2="49.4817" y2="3.14389" gradientUnits="userSpaceOnUse">
<stop stop-color="#E46857"/>
<stop offset="0.0001" stop-color="#FF8372"/>
<stop offset="1" stop-color="#F35050"/>
</linearGradient>
<linearGradient id="paint1_linear" x1="0.662598" y1="0.708008" x2="49.4817" y2="3.14389" gradientUnits="userSpaceOnUse">
<stop stop-color="#E46857"/>
<stop offset="0.0001" stop-color="#FF8372"/>
<stop offset="1" stop-color="#F35050"/>
</linearGradient>
</defs>
</svg>
