<svg width="41" height="48" viewBox="0 0 41 48" fill="none" xmlns="http://www.w3.org/2000/svg">
<path d="M40.8269 13.0236L40.8254 12.9863C40.8046 12.5252 40.7906 12.0374 40.7822 11.4947C40.743 8.84809 38.6392 6.65889 35.9922 6.51094C30.4734 6.20296 26.2041 4.4034 22.5563 0.847867L22.5252 0.818204C21.3354 -0.272735 19.5406 -0.272735 18.3504 0.818204L18.3193 0.847867C14.6715 4.4034 10.4022 6.20296 4.88339 6.5113C2.23679 6.65889 0.132551 8.84809 0.0933665 11.4951C0.0853098 12.0341 0.0710276 12.5219 0.0501537 12.9863L0.0479565 13.0731C-0.059343 18.7006 -0.192643 25.7044 2.15037 32.0614C3.43869 35.5572 5.38986 38.5961 7.9493 41.094C10.8643 43.9387 14.6824 46.1971 19.2974 47.8062C19.4476 47.8586 19.6036 47.9011 19.7625 47.9329C19.9866 47.9776 20.2122 48 20.4378 48C20.6634 48 20.8893 47.9776 21.1131 47.9329C21.272 47.9011 21.4291 47.8582 21.58 47.8055C26.1895 46.1934 30.0036 43.9339 32.916 41.0896C35.4744 38.5909 37.4255 35.5514 38.715 32.0548C41.0668 25.6787 40.9338 18.6618 40.8269 13.0236ZM36.0724 31.0803C33.6012 37.7805 28.5567 42.3819 20.6506 45.1468C20.6224 45.1563 20.5923 45.1648 20.5612 45.171C20.4795 45.1871 20.3964 45.1871 20.3136 45.1706C20.2829 45.1644 20.2529 45.1563 20.225 45.1468C12.3105 42.3871 7.26266 37.7882 4.7933 31.0877C2.63376 25.2279 2.75608 18.7987 2.86411 13.1269L2.86484 13.0954C2.88682 12.608 2.90146 12.0975 2.90952 11.5364C2.9271 10.3613 3.86313 9.38898 5.0405 9.32343C8.16353 9.14911 10.9072 8.5456 13.4282 7.47846C15.9459 6.41279 18.1819 4.9106 20.2635 2.88619C20.3693 2.79684 20.5066 2.79647 20.6121 2.88619C22.694 4.9106 24.9301 6.41279 27.4474 7.47846C29.9684 8.5456 32.7121 9.14911 35.8355 9.32343C37.0128 9.38898 37.9489 10.3613 37.9661 11.5368C37.9745 12.1008 37.9891 12.6113 38.0111 13.0954C38.1188 18.7738 38.2382 25.2082 36.0724 31.0803Z" fill="black"/>
<path d="M20.4369 12.0386C13.8407 12.0386 8.47461 17.405 8.47461 24.0009C8.47461 30.597 13.8407 35.9635 20.4369 35.9635C27.0327 35.9635 32.3992 30.597 32.3992 24.0009C32.3992 17.405 27.0327 12.0386 20.4369 12.0386ZM20.4369 33.1466C15.3938 33.1466 11.2911 29.0439 11.2911 24.0009C11.2911 18.9578 15.3938 14.8551 20.4369 14.8551C25.4796 14.8551 29.5823 18.9578 29.5823 24.0009C29.5823 29.0439 25.4796 33.1466 20.4369 33.1466Z" fill="black"/>
<path d="M23.875 20.2871L18.3189 25.8432L16.8108 24.3352C16.2608 23.7851 15.369 23.7851 14.819 24.3352C14.2693 24.8852 14.2693 25.7769 14.819 26.3266L17.3232 28.8308C17.5982 29.1058 17.9585 29.2431 18.3189 29.2431C18.6792 29.2431 19.0396 29.1058 19.3146 28.8308L25.8668 22.2785C26.4165 21.7285 26.4165 20.8368 25.8668 20.2871C25.3168 19.7367 24.4251 19.7367 23.875 20.2871Z" fill="black"/>
<defs>
<linearGradient id="paint0_linear" x1="0" y1="0" x2="42.8015" y2="1.7846" gradientUnits="userSpaceOnUse">
<stop stop-color="#E46857"/>
<stop offset="0.0001" stop-color="#FF8372"/>
<stop offset="1" stop-color="#F35050"/>
</linearGradient>
<linearGradient id="paint1_linear" x1="8.47461" y1="12.0386" x2="33.5106" y2="13.2644" gradientUnits="userSpaceOnUse">
<stop stop-color="#E46857"/>
<stop offset="0.0001" stop-color="#FF8372"/>
<stop offset="1" stop-color="#F35050"/>
</linearGradient>
<linearGradient id="paint2_linear" x1="14.4067" y1="19.8743" x2="26.8127" y2="20.644" gradientUnits="userSpaceOnUse">
<stop stop-color="#E46857"/>
<stop offset="0.0001" stop-color="#FF8372"/>
<stop offset="1" stop-color="#F35050"/>
</linearGradient>
</defs>
</svg>
