<svg width="48" height="45" viewBox="0 0 48 45" fill="none" xmlns="http://www.w3.org/2000/svg">
<path d="M-0.000488281 43.7179C-0.000488281 44.4017 0.588469 45 1.30363 45H46.6954C47.4106 45 47.9995 44.4017 47.9995 43.6752V4.57265C47.9995 3.84615 47.4106 3.24786 46.6954 3.24786H37.7348V1.32479C37.7348 0.598291 37.1459 0 36.4307 0C35.7155 0 35.1266 0.598291 35.1266 1.32479V3.24786H13.1669V1.32479C13.1669 0.598291 12.578 0 11.8628 0C11.1476 0 10.5587 0.598291 10.5587 1.32479V3.24786H1.30363C0.588469 3.24786 -0.000488281 3.84615 -0.000488281 4.57265V43.7179ZM2.60775 5.89744H10.5587V7.26496C10.5587 7.99145 11.1476 8.58974 11.8628 8.58974C12.578 8.58974 13.1669 7.99145 13.1669 7.26496V5.89744H35.1266V7.26496C35.1266 7.99145 35.7155 8.58974 36.4307 8.58974C37.1459 8.58974 37.7348 7.99145 37.7348 7.26496V5.89744H45.4333V11.2821H2.60775V5.89744ZM2.60775 13.9316H45.3913V42.3932H2.60775V13.9316Z" fill="black"/>
<path d="M36.4306 22.8205H11.6103C10.8951 22.8205 10.3062 23.4188 10.3062 24.1453C10.3062 24.8718 10.8951 25.4701 11.6103 25.4701H36.4306C37.1458 25.4701 37.7347 24.8718 37.7347 24.1453C37.7347 23.4188 37.1458 22.8205 36.4306 22.8205Z" fill="black"/>
<path d="M24.0204 31.282H11.6103C10.8951 31.282 10.3062 31.8803 10.3062 32.6068C10.3062 33.3333 10.8951 33.9316 11.6103 33.9316H24.0204C24.7356 33.9316 25.3246 33.3333 25.3246 32.6068C25.3246 31.8803 24.7356 31.282 24.0204 31.282Z" fill="black"/>
<defs>
<linearGradient id="paint0_linear" x1="-0.000488281" y1="0" x2="50.2128" y2="2.62252" gradientUnits="userSpaceOnUse">
<stop stop-color="#E46857"/>
<stop offset="0.0001" stop-color="#FF8372"/>
<stop offset="1" stop-color="#F35050"/>
</linearGradient>
<linearGradient id="paint1_linear" x1="10.3062" y1="22.8205" x2="33.1967" y2="34.4231" gradientUnits="userSpaceOnUse">
<stop stop-color="#E46857"/>
<stop offset="0.0001" stop-color="#FF8372"/>
<stop offset="1" stop-color="#F35050"/>
</linearGradient>
<linearGradient id="paint2_linear" x1="10.3062" y1="31.282" x2="24.9332" y2="35.3416" gradientUnits="userSpaceOnUse">
<stop stop-color="#E46857"/>
<stop offset="0.0001" stop-color="#FF8372"/>
<stop offset="1" stop-color="#F35050"/>
</linearGradient>
</defs>
</svg>
