<svg width="56" height="56" viewBox="0 0 56 56" fill="none" xmlns="http://www.w3.org/2000/svg">
<g filter="url(#filter0_d)">
<path d="M46.8281 5.15625H40.3499C38.5798 5.15625 37.0717 6.36292 36.6819 8.09052C36.6749 8.12225 36.6691 8.15399 36.6646 8.18604L35.5357 16.2628H26.3527C25.7756 11.73 21.8974 8.21411 17.2136 8.21411C12.1333 8.21411 8 12.3505 8 17.4347C8 22.5189 12.1333 26.6556 17.2136 26.6556C17.23 26.6556 17.2465 26.6547 17.2627 26.6547L19.5503 43.7796C19.6281 44.3616 20.1246 44.7961 20.7118 44.7961H37.7253C38.3128 44.7961 38.8093 44.3616 38.8868 43.7796L42.3851 17.59C42.4299 17.2549 42.328 16.9171 42.1055 16.6629C41.8828 16.4087 41.5614 16.2628 41.2236 16.2628H37.902L38.9781 8.56567C39.1389 7.9361 39.6971 7.5 40.3495 7.5H46.8281C47.4754 7.5 48 6.9754 48 6.32812C48 5.68085 47.4754 5.15625 46.8281 5.15625V5.15625ZM10.3438 17.4347C10.3438 13.6429 13.4254 10.5579 17.2136 10.5579C20.6025 10.5579 23.4248 13.0273 23.9821 16.2628H17.2136C16.8757 16.2628 16.5544 16.4087 16.3319 16.6629C16.1094 16.9171 16.0072 17.2549 16.0521 17.59L16.9493 24.306C13.2832 24.1666 10.3438 21.138 10.3438 17.4347ZM37.4034 37.1848H21.0341L19.9012 28.7039C20.5156 29.2426 21.3572 29.9686 22.8465 29.9686C24.3693 29.9686 25.1783 29.2154 25.7689 28.6655C26.284 28.1857 26.5162 27.991 27.0939 27.991C27.6716 27.991 27.9039 28.1857 28.419 28.6655C29.0095 29.2154 29.8182 29.9686 31.3414 29.9686C32.8645 29.9686 33.6732 29.2154 34.264 28.6658C34.7792 28.1857 35.0114 27.991 35.5894 27.991C36.1686 27.991 36.3734 28.1943 36.8226 28.6398C37.1989 29.0134 37.6695 29.4775 38.397 29.7467L37.4034 37.1848ZM21.7375 42.4524L21.3472 39.5285H37.0903L36.6996 42.4524H21.7375ZM38.7333 27.2281C38.6534 27.1545 38.5692 27.0712 38.473 26.976C37.9078 26.4151 37.1339 25.6473 35.5891 25.6473C34.066 25.6473 33.2573 26.4005 32.6667 26.9504C32.1513 27.4301 31.9191 27.6248 31.3411 27.6248C30.7634 27.6248 30.5314 27.4301 30.0163 26.9504C29.4255 26.4005 28.6168 25.6473 27.0939 25.6473C25.5708 25.6473 24.7621 26.4005 24.1716 26.9504C23.6561 27.4301 23.4242 27.6248 22.8465 27.6248C22.2508 27.6248 21.9816 27.4109 21.4293 26.9266C20.9733 26.5271 20.3917 26.019 19.5109 25.7822L18.5524 18.6066H39.8851L38.7333 27.2281Z" fill="black"/>
<path d="M46.8281 5.15625H40.3499C38.5798 5.15625 37.0717 6.36292 36.6819 8.09052C36.6749 8.12225 36.6691 8.15399 36.6646 8.18604L35.5357 16.2628H26.3527C25.7756 11.73 21.8974 8.21411 17.2136 8.21411C12.1333 8.21411 8 12.3505 8 17.4347C8 22.5189 12.1333 26.6556 17.2136 26.6556C17.23 26.6556 17.2465 26.6547 17.2627 26.6547L19.5503 43.7796C19.6281 44.3616 20.1246 44.7961 20.7118 44.7961H37.7253C38.3128 44.7961 38.8093 44.3616 38.8868 43.7796L42.3851 17.59C42.4299 17.2549 42.328 16.9171 42.1055 16.6629C41.8828 16.4087 41.5614 16.2628 41.2236 16.2628H37.902L38.9781 8.56567C39.1389 7.9361 39.6971 7.5 40.3495 7.5H46.8281C47.4754 7.5 48 6.9754 48 6.32812C48 5.68085 47.4754 5.15625 46.8281 5.15625V5.15625ZM10.3438 17.4347C10.3438 13.6429 13.4254 10.5579 17.2136 10.5579C20.6025 10.5579 23.4248 13.0273 23.9821 16.2628H17.2136C16.8757 16.2628 16.5544 16.4087 16.3319 16.6629C16.1094 16.9171 16.0072 17.2549 16.0521 17.59L16.9493 24.306C13.2832 24.1666 10.3438 21.138 10.3438 17.4347ZM37.4034 37.1848H21.0341L19.9012 28.7039C20.5156 29.2426 21.3572 29.9686 22.8465 29.9686C24.3693 29.9686 25.1783 29.2154 25.7689 28.6655C26.284 28.1857 26.5162 27.991 27.0939 27.991C27.6716 27.991 27.9039 28.1857 28.419 28.6655C29.0095 29.2154 29.8182 29.9686 31.3414 29.9686C32.8645 29.9686 33.6732 29.2154 34.264 28.6658C34.7792 28.1857 35.0114 27.991 35.5894 27.991C36.1686 27.991 36.3734 28.1943 36.8226 28.6398C37.1989 29.0134 37.6695 29.4775 38.397 29.7467L37.4034 37.1848ZM21.7375 42.4524L21.3472 39.5285H37.0903L36.6996 42.4524H21.7375ZM38.7333 27.2281C38.6534 27.1545 38.5692 27.0712 38.473 26.976C37.9078 26.4151 37.1339 25.6473 35.5891 25.6473C34.066 25.6473 33.2573 26.4005 32.6667 26.9504C32.1513 27.4301 31.9191 27.6248 31.3411 27.6248C30.7634 27.6248 30.5314 27.4301 30.0163 26.9504C29.4255 26.4005 28.6168 25.6473 27.0939 25.6473C25.5708 25.6473 24.7621 26.4005 24.1716 26.9504C23.6561 27.4301 23.4242 27.6248 22.8465 27.6248C22.2508 27.6248 21.9816 27.4109 21.4293 26.9266C20.9733 26.5271 20.3917 26.019 19.5109 25.7822L18.5524 18.6066H39.8851L38.7333 27.2281Z" fill="url(#paint0_linear)"/>
</g>
<defs>
<filter id="filter0_d" x="0" y="0.15625" width="56" height="55.6399" filterUnits="userSpaceOnUse" color-interpolation-filters="sRGB">
<feFlood flood-opacity="0" result="BackgroundImageFix"/>
<feColorMatrix in="SourceAlpha" type="matrix" values="0 0 0 0 0 0 0 0 0 0 0 0 0 0 0 0 0 0 127 0"/>
<feOffset dy="3"/>
<feGaussianBlur stdDeviation="4"/>
<feColorMatrix type="matrix" values="0 0 0 0 1 0 0 0 0 0.511965 0 0 0 0 0.445415 0 0 0 0.15 0"/>
<feBlend mode="normal" in2="BackgroundImageFix" result="effect1_dropShadow"/>
<feBlend mode="normal" in="SourceGraphic" in2="effect1_dropShadow" result="shape"/>
</filter>
<linearGradient id="paint0_linear" x1="5.50016" y1="10.9622" x2="42.3993" y2="4.95402" gradientUnits="userSpaceOnUse">
<stop stop-color="#E46857"/>
<stop offset="0.0001" stop-color="#FF8372"/>
<stop offset="1" stop-color="#F35050"/>
</linearGradient>
</defs>
</svg>
