<svg width="60" height="57" viewBox="0 0 60 57" fill="none" xmlns="http://www.w3.org/2000/svg">
<path fill-rule="evenodd" clip-rule="evenodd" d="M49.25 14.8939H40.549C41.1733 14.4697 41.7095 14.0482 42.0835 13.6705C44.3 11.4509 44.3 7.83818 42.0835 5.61854C39.9303 3.46185 36.1738 3.45912 34.0178 5.61854C32.827 6.8091 29.6618 11.6562 30.099 14.8939H29.901C30.3355 11.6562 27.173 6.8091 25.9823 5.61854C23.8263 3.45912 20.0697 3.46185 17.9165 5.61854C15.7 7.83818 15.7 11.4509 17.9137 13.6705C18.2905 14.0482 18.8267 14.4697 19.451 14.8939H10.75C9.23475 14.8939 8 16.1228 8 17.6309V24.4731C8 25.2285 8.616 25.8416 9.375 25.8416H10.75V42.2631C10.75 43.7711 11.9848 45 13.5 45H46.5C48.0153 45 49.25 43.7711 49.25 42.2631V25.8416H50.625C51.384 25.8416 52 25.2285 52 24.4731V17.6309C52 16.1228 50.7653 14.8939 49.25 14.8939ZM19.8663 7.54807C20.4245 6.98974 21.1642 6.6832 21.9508 6.6832C22.7345 6.6832 23.4742 6.98974 24.0325 7.54807C25.886 9.4037 27.7285 14.144 27.0877 14.8036C27.0877 14.8036 26.9722 14.8939 26.579 14.8939C24.6788 14.8939 21.0515 12.9288 19.8663 11.741C18.714 10.586 18.714 8.70304 19.8663 7.54807ZM28.625 42.2631H13.5V25.8416H28.625V42.2631ZM28.625 23.1047H10.75V17.6309H26.579H28.625V23.1047ZM35.9675 7.54807C37.084 6.43414 39.02 6.43688 40.1338 7.54807C41.286 8.70304 41.286 10.586 40.1338 11.741C38.9485 12.9288 35.3213 14.8939 33.421 14.8939C33.0278 14.8939 32.9122 14.8064 32.9095 14.8036C32.2715 14.144 34.114 9.4037 35.9675 7.54807ZM46.5 42.2631H31.375V25.8416H46.5V42.2631ZM49.25 23.1047H31.375V17.6309H33.421H49.25V23.1047Z" fill="black"/>
<path fill-rule="evenodd" clip-rule="evenodd" d="M49.25 14.8939H40.549C41.1733 14.4697 41.7095 14.0482 42.0835 13.6705C44.3 11.4509 44.3 7.83818 42.0835 5.61854C39.9303 3.46185 36.1738 3.45912 34.0178 5.61854C32.827 6.8091 29.6618 11.6562 30.099 14.8939H29.901C30.3355 11.6562 27.173 6.8091 25.9823 5.61854C23.8263 3.45912 20.0697 3.46185 17.9165 5.61854C15.7 7.83818 15.7 11.4509 17.9137 13.6705C18.2905 14.0482 18.8267 14.4697 19.451 14.8939H10.75C9.23475 14.8939 8 16.1228 8 17.6309V24.4731C8 25.2285 8.616 25.8416 9.375 25.8416H10.75V42.2631C10.75 43.7711 11.9848 45 13.5 45H46.5C48.0153 45 49.25 43.7711 49.25 42.2631V25.8416H50.625C51.384 25.8416 52 25.2285 52 24.4731V17.6309C52 16.1228 50.7653 14.8939 49.25 14.8939ZM19.8663 7.54807C20.4245 6.98974 21.1642 6.6832 21.9508 6.6832C22.7345 6.6832 23.4742 6.98974 24.0325 7.54807C25.886 9.4037 27.7285 14.144 27.0877 14.8036C27.0877 14.8036 26.9722 14.8939 26.579 14.8939C24.6788 14.8939 21.0515 12.9288 19.8663 11.741C18.714 10.586 18.714 8.70304 19.8663 7.54807ZM28.625 42.2631H13.5V25.8416H28.625V42.2631ZM28.625 23.1047H10.75V17.6309H26.579H28.625V23.1047ZM35.9675 7.54807C37.084 6.43414 39.02 6.43688 40.1338 7.54807C41.286 8.70304 41.286 10.586 40.1338 11.741C38.9485 12.9288 35.3213 14.8939 33.421 14.8939C33.0278 14.8939 32.9122 14.8064 32.9095 14.8036C32.2715 14.144 34.114 9.4037 35.9675 7.54807ZM46.5 42.2631H31.375V25.8416H46.5V42.2631ZM49.25 23.1047H31.375V17.6309H33.421H49.25V23.1047Z" fill="black"/>
<defs>
<filter id="filter0_d" x="0" y="0" width="60" height="57" filterUnits="userSpaceOnUse" color-interpolation-filters="sRGB">
<feFlood flood-opacity="0" result="BackgroundImageFix"/>
<feColorMatrix in="SourceAlpha" type="matrix" values="0 0 0 0 0 0 0 0 0 0 0 0 0 0 0 0 0 0 127 0"/>
<feOffset dy="4"/>
<feGaussianBlur stdDeviation="4"/>
<feColorMatrix type="matrix" values="0 0 0 0 0 0 0 0 0 0 0 0 0 0 0 0 0 0 0.2 0"/>
<feBlend mode="normal" in2="BackgroundImageFix" result="effect1_dropShadow"/>
<feBlend mode="normal" in="SourceGraphic" in2="effect1_dropShadow" result="shape"/>
</filter>
<defs>
<linearGradient id="paint0_linear" x1="-3.1248" y1="3.95464" x2="40.3409" y2="-9.03371" gradientUnits="userSpaceOnUse">
<stop stop-color="#E46857"/>
<stop offset="0.0001" stop-color="#FF8372"/>
<stop offset="1" stop-color="#F35050"/>
</linearGradient>
</defs>
</defs>
</svg>
