<svg width="64" height="62" viewBox="0 0 64 62" fill="none" xmlns="http://www.w3.org/2000/svg">
<g filter="url(#filter0_d)">
<path fill-rule="evenodd" clip-rule="evenodd" d="M21.502 13.7841C21.1648 14.0286 20.7063 14.0195 20.3792 13.7614L15.6743 10.0726C14.7914 9.38191 14.4411 8.2091 14.8 7.14717C15.1595 6.08524 16.1501 5.36638 17.2706 5.3532C18.3916 5.34048 19.3981 6.03662 19.7816 7.08991L21.8292 12.7099C21.9727 13.1007 21.8392 13.5397 21.502 13.7841ZM17.2915 7.2176C17.1279 7.21805 16.9689 7.27077 16.8376 7.36846C16.6245 7.52023 16.505 7.7706 16.52 8.03188C16.529 8.25999 16.6381 8.47265 16.818 8.61352L18.9655 10.2939L18.0304 7.73289C17.9531 7.51796 17.785 7.34756 17.5705 7.26758C17.4815 7.23441 17.3869 7.2176 17.2915 7.2176ZM35.7492 13.7614L40.4618 10.0726C41.3438 9.38145 41.6932 8.2091 41.3338 7.14807C40.9744 6.08705 39.9847 5.36819 38.8646 5.35456C37.7441 5.34138 36.7376 6.03661 36.3531 7.089L34.3061 12.7099C34.1634 13.1003 34.297 13.5378 34.6332 13.7819C34.9695 14.0259 35.4266 14.0177 35.7538 13.7614H35.7492ZM38.1017 7.72561C38.1798 7.51023 38.348 7.34028 38.5624 7.26031C38.6519 7.22759 38.7465 7.21032 38.8419 7.20987C39.0532 7.2126 39.2545 7.3003 39.4003 7.45343C39.5462 7.60611 39.6244 7.8115 39.6171 8.02234C39.6075 8.25045 39.4989 8.4631 39.319 8.60397L37.1711 10.2848L38.1017 7.72561ZM28.0644 43.7786C28.8928 43.7777 29.6725 43.3887 30.1715 42.7271C30.6704 42.066 30.8304 41.209 30.6041 40.4124L28.9596 34.6592C28.846 34.2589 28.4802 33.9826 28.0644 33.9826C27.6482 33.9826 27.2824 34.2589 27.1688 34.6592L25.5257 40.4115C25.2976 41.208 25.4571 42.0655 25.956 42.7276C26.4549 43.3892 27.2356 43.7781 28.0644 43.7786ZM27.3197 40.9231L28.0644 38.3017L28.8142 40.924C28.9055 41.2426 28.786 41.5838 28.5156 41.7756C28.2457 41.9669 27.884 41.9669 27.6137 41.7756C27.3433 41.5838 27.2238 41.2426 27.3151 40.924L27.3197 40.9231ZM9.9257 31.0195C10.6714 31.2294 11.4711 31.1013 12.1136 30.6687L17.0829 27.327C17.4219 27.0985 17.5719 26.675 17.4528 26.2842C17.3333 25.893 16.9725 25.6253 16.5636 25.6249H16.5245L10.5437 25.8389C9.2441 25.8866 8.17308 26.8731 8.01858 28.164C7.86454 29.4554 8.67292 30.6664 9.92479 31.0186L9.9257 31.0195ZM10.0279 27.9941C10.1697 27.8151 10.3833 27.7074 10.6114 27.6992L13.3373 27.606L11.0749 29.1278C10.7563 29.3441 10.3274 29.2955 10.0657 29.0129C9.80392 28.7307 9.78802 28.299 10.0279 27.9982V27.9941ZM37.779 28.9074C42.7861 31.1281 47.3391 34.2553 51.2093 38.1313L55.7137 42.6367C56.0663 43.0016 56.0614 43.5823 55.7024 43.9413C55.3434 44.3002 54.7627 44.3052 54.3978 43.9526L49.8974 39.4518C46.344 35.8966 42.189 32.9979 37.6254 30.8904L37.8554 31.5984C38.243 32.7485 37.8313 34.0163 36.8416 34.7188C36.8324 34.7256 36.8225 34.7312 36.8127 34.7368L36.8031 34.7423L36.7945 34.7475L36.7898 34.7506C40.6395 38.6507 43.7698 43.1997 46.0373 48.1885L46.5953 49.419C46.6975 49.644 46.7057 49.9002 46.6185 50.1315C46.5312 50.3624 46.3554 50.5496 46.13 50.6509C46.0096 50.7064 45.8787 50.735 45.746 50.7345C45.3802 50.7354 45.0485 50.5219 44.8972 50.1892L44.3387 48.9592C42.0458 43.9031 38.831 39.3186 34.8586 35.4399C34.7954 35.3726 34.7427 35.2958 34.7032 35.2122C34.2883 35.1359 33.8957 34.9673 33.5549 34.7188L28.4116 30.9827C28.1735 30.8096 27.8513 30.8096 27.6137 30.9827L22.4694 34.7197C21.4911 35.4308 20.1665 35.4308 19.1877 34.7201C18.2094 34.0094 17.7995 32.7498 18.1726 31.5993L20.1374 25.5503C20.2292 25.2713 20.1297 24.9646 19.8916 24.7919L14.7473 21.0536C13.7695 20.3425 13.3605 19.0829 13.7345 17.9328C14.1084 16.7832 15.1799 16.0048 16.3886 16.0043H22.7439C23.0374 16.0057 23.2978 15.818 23.3887 15.539L25.3544 9.49004C25.7279 8.33905 26.7998 7.56021 28.0099 7.56021C29.2195 7.56021 30.2919 8.33905 30.6654 9.49004L32.6298 15.539C32.7216 15.8176 32.9824 16.0057 33.2755 16.0043H39.6384C40.8471 16.0052 41.9182 16.7836 42.2917 17.9332C42.6652 19.0833 42.2567 20.3425 41.2788 21.0536L39.6634 22.2273C44.4955 23.1584 48.9804 25.394 52.6325 28.6921L55.6783 31.433C55.9332 31.6534 56.0486 31.9942 55.9809 32.3241C55.9132 32.654 55.6719 32.9216 55.3511 33.0234C55.0299 33.1256 54.6791 33.0461 54.4332 32.8157L51.391 30.078C47.5314 26.5955 42.687 24.3962 37.525 23.7823L36.1337 24.7929C35.8946 24.9655 35.7951 25.2727 35.8869 25.5522L36.8416 28.493L37.779 28.9074ZM34.6491 33.2133C34.9731 33.4573 35.4198 33.4573 35.7438 33.2133C36.0787 32.9816 36.2168 32.5545 36.0805 32.1709L34.117 26.122C33.7744 25.0755 34.1475 23.9277 35.039 23.2815L40.1874 19.5454C40.5132 19.3083 40.6499 18.8884 40.5254 18.5053C40.4009 18.1218 40.0442 17.8624 39.6412 17.8619H33.2832C32.1804 17.866 31.2016 17.1558 30.8635 16.1056L28.8992 10.0567C28.7733 9.67498 28.417 9.41688 28.0149 9.41688C27.6128 9.41688 27.2565 9.67498 27.1306 10.0567L25.1663 16.1056C24.8282 17.1558 23.8499 17.866 22.7466 17.8619H16.3886C15.9856 17.8619 15.6284 18.1214 15.5035 18.5049C15.3789 18.8884 15.5153 19.3083 15.8415 19.5454L20.9862 23.2824C21.8773 23.9281 22.2499 25.0755 21.9082 26.122L19.9429 32.1709C19.8175 32.5545 19.9538 32.9752 20.2801 33.2124C20.6064 33.4496 21.0489 33.4496 21.3752 33.2124L26.5195 29.4741C27.4092 28.8257 28.6161 28.8257 29.5058 29.4741L34.6491 33.2133ZM43.2268 27.7419C42.8633 28.1054 42.8633 28.6948 43.2268 29.0579L44.1574 29.9885C44.5223 30.3411 45.103 30.3361 45.462 29.9771C45.821 29.6181 45.826 29.0379 45.4734 28.6725L44.5428 27.7419C44.1792 27.3788 43.5899 27.3788 43.2268 27.7419ZM49.7411 33.7109C49.3776 33.3478 49.3776 32.7585 49.7411 32.395C50.1042 32.0319 50.6935 32.0319 51.057 32.395L51.9876 33.3256C52.3403 33.6909 52.3353 34.2712 51.9763 34.6302C51.6173 34.9891 51.0366 34.9941 50.6717 34.6415L49.7411 33.7109ZM47.3737 42.6739C47.0333 42.2882 46.4449 42.2518 46.0596 42.5917C45.6742 42.932 45.6374 43.5205 45.9778 43.9058L47.2924 45.3949C47.6327 45.7802 48.2211 45.817 48.6065 45.4767C48.9923 45.1363 49.0286 44.5483 48.6883 44.1626L47.3737 42.6739ZM41.3656 37.4333C41.0021 37.0703 41.0021 36.4809 41.3656 36.1174C41.7287 35.7543 42.318 35.7543 42.6815 36.1174L43.6122 37.048C43.9648 37.4133 43.9598 37.9936 43.6008 38.3526C43.2418 38.7116 42.6611 38.7166 42.2962 38.3639L41.3656 37.4333Z" fill="white"/>
<path fill-rule="evenodd" clip-rule="evenodd" d="M21.502 13.7841C21.1648 14.0286 20.7063 14.0195 20.3792 13.7614L15.6743 10.0726C14.7914 9.38191 14.4411 8.2091 14.8 7.14717C15.1595 6.08524 16.1501 5.36638 17.2706 5.3532C18.3916 5.34048 19.3981 6.03662 19.7816 7.08991L21.8292 12.7099C21.9727 13.1007 21.8392 13.5397 21.502 13.7841ZM17.2915 7.2176C17.1279 7.21805 16.9689 7.27077 16.8376 7.36846C16.6245 7.52023 16.505 7.7706 16.52 8.03188C16.529 8.25999 16.6381 8.47265 16.818 8.61352L18.9655 10.2939L18.0304 7.73289C17.9531 7.51796 17.785 7.34756 17.5705 7.26758C17.4815 7.23441 17.3869 7.2176 17.2915 7.2176ZM35.7492 13.7614L40.4618 10.0726C41.3438 9.38145 41.6932 8.2091 41.3338 7.14807C40.9744 6.08705 39.9847 5.36819 38.8646 5.35456C37.7441 5.34138 36.7376 6.03661 36.3531 7.089L34.3061 12.7099C34.1634 13.1003 34.297 13.5378 34.6332 13.7819C34.9695 14.0259 35.4266 14.0177 35.7538 13.7614H35.7492ZM38.1017 7.72561C38.1798 7.51023 38.348 7.34028 38.5624 7.26031C38.6519 7.22759 38.7465 7.21032 38.8419 7.20987C39.0532 7.2126 39.2545 7.3003 39.4003 7.45343C39.5462 7.60611 39.6244 7.8115 39.6171 8.02234C39.6075 8.25045 39.4989 8.4631 39.319 8.60397L37.1711 10.2848L38.1017 7.72561ZM28.0644 43.7786C28.8928 43.7777 29.6725 43.3887 30.1715 42.7271C30.6704 42.066 30.8304 41.209 30.6041 40.4124L28.9596 34.6592C28.846 34.2589 28.4802 33.9826 28.0644 33.9826C27.6482 33.9826 27.2824 34.2589 27.1688 34.6592L25.5257 40.4115C25.2976 41.208 25.4571 42.0655 25.956 42.7276C26.4549 43.3892 27.2356 43.7781 28.0644 43.7786ZM27.3197 40.9231L28.0644 38.3017L28.8142 40.924C28.9055 41.2426 28.786 41.5838 28.5156 41.7756C28.2457 41.9669 27.884 41.9669 27.6137 41.7756C27.3433 41.5838 27.2238 41.2426 27.3151 40.924L27.3197 40.9231ZM9.9257 31.0195C10.6714 31.2294 11.4711 31.1013 12.1136 30.6687L17.0829 27.327C17.4219 27.0985 17.5719 26.675 17.4528 26.2842C17.3333 25.893 16.9725 25.6253 16.5636 25.6249H16.5245L10.5437 25.8389C9.2441 25.8866 8.17308 26.8731 8.01858 28.164C7.86454 29.4554 8.67292 30.6664 9.92479 31.0186L9.9257 31.0195ZM10.0279 27.9941C10.1697 27.8151 10.3833 27.7074 10.6114 27.6992L13.3373 27.606L11.0749 29.1278C10.7563 29.3441 10.3274 29.2955 10.0657 29.0129C9.80392 28.7307 9.78802 28.299 10.0279 27.9982V27.9941ZM37.779 28.9074C42.7861 31.1281 47.3391 34.2553 51.2093 38.1313L55.7137 42.6367C56.0663 43.0016 56.0614 43.5823 55.7024 43.9413C55.3434 44.3002 54.7627 44.3052 54.3978 43.9526L49.8974 39.4518C46.344 35.8966 42.189 32.9979 37.6254 30.8904L37.8554 31.5984C38.243 32.7485 37.8313 34.0163 36.8416 34.7188C36.8324 34.7256 36.8225 34.7312 36.8127 34.7368L36.8031 34.7423L36.7945 34.7475L36.7898 34.7506C40.6395 38.6507 43.7698 43.1997 46.0373 48.1885L46.5953 49.419C46.6975 49.644 46.7057 49.9002 46.6185 50.1315C46.5312 50.3624 46.3554 50.5496 46.13 50.6509C46.0096 50.7064 45.8787 50.735 45.746 50.7345C45.3802 50.7354 45.0485 50.5219 44.8972 50.1892L44.3387 48.9592C42.0458 43.9031 38.831 39.3186 34.8586 35.4399C34.7954 35.3726 34.7427 35.2958 34.7032 35.2122C34.2883 35.1359 33.8957 34.9673 33.5549 34.7188L28.4116 30.9827C28.1735 30.8096 27.8513 30.8096 27.6137 30.9827L22.4694 34.7197C21.4911 35.4308 20.1665 35.4308 19.1877 34.7201C18.2094 34.0094 17.7995 32.7498 18.1726 31.5993L20.1374 25.5503C20.2292 25.2713 20.1297 24.9646 19.8916 24.7919L14.7473 21.0536C13.7695 20.3425 13.3605 19.0829 13.7345 17.9328C14.1084 16.7832 15.1799 16.0048 16.3886 16.0043H22.7439C23.0374 16.0057 23.2978 15.818 23.3887 15.539L25.3544 9.49004C25.7279 8.33905 26.7998 7.56021 28.0099 7.56021C29.2195 7.56021 30.2919 8.33905 30.6654 9.49004L32.6298 15.539C32.7216 15.8176 32.9824 16.0057 33.2755 16.0043H39.6384C40.8471 16.0052 41.9182 16.7836 42.2917 17.9332C42.6652 19.0833 42.2567 20.3425 41.2788 21.0536L39.6634 22.2273C44.4955 23.1584 48.9804 25.394 52.6325 28.6921L55.6783 31.433C55.9332 31.6534 56.0486 31.9942 55.9809 32.3241C55.9132 32.654 55.6719 32.9216 55.3511 33.0234C55.0299 33.1256 54.6791 33.0461 54.4332 32.8157L51.391 30.078C47.5314 26.5955 42.687 24.3962 37.525 23.7823L36.1337 24.7929C35.8946 24.9655 35.7951 25.2727 35.8869 25.5522L36.8416 28.493L37.779 28.9074ZM34.6491 33.2133C34.9731 33.4573 35.4198 33.4573 35.7438 33.2133C36.0787 32.9816 36.2168 32.5545 36.0805 32.1709L34.117 26.122C33.7744 25.0755 34.1475 23.9277 35.039 23.2815L40.1874 19.5454C40.5132 19.3083 40.6499 18.8884 40.5254 18.5053C40.4009 18.1218 40.0442 17.8624 39.6412 17.8619H33.2832C32.1804 17.866 31.2016 17.1558 30.8635 16.1056L28.8992 10.0567C28.7733 9.67498 28.417 9.41688 28.0149 9.41688C27.6128 9.41688 27.2565 9.67498 27.1306 10.0567L25.1663 16.1056C24.8282 17.1558 23.8499 17.866 22.7466 17.8619H16.3886C15.9856 17.8619 15.6284 18.1214 15.5035 18.5049C15.3789 18.8884 15.5153 19.3083 15.8415 19.5454L20.9862 23.2824C21.8773 23.9281 22.2499 25.0755 21.9082 26.122L19.9429 32.1709C19.8175 32.5545 19.9538 32.9752 20.2801 33.2124C20.6064 33.4496 21.0489 33.4496 21.3752 33.2124L26.5195 29.4741C27.4092 28.8257 28.6161 28.8257 29.5058 29.4741L34.6491 33.2133ZM43.2268 27.7419C42.8633 28.1054 42.8633 28.6948 43.2268 29.0579L44.1574 29.9885C44.5223 30.3411 45.103 30.3361 45.462 29.9771C45.821 29.6181 45.826 29.0379 45.4734 28.6725L44.5428 27.7419C44.1792 27.3788 43.5899 27.3788 43.2268 27.7419ZM49.7411 33.7109C49.3776 33.3478 49.3776 32.7585 49.7411 32.395C50.1042 32.0319 50.6935 32.0319 51.057 32.395L51.9876 33.3256C52.3403 33.6909 52.3353 34.2712 51.9763 34.6302C51.6173 34.9891 51.0366 34.9941 50.6717 34.6415L49.7411 33.7109ZM47.3737 42.6739C47.0333 42.2882 46.4449 42.2518 46.0596 42.5917C45.6742 42.932 45.6374 43.5205 45.9778 43.9058L47.2924 45.3949C47.6327 45.7802 48.2211 45.817 48.6065 45.4767C48.9923 45.1363 49.0286 44.5483 48.6883 44.1626L47.3737 42.6739ZM41.3656 37.4333C41.0021 37.0703 41.0021 36.4809 41.3656 36.1174C41.7287 35.7543 42.318 35.7543 42.6815 36.1174L43.6122 37.048C43.9648 37.4133 43.9598 37.9936 43.6008 38.3526C43.2418 38.7116 42.6611 38.7166 42.2962 38.3639L41.3656 37.4333Z" fill="url(#paint0_linear)"/>
</g>
<defs>
<filter id="filter0_d" x="-0.000183105" y="0.353027" width="64.0002" height="61.3815" filterUnits="userSpaceOnUse" color-interpolation-filters="sRGB">
<feFlood flood-opacity="0" result="BackgroundImageFix"/>
<feColorMatrix in="SourceAlpha" type="matrix" values="0 0 0 0 0 0 0 0 0 0 0 0 0 0 0 0 0 0 127 0"/>
<feOffset dy="3"/>
<feGaussianBlur stdDeviation="4"/>
<feColorMatrix type="matrix" values="0 0 0 0 1 0 0 0 0 0.511965 0 0 0 0 0.445415 0 0 0 0.15 0"/>
<feBlend mode="normal" in2="BackgroundImageFix" result="effect1_dropShadow"/>
<feBlend mode="normal" in="SourceGraphic" in2="effect1_dropShadow" result="shape"/>
</filter>
<linearGradient id="paint0_linear" x1="5" y1="12" x2="49.1666" y2="4.46194" gradientUnits="userSpaceOnUse">
<stop stop-color="#E46857"/>
<stop offset="0.0001" stop-color="#FF8372"/>
<stop offset="1" stop-color="#F35050"/>
</linearGradient>
</defs>
</svg>
