<svg width="18" height="9" viewBox="0 0 18 9" fill="none" xmlns="http://www.w3.org/2000/svg">
<path d="M9.35883 8.86119L17.8501 0.823903C18.05 0.634664 18.05 0.331168 17.8501 0.141929C17.6501 -0.0473097 17.3295 -0.0473097 17.1296 0.141929L9.00047 7.83645L0.871378 0.141928C0.671452 -0.0473104 0.350815 -0.0473105 0.150888 0.141928C0.0528107 0.234762 -1.57244e-08 0.359731 -2.10309e-08 0.48113C-2.63374e-08 0.602528 0.0490379 0.727498 0.150888 0.820332L8.64211 8.85762C8.83827 9.04686 9.16268 9.04686 9.35883 8.86119Z" fill="white"/>
<path d="M9.35883 8.86119L17.8501 0.823903C18.05 0.634664 18.05 0.331168 17.8501 0.141929C17.6501 -0.0473097 17.3295 -0.0473097 17.1296 0.141929L9.00047 7.83645L0.871378 0.141928C0.671452 -0.0473104 0.350815 -0.0473105 0.150888 0.141928C0.0528107 0.234762 -1.57244e-08 0.359731 -2.10309e-08 0.48113C-2.63374e-08 0.602528 0.0490379 0.727498 0.150888 0.820332L8.64211 8.85762C8.83827 9.04686 9.16268 9.04686 9.35883 8.86119Z" fill="url(#paint0_linear)"/>
<defs>
<linearGradient id="paint0_linear" x1="18" y1="0" x2="17.769" y2="9.43502" gradientUnits="userSpaceOnUse">
<stop stop-color="#E46857"/>
<stop offset="0.0001" stop-color="#FF8372"/>
<stop offset="1" stop-color="#F35050"/>
</linearGradient>
</defs>
</svg>
