<svg width="138" height="98" viewBox="0 0 138 98" fill="none" xmlns="http://www.w3.org/2000/svg">
<path d="M4.31 95.13C3.26333 95.13 2.38333 94.79 1.67 94.11C0.97 93.4233 0.62 92.5533 0.62 91.5C0.62 90.4467 0.97 89.58 1.67 88.9C2.36333 88.2133 3.24333 87.87 4.31 87.87C5.02333 87.87 5.65667 88.0267 6.21 88.34V89.45C5.64333 89.0833 5.01333 88.9 4.32 88.9C3.58667 88.9 2.97333 89.1467 2.48 89.64C1.99333 90.1267 1.75 90.7467 1.75 91.5C1.75 92.2533 1.99667 92.8767 2.49 93.37C2.98333 93.8567 3.60667 94.1 4.36 94.1C5.16 94.1 5.82667 93.8867 6.36 93.46V94.57C5.77333 94.9433 5.09 95.13 4.31 95.13ZM9.95594 94.18C10.4093 94.18 10.7926 94.0233 11.1059 93.71C11.4126 93.4033 11.5659 93.0133 11.5659 92.54C11.5659 92.0733 11.4126 91.6867 11.1059 91.38C10.7926 91.0667 10.4093 90.91 9.95594 90.91C9.49594 90.91 9.10927 91.0667 8.79594 91.38C8.48927 91.6867 8.33594 92.0733 8.33594 92.54C8.33594 93.0133 8.48927 93.4033 8.79594 93.71C9.10927 94.0233 9.49594 94.18 9.95594 94.18ZM9.95594 95.13C9.16927 95.13 8.5226 94.88 8.01594 94.38C7.50927 93.88 7.25594 93.2667 7.25594 92.54C7.25594 91.82 7.50927 91.21 8.01594 90.71C8.5226 90.21 9.16927 89.96 9.95594 89.96C10.7293 89.96 11.3726 90.21 11.8859 90.71C12.3926 91.21 12.6459 91.82 12.6459 92.54C12.6459 93.26 12.3926 93.8733 11.8859 94.38C11.3726 94.88 10.7293 95.13 9.95594 95.13ZM16.6664 89.96C17.3597 89.96 17.9297 90.21 18.3764 90.71C18.8231 91.2033 19.0464 91.8167 19.0464 92.55C19.0464 93.2767 18.8231 93.8867 18.3764 94.38C17.9297 94.88 17.3597 95.13 16.6664 95.13C15.9131 95.13 15.3297 94.8633 14.9164 94.33V97H13.8364V90.09H14.9164V90.76C15.3297 90.2267 15.9131 89.96 16.6664 89.96ZM16.3764 90.91C16.0631 90.91 15.7764 90.9933 15.5164 91.16C15.2564 91.32 15.0564 91.53 14.9164 91.79V93.31C15.0564 93.5633 15.2564 93.7733 15.5164 93.94C15.7831 94.1 16.0697 94.18 16.3764 94.18C16.8297 94.18 17.2064 94.0233 17.5064 93.71C17.8064 93.39 17.9564 93.0033 17.9564 92.55C17.9564 92.09 17.8064 91.7033 17.5064 91.39C17.2064 91.07 16.8297 90.91 16.3764 90.91ZM20.6255 97.05C20.2188 97.05 19.9221 96.9967 19.7355 96.89V95.94C19.9488 96.0467 20.1855 96.1 20.4455 96.1C20.7188 96.1 20.9488 96 21.1355 95.8C21.3288 95.6 21.5221 95.2733 21.7155 94.82L19.5655 90.09H20.7655L22.2455 93.55L23.6755 90.09H24.8455L22.4955 95.53C22.0555 96.5433 21.4321 97.05 20.6255 97.05ZM26.9184 95H25.8384V90.09H26.9184V90.94C27.085 90.6533 27.335 90.42 27.6684 90.24C28.0017 90.0533 28.355 89.96 28.7284 89.96C28.775 89.96 28.8084 89.9633 28.8284 89.97V91.05C28.7084 91.0367 28.6084 91.03 28.5284 91.03C28.1617 91.03 27.8317 91.1233 27.5384 91.31C27.245 91.4967 27.0384 91.7233 26.9184 91.99V95ZM30.983 95H29.903V90.09H30.983V95ZM30.443 89.21C30.2496 89.21 30.0863 89.1467 29.953 89.02C29.8263 88.8867 29.763 88.7233 29.763 88.53C29.763 88.3367 29.8263 88.1733 29.953 88.04C30.0863 87.9067 30.2496 87.84 30.443 87.84C30.6296 87.84 30.7863 87.9067 30.913 88.04C31.0463 88.1733 31.113 88.3367 31.113 88.53C31.113 88.7233 31.0463 88.8867 30.913 89.02C30.7863 89.1467 30.6296 89.21 30.443 89.21ZM36.3957 90.73V90.09H37.4757V94.56C37.4757 95.3667 37.2057 95.9833 36.6657 96.41C36.139 96.8367 35.489 97.05 34.7157 97.05C33.949 97.05 33.309 96.9033 32.7957 96.61V95.62C33.3224 95.94 33.9224 96.1 34.5957 96.1C35.1424 96.1 35.579 95.9733 35.9057 95.72C36.2324 95.4667 36.3957 95.0867 36.3957 94.58V94.21C35.9824 94.7233 35.399 94.98 34.6457 94.98C33.9524 94.98 33.3824 94.7367 32.9357 94.25C32.489 93.7633 32.2657 93.1667 32.2657 92.46C32.2657 91.7533 32.489 91.1633 32.9357 90.69C33.3824 90.2033 33.9524 89.96 34.6457 89.96C35.4124 89.96 35.9957 90.2167 36.3957 90.73ZM34.9357 94.03C35.249 94.03 35.539 93.9533 35.8057 93.8C36.0724 93.64 36.269 93.4367 36.3957 93.19V91.76C36.269 91.5067 36.0724 91.3033 35.8057 91.15C35.5457 90.99 35.2557 90.91 34.9357 90.91C34.4824 90.91 34.1057 91.06 33.8057 91.36C33.5057 91.66 33.3557 92.03 33.3557 92.47C33.3557 92.91 33.5057 93.28 33.8057 93.58C34.1057 93.88 34.4824 94.03 34.9357 94.03ZM40.0629 91.77V95H38.9829V88H40.0629V90.74C40.5429 90.22 41.1429 89.96 41.8629 89.96C42.4429 89.96 42.8896 90.14 43.2029 90.5C43.5229 90.86 43.6829 91.36 43.6829 92V95H42.6029V92.24C42.6029 91.7667 42.4896 91.4367 42.2629 91.25C42.0362 91.0633 41.7662 90.97 41.4529 90.97C41.1862 90.97 40.9229 91.0467 40.6629 91.2C40.4029 91.3467 40.2029 91.5367 40.0629 91.77ZM45.6355 93.66V91.04H44.5855V90.09H45.6355V88.66H46.7155V90.09H48.2655V91.04H46.7155V93.35C46.7155 93.6233 46.7788 93.8233 46.9055 93.95C47.0321 94.0767 47.2255 94.14 47.4855 94.14C47.7455 94.14 47.9921 94.08 48.2255 93.96V94.89C47.9921 95.05 47.6288 95.13 47.1355 95.13C46.6688 95.13 46.3021 95.0033 46.0355 94.75C45.7688 94.4967 45.6355 94.1333 45.6355 93.66ZM52.9786 94.07C52.2786 93.3567 51.9286 92.5 51.9286 91.5C51.9286 90.5 52.2819 89.6467 52.9886 88.94C53.7019 88.2267 54.5553 87.87 55.5486 87.87C56.5553 87.87 57.4086 88.2267 58.1086 88.94C58.8153 89.6467 59.1686 90.5 59.1686 91.5C59.1686 92.5 58.8153 93.3533 58.1086 94.06C57.3953 94.7733 56.5386 95.13 55.5386 95.13C54.5319 95.13 53.6786 94.7767 52.9786 94.07ZM55.7586 93.47C55.1786 93.47 54.6953 93.28 54.3086 92.9C53.9219 92.52 53.7286 92.0533 53.7286 91.5C53.7286 90.94 53.9219 90.4767 54.3086 90.11C54.6953 89.73 55.1786 89.54 55.7586 89.54C56.1386 89.54 56.4753 89.6167 56.7686 89.77V90.5C56.4619 90.3067 56.1253 90.21 55.7586 90.21C55.3919 90.21 55.0853 90.3333 54.8386 90.58C54.5986 90.82 54.4786 91.1267 54.4786 91.5C54.4786 91.88 54.6019 92.19 54.8486 92.43C55.1019 92.67 55.4186 92.79 55.7986 92.79C56.2186 92.79 56.5719 92.6767 56.8586 92.45V93.18C56.5453 93.3733 56.1786 93.47 55.7586 93.47ZM58.8286 91.5C58.8286 90.58 58.5086 89.7967 57.8686 89.15C57.2353 88.4967 56.4619 88.17 55.5486 88.17C54.6353 88.17 53.8586 88.4967 53.2186 89.15C52.5786 89.7967 52.2586 90.58 52.2586 91.5C52.2586 92.42 52.5753 93.2067 53.2086 93.86C53.8486 94.5067 54.6253 94.83 55.5386 94.83C56.4519 94.83 57.2286 94.5033 57.8686 93.85C58.5086 93.1967 58.8286 92.4133 58.8286 91.5ZM67.6528 95H62.7828V94.2L64.9828 92.14C65.4495 91.7067 65.7928 91.3333 66.0128 91.02C66.2128 90.72 66.3128 90.4 66.3128 90.06C66.3128 89.7067 66.1828 89.4233 65.9228 89.21C65.6695 88.99 65.3361 88.88 64.9228 88.88C64.2295 88.88 63.5761 89.17 62.9628 89.75V88.6C63.5361 88.1133 64.2261 87.87 65.0328 87.87C65.6928 87.87 66.2528 88.06 66.7128 88.44C67.1795 88.82 67.4128 89.3167 67.4128 89.93C67.4128 90.4033 67.2961 90.8333 67.0628 91.22C66.8161 91.6133 66.4228 92.0667 65.8828 92.58L64.3728 94.02H67.6528V95ZM71.6843 95.13C70.7976 95.13 70.0843 94.78 69.5443 94.08C69.011 93.3667 68.7443 92.5067 68.7443 91.5C68.7443 90.5 69.011 89.6433 69.5443 88.93C70.0843 88.2233 70.7976 87.87 71.6843 87.87C72.5843 87.87 73.2976 88.2233 73.8243 88.93C74.3643 89.6367 74.6343 90.4933 74.6343 91.5C74.6343 92.5133 74.3643 93.3733 73.8243 94.08C73.2976 94.78 72.5843 95.13 71.6843 95.13ZM71.6843 94.1C72.2376 94.1 72.6843 93.85 73.0243 93.35C73.3643 92.85 73.5343 92.2333 73.5343 91.5C73.5343 90.7667 73.3643 90.15 73.0243 89.65C72.6843 89.15 72.2376 88.9 71.6843 88.9C71.1376 88.9 70.6943 89.1533 70.3543 89.66C70.0143 90.16 69.8443 90.7733 69.8443 91.5C69.8443 92.22 70.0143 92.8367 70.3543 93.35C70.6943 93.85 71.1376 94.1 71.6843 94.1ZM78.0848 95H77.0048V89.18L75.4748 90V88.93L77.1248 88H78.0848V95ZM81.1132 95H79.9332L82.9632 88.99H79.4332V88H84.2132V88.85L81.1132 95ZM89.2063 95H88.1063V88H93.0763V89.01H89.2063V90.84H92.2763V91.85H89.2063V95ZM94.9945 95H93.9145V90.09H94.9945V90.94C95.1612 90.6533 95.4112 90.42 95.7445 90.24C96.0779 90.0533 96.4312 89.96 96.8045 89.96C96.8512 89.96 96.8845 89.9633 96.9045 89.97V91.05C96.7845 91.0367 96.6845 91.03 96.6045 91.03C96.2379 91.03 95.9079 91.1233 95.6145 91.31C95.3212 91.4967 95.1145 91.7233 94.9945 91.99V95ZM102.499 94.16C102.606 94.16 102.702 94.1367 102.789 94.09V94.91C102.642 95.0167 102.432 95.07 102.159 95.07C101.599 95.07 101.256 94.8367 101.129 94.37C100.682 94.8767 100.079 95.13 99.3191 95.13C98.7925 95.13 98.3525 94.9833 97.9991 94.69C97.6525 94.4033 97.4791 94 97.4791 93.48C97.4791 92.96 97.6691 92.56 98.0491 92.28C98.4225 91.9933 98.8891 91.85 99.4491 91.85C100.042 91.85 100.566 91.9767 101.019 92.23V91.96C101.019 91.2467 100.539 90.89 99.5791 90.89C99.0191 90.89 98.5025 91.0367 98.0291 91.33V90.38C98.5158 90.1 99.1125 89.96 99.8191 89.96C100.512 89.96 101.062 90.1267 101.469 90.46C101.882 90.7867 102.089 91.2467 102.089 91.84V93.67C102.089 93.8233 102.126 93.9433 102.199 94.03C102.279 94.1167 102.379 94.16 102.499 94.16ZM101.019 93.61V93.01C100.606 92.7767 100.169 92.66 99.7091 92.66C99.3491 92.66 99.0658 92.7267 98.8591 92.86C98.6591 92.9933 98.5591 93.18 98.5591 93.42C98.5591 93.6733 98.6525 93.8667 98.8391 94C99.0325 94.1333 99.2925 94.2 99.6191 94.2C99.8858 94.2 100.146 94.1467 100.399 94.04C100.652 93.9267 100.859 93.7833 101.019 93.61ZM107.386 93.32V90.09H108.466V95H107.386V94.35C106.906 94.87 106.306 95.13 105.586 95.13C105.006 95.13 104.556 94.95 104.236 94.59C103.923 94.23 103.766 93.73 103.766 93.09V90.09H104.846V92.85C104.846 93.6967 105.229 94.12 105.996 94.12C106.263 94.12 106.526 94.0467 106.786 93.9C107.046 93.7467 107.246 93.5533 107.386 93.32ZM113.806 95H112.706V88H113.826L116.096 91.15L118.346 88H119.446V95H118.346V89.68L116.396 92.32H115.756L113.806 89.68V95Z" fill="white"/>
<path fill-rule="evenodd" clip-rule="evenodd" d="M64.9623 0C68.9822 0.0274837 73.0742 1.66494 76.7065 4.5406C78.576 6.02038 80.0572 7.82852 81.1904 9.94332C82.9007 13.1329 82.892 16.3369 81.4267 19.5908C80.2236 22.2625 78.3548 24.3839 75.9984 26.0705C72.1232 28.8434 67.8195 30.316 63.028 30.1793C60.9006 30.1185 58.8596 29.5725 56.8432 28.9252C54.3794 28.1339 52.0474 27.0541 49.7702 25.8231C48.6879 25.2379 47.5578 24.7392 46.4288 24.2411L46.4288 24.2411L46.4288 24.2411L46.4287 24.241C46.0983 24.0953 45.768 23.9495 45.439 23.8016C44.4837 23.372 43.5883 23.5268 42.7144 24.1018C41.7699 24.7231 40.9566 25.4789 40.2102 26.3171C39.8824 26.6856 39.5584 27.0575 39.2345 27.4295L39.2339 27.4301L39.2336 27.4304L39.2335 27.4305C38.9098 27.8021 38.5861 28.1737 38.2586 28.5419C38.0017 28.8307 37.7305 29.108 37.4599 29.3847L37.3386 29.5088C36.3056 30.5677 35.1198 31.3394 33.666 31.7394C31.8628 32.2355 30.0617 32.6391 28.1793 32.5841C24.0945 32.4641 21.2798 30.1193 20.429 26.1095C19.6776 22.5678 20.259 19.209 21.8814 16.0194C23.7948 12.2585 26.6124 9.43994 30.566 7.86324C32.3159 7.1653 34.1623 6.95411 36.0289 6.88467C36.5066 6.86694 36.9844 6.8514 37.4622 6.83586L37.4623 6.83586L37.4624 6.83586L37.4624 6.83585C38.6998 6.79561 39.9372 6.75536 41.172 6.6771C43.1661 6.55125 45.0529 5.97916 46.887 5.19081C50.1815 3.7754 53.4889 2.38819 56.9268 1.34815C59.3366 0.620554 61.7809 0.0911303 64.9623 0ZM60.6708 19.6899C60.9406 19.6732 61.2417 19.6576 61.5651 19.6408C62.3761 19.5987 63.3269 19.5493 64.2736 19.4578C66.0206 19.2892 67.733 18.9327 69.3619 18.2477C71.0966 17.518 72.5641 16.4642 73.5266 14.792C73.6476 14.5808 73.6541 14.4145 73.536 14.1982C72.9121 13.0555 71.9316 12.3337 70.7797 11.8144C69.2603 11.1295 67.6451 10.851 65.999 10.7367C63.3118 10.5501 60.6578 10.8105 58.029 11.3783C55.1041 12.0097 52.4162 13.1683 50.0417 15.0105C49.6477 15.3164 49.2925 15.6903 48.9849 16.0845C48.6081 16.5676 48.6441 16.9813 49.0994 17.3965C49.4316 17.6995 49.8184 17.9621 50.2204 18.1631C51.2801 18.6918 52.4242 18.971 53.5826 19.1786C55.4019 19.5045 57.2411 19.5682 59.2933 19.6394H59.2934C59.7417 19.655 60.2001 19.6709 60.6708 19.6899ZM30.3095 23.9051C33.7776 23.6555 37.0793 21.906 39.7139 18.8256C39.8608 18.6535 39.809 18.5407 39.7016 18.3888C39.0684 17.4948 38.2608 16.815 37.2644 16.3644C35.7825 15.6947 34.2308 15.5609 32.6545 15.869C29.2217 16.5394 26.6311 18.3656 25.0548 21.5545C24.9129 21.8409 24.9547 22.0145 25.1809 22.2322C26.4531 23.4566 28.0006 23.9065 30.3095 23.9051ZM72.7306 50.9457C72.6714 51.0668 72.6143 51.1889 72.5571 51.311L72.5565 51.3123C72.4323 51.5779 72.3081 51.8433 72.1636 52.0972C72.0344 52.3243 71.9056 52.5517 71.7769 52.7792L71.7763 52.7803L71.7756 52.7815L71.775 52.7826C71.1939 53.8093 70.6126 54.8363 69.9851 55.8342C69.6767 56.3239 69.2481 56.7622 68.8 57.1332C67.2216 58.4372 65.0553 58.1769 63.7859 56.5625C62.9891 55.5493 62.711 54.3443 62.5763 53.0989C62.3415 50.9334 62.5828 48.7941 62.9704 46.6648C62.9826 46.5954 62.9898 46.5252 62.9927 46.505C62.8307 46.5933 62.667 46.6811 62.5027 46.7693C62.044 47.0154 61.5799 47.2645 61.129 47.5356C61.0152 47.6041 60.9702 47.8242 60.9372 47.9857L60.9359 47.992C60.8209 48.5514 60.7141 49.1131 60.6074 49.6747L60.6073 49.6749L60.6073 49.6752L60.6072 49.6755C60.3905 50.8153 60.1739 51.9552 59.8877 53.0772C59.4396 54.8354 58.6954 56.4837 57.5608 57.9259C56.4629 59.321 55.0869 60.2483 53.2995 60.5151C51.2355 60.8233 49.3142 59.9011 48.3207 58.0373C48.1019 57.6268 47.9367 57.187 47.768 56.7383C47.6906 56.5324 47.6125 56.3247 47.5283 56.117C47.4663 56.2197 47.3914 56.3434 47.3186 56.4678C46.3136 58.1761 45.1005 59.7029 43.4831 60.8717C41.7988 62.0889 39.9358 62.7283 37.8444 62.5258C35.6047 62.3095 34.0882 61.0851 33.1869 59.0469C33.1457 58.9536 33.1074 58.8586 33.0691 58.7636C33.0445 58.7026 33.0199 58.6417 32.9946 58.5812C32.9924 58.5763 32.9855 58.5734 32.9723 58.5678L32.9583 58.5617C32.9525 58.5591 32.9459 58.556 32.9384 58.5522C32.9207 58.5847 32.9034 58.6175 32.8861 58.6505L32.886 58.6508L32.8858 58.6511C32.8453 58.728 32.8046 58.8053 32.7583 58.8791C32.5992 59.1337 32.4434 59.3906 32.2875 59.6475C31.9133 60.2645 31.5391 60.8814 31.1201 61.4655C30.5978 62.1938 29.8802 62.7088 28.9696 62.8737C27.6887 63.1058 26.6542 62.6668 25.8524 61.6622C25.1039 60.7249 24.7624 59.6111 24.5362 58.4553C24.1889 56.6819 24.2005 54.886 24.2156 53.0895C24.2174 52.8696 24.2185 52.6496 24.2196 52.4295V52.4294C24.2239 51.5803 24.2282 50.7286 24.2711 49.8659C24.268 49.8728 24.2649 49.8797 24.2617 49.8866C24.2571 49.8967 24.2524 49.9069 24.2476 49.917L24.2199 49.9756L24.2198 49.9756C24.1833 50.0522 24.1469 50.1286 24.1191 50.208C23.7964 51.1394 23.4749 52.071 23.1534 53.0027L23.1532 53.0033C22.4432 55.061 21.7332 57.1186 21.0112 59.1721C20.7374 59.9517 20.4333 60.7212 20.1294 61.4903L20.1294 61.4904L20.1294 61.4904L20.1293 61.4905L20.1292 61.4907C20.0134 61.7838 19.8977 62.0768 19.7836 62.3703C19.7453 62.4692 19.6957 62.5639 19.6462 62.6584C19.6229 62.7028 19.5996 62.7472 19.5776 62.792C19.1813 63.5948 18.6417 64.1929 17.6569 64.1784C16.5878 64.1625 15.7111 63.7843 15.1564 62.8252C14.825 62.2517 14.6874 61.6152 14.6679 60.9571C14.5887 58.2767 14.7846 55.6115 15.0764 52.9492C15.3602 50.3606 15.7759 47.796 16.3998 45.2682C16.5374 44.7098 16.7125 44.1544 16.9336 43.6235C17.3601 42.5994 18.3435 42.1083 19.4277 42.3643C19.7598 42.4431 20.0934 42.5798 20.3837 42.7585C20.8714 43.0586 21.0342 43.5447 20.8873 44.1037C20.7493 44.6281 20.6042 45.1509 20.459 45.6737L20.4589 45.6739L20.4589 45.6739L20.4589 45.674L20.4589 45.674C20.1598 46.751 19.8608 47.8278 19.6251 48.9185C18.9666 51.9612 18.6057 55.0466 18.5553 58.1638C18.5538 58.2535 18.5553 58.3432 18.6194 58.4452C18.6435 58.3739 18.6677 58.3026 18.692 58.2312L18.6922 58.2309C18.7435 58.0802 18.7948 57.9294 18.8442 57.7783C20.2692 53.4222 21.6985 49.0667 23.5276 44.8595C23.9794 43.8207 24.5221 42.8201 25.063 41.8229L25.1248 41.709C25.3124 41.363 25.5674 41.0513 25.8203 40.7422L25.8203 40.7422L25.8208 40.7416C25.8659 40.6865 25.9109 40.6315 25.9554 40.5764C26.495 39.9081 27.214 39.7288 27.9956 39.9935C28.5323 40.175 29.0561 40.4412 29.5272 40.7572C30.0229 41.0899 30.2865 41.6121 30.3247 42.2298C30.3521 42.6702 30.2217 43.0478 29.8745 43.3176C29.3529 43.7226 29.0863 44.2549 28.948 44.8935C28.054 49.0168 27.4906 53.1719 27.7334 57.4044C27.7629 57.915 27.8667 58.4343 28.0223 58.9218C28.2175 59.5359 28.6807 59.687 29.1598 59.256C29.5589 58.8958 29.9148 58.4372 30.1497 57.9541C30.4773 57.2796 30.751 56.5783 31.0246 55.8772L31.0248 55.8767C31.1188 55.636 31.2127 55.3953 31.3088 55.1558C31.3984 54.9318 31.4812 54.7046 31.564 54.4775L31.5641 54.4773C31.7082 54.0819 31.8523 53.6867 32.0321 53.3086C32.4576 52.4131 32.5965 51.4594 32.7358 50.5022L32.7358 50.5022L32.7359 50.502C32.7659 50.2957 32.7959 50.0893 32.8289 49.8833C33.4607 45.9415 34.5817 42.1683 36.691 38.7386C37.6571 37.1684 39.0504 36.3468 40.8788 36.4184C41.3269 36.4359 41.7699 36.5885 42.2126 36.741L42.2128 36.7411C42.4107 36.8092 42.6085 36.8773 42.8067 36.9334C42.8703 36.9514 42.9331 36.9749 42.9957 36.9985L42.9957 36.9985L42.9958 36.9985L42.9958 36.9985C43.1019 37.0383 43.2076 37.0781 43.3167 37.0903C44.3094 37.2046 44.9982 37.7391 45.4499 38.6113C45.8382 39.3621 46.0176 40.1765 46.0716 41.0075C46.2034 43.0145 45.9729 44.9796 45.2244 46.8572C45.0255 47.3555 44.7525 47.8321 44.4564 48.2805C44.0523 48.8931 43.4723 49.207 42.7245 49.011C41.922 48.8013 41.3392 48.3124 41.1864 47.4683C40.9617 46.2251 41.1908 45.0035 41.422 43.7783C41.5899 42.8899 41.7188 41.9945 41.8487 41.0925L41.8488 41.0918L41.8489 41.0911L41.849 41.0904C41.9052 40.7 41.9616 40.3083 42.0214 39.9154C41.5524 39.8199 41.2088 39.9515 40.984 40.2011C40.5626 40.6697 40.139 41.1601 39.8378 41.709C38.9395 43.3494 38.2933 45.0989 37.763 46.8919C36.8366 50.0236 36.1774 53.1965 36.2934 56.4888C36.3265 57.4211 36.4533 58.3381 36.8207 59.2032C37.3185 60.377 38.1636 60.7914 39.4012 60.4942C40.4732 60.2367 41.3493 59.6364 42.1432 58.9023C43.6171 57.5397 44.7078 55.8827 45.7128 54.1628C45.7934 54.0251 45.8706 53.8856 45.9478 53.746L45.9479 53.7458L45.948 53.7456C46.0162 53.6222 46.0845 53.4988 46.1551 53.3766C47.0542 51.8216 47.6126 50.1711 47.9079 48.3796C48.3567 45.6609 49.2911 43.0753 50.5511 40.6205C50.9265 39.8886 51.4019 39.2218 52.0373 38.6858C52.5582 38.2461 53.1468 37.9843 53.8406 37.9741C54.5242 37.964 55.0862 38.2063 55.4968 38.7567C55.6185 38.9194 55.723 38.9592 55.9161 38.8869C57.4794 38.3018 58.5355 38.7705 59.529 40.06C60.3344 41.1059 60.6751 42.3506 60.9294 43.6221C60.9456 43.7033 60.963 43.7845 60.9821 43.874C60.9928 43.9239 61.004 43.9764 61.0159 44.0329C61.7442 43.6481 62.3977 43.2055 62.8349 42.543C63.2771 41.8724 63.6813 41.1768 64.0854 40.4815C64.2126 40.2626 64.3398 40.0437 64.4681 39.8257C64.5129 39.7496 64.5554 39.6714 64.5979 39.5934C64.8302 39.1668 65.0606 38.7435 65.6453 38.667C65.7023 38.6596 65.7499 38.5665 65.7954 38.4778L65.7955 38.4776C65.8121 38.4452 65.8285 38.4133 65.8448 38.3864C66.0089 38.117 66.1676 37.8439 66.3263 37.5709L66.3265 37.5705L66.3268 37.5701L66.327 37.5697L66.327 37.5697L66.3271 37.5696L66.3271 37.5695C66.6701 36.9794 67.0131 36.3894 67.4089 35.8369C68.4124 34.4353 69.8259 33.989 71.4389 34.5994C72.1335 34.862 72.7899 35.2304 73.4442 35.5975C73.6279 35.7006 73.8115 35.8037 73.9956 35.9042C74.1981 36.0149 74.3458 36.03 74.559 35.957C74.6938 35.9107 74.8288 35.8603 74.9642 35.8097L74.9654 35.8093L74.9656 35.8092C75.3947 35.6489 75.8273 35.4873 76.2678 35.4522C77.7519 35.3335 79.0241 36.5247 78.5559 38.304C77.9903 40.4542 77.5221 42.6326 77.0783 44.8125C76.5416 47.4459 76.2152 50.114 76.0423 52.7958C75.9319 54.5163 75.8389 56.2381 75.7459 57.9598L75.7458 57.9632C75.6829 59.1274 75.62 60.2916 75.5517 61.4554C75.5397 61.6593 75.5282 61.8633 75.5166 62.0674L75.5166 62.0678V62.0679V62.068C75.4559 63.138 75.3951 64.2086 75.2729 65.272C74.8659 68.8094 72.7544 70.943 69.524 72.0677C67.6675 72.7143 65.7476 72.9834 63.7837 72.6376C63.0158 72.5024 62.3134 72.1979 61.7024 71.7046C61.0685 71.1933 60.7292 70.5315 60.8552 69.7113C60.8992 69.4249 61.0649 69.1154 61.2666 68.9042C61.6052 68.5491 62.1217 68.6163 62.4402 68.9866L62.4609 69.0103L62.4727 69.0235L62.4727 69.0236C62.5187 69.0751 62.5657 69.1278 62.5907 69.1884C62.827 69.7649 63.3011 69.9261 63.8687 69.9977C65.9003 70.2538 67.8181 69.9305 69.5795 68.8644C70.8625 68.0876 71.637 67.01 71.7386 65.4253C71.8458 63.7567 71.9949 62.0907 72.144 60.4247L72.1441 60.4245L72.1441 60.4243L72.1441 60.4241C72.2505 59.2351 72.357 58.0462 72.4482 56.8562C72.5521 55.4979 72.6263 54.1375 72.7004 52.777L72.7005 52.7758L72.7006 52.7747L72.7006 52.7735C72.7333 52.1741 72.766 51.5747 72.8012 50.9754C72.7753 50.966 72.7529 50.9559 72.7306 50.9457ZM65.2535 53.8923L65.2535 53.8924C65.3095 54.2346 65.3655 54.5767 65.4796 54.8983C65.7526 55.6686 66.5566 55.9203 67.2475 55.4827C67.4968 55.3251 67.7331 55.1182 67.9132 54.8853C68.2431 54.4586 68.5723 54.0203 68.8194 53.543C69.372 52.4762 69.8929 51.392 70.3921 50.2984C71.7753 47.2665 72.8466 44.1341 73.3458 40.8238C73.4481 40.1439 73.5302 39.4612 73.3012 38.7856C73.0641 38.087 72.5692 37.7268 71.8466 37.8411C71.4972 37.896 71.0952 38.0342 70.8546 38.2736C70.3568 38.7683 69.8842 39.3158 69.5197 39.9139C68.2107 42.0598 67.3102 44.3938 66.5184 46.7718C65.7995 48.9286 65.3391 51.136 65.172 53.4294C65.2027 53.5824 65.2281 53.7373 65.2535 53.8923ZM57.5885 44.8635L57.5885 44.8632C57.526 44.3002 57.4492 43.6085 57.2769 42.9422C56.9801 41.7958 56.0299 41.5521 55.1683 42.3621C54.736 42.7679 54.3456 43.2489 54.0459 43.7609C52.167 46.9621 51.2932 50.4308 51.4387 54.1454C51.4617 54.7407 51.5633 55.3489 51.7362 55.9181C52.1346 57.2294 53.2599 57.5078 54.2173 56.5343C54.6078 56.1373 54.9493 55.6679 55.2216 55.1797C56.8454 52.2679 57.4707 49.0935 57.6588 45.4461C57.6344 45.2766 57.6125 45.0795 57.5885 44.8635ZM127.154 28.6204C127.051 28.6503 126.945 28.681 126.835 28.711C126.507 28.233 126.1 27.8815 125.515 27.7715C124.604 27.6037 123.795 27.8648 123.17 28.5035C122.639 29.0474 122.11 29.6513 121.784 30.3275C121.114 31.7212 120.49 33.1518 120.013 34.6215C119.71 35.5533 119.493 36.5133 119.276 37.4735L119.276 37.4736L119.276 37.4738L119.276 37.474C119.148 38.0399 119.02 38.606 118.874 39.1664C118.401 40.9869 117.77 42.7531 116.939 44.4426C116.524 45.2873 116.064 46.1097 115.357 46.7512C114.286 47.7225 113.314 47.4622 113.024 46.0504C112.819 45.0566 112.74 44.0202 112.744 43.0033C112.763 38.7448 113.048 34.5014 113.723 30.295C114.05 28.2522 114.411 26.215 114.773 24.1778C114.981 23.0038 115.19 21.8298 115.391 20.6547C115.44 20.3676 115.574 20.2656 115.843 20.2106C116.806 20.0146 117.766 19.8005 118.724 19.5814C119.584 19.3849 120.443 19.186 121.302 18.9871L121.303 18.9869L121.304 18.9867L121.305 18.9866C122.64 18.6775 123.976 18.3684 125.313 18.0683C125.704 17.9806 126.1 17.9114 126.496 17.8422C126.903 17.7709 127.311 17.6997 127.713 17.6083C128.22 17.4933 128.347 17.2482 128.287 16.731C128.194 15.9268 127.581 15.3134 126.605 15.2165C125.726 15.1297 124.821 15.0646 123.951 15.1768C122.418 15.3736 120.894 15.6381 119.37 15.9025L119.37 15.9026L119.369 15.9026L119.369 15.9027C118.956 15.9743 118.543 16.046 118.13 16.1163C117.693 16.1906 117.259 16.2861 116.812 16.3844L116.812 16.3844C116.602 16.4305 116.389 16.4773 116.172 16.5227C116.177 16.4565 116.18 16.3962 116.183 16.3402L116.183 16.3396V16.3395C116.188 16.2283 116.193 16.1338 116.212 16.0425C116.265 15.7833 116.318 15.524 116.371 15.2646C116.547 14.4059 116.723 13.5471 116.921 12.6938C117.123 11.8223 116.813 11.2119 115.94 11.0173C114.601 10.7193 113.35 11.1149 112.952 12.6931C112.655 13.8713 112.436 15.0695 112.218 16.2665L112.217 16.2707C112.17 16.5279 112.123 16.7851 112.075 17.042C112.028 17.2916 111.938 17.3899 111.709 17.4348C111.25 17.5244 110.791 17.6199 110.339 17.7378C109.92 17.8473 109.501 17.9561 109.082 18.065L109.082 18.065C107.494 18.4772 105.906 18.8895 104.329 19.3398C103.801 19.4903 103.303 19.7998 102.835 20.1043C102.381 20.4001 102.293 20.8644 102.461 21.3852C102.662 22.0108 103.097 22.4071 103.714 22.4961C104.336 22.5858 104.992 22.6379 105.606 22.5366C106.826 22.3358 108.039 22.0907 109.253 21.8456L109.253 21.8456L109.253 21.8456L109.254 21.8454L109.254 21.8453C109.745 21.7461 110.236 21.647 110.727 21.5508C110.812 21.5343 110.898 21.522 110.994 21.5082C111.014 21.5053 111.036 21.5022 111.057 21.4991C111.08 21.4957 111.104 21.4923 111.128 21.4886C111.126 21.535 111.125 21.5767 111.124 21.6151V21.6153C111.123 21.6899 111.122 21.752 111.113 21.8126C111.029 22.3717 110.944 22.9305 110.858 23.4894L110.858 23.4908L110.858 23.4923L110.858 23.4935C110.698 24.5399 110.538 25.5863 110.387 26.6339C109.85 30.3666 109.415 34.1101 109.237 37.8805C109.232 37.9825 109.231 38.0858 109.229 38.1891C109.225 38.4755 109.221 38.763 109.146 39.0297C108.539 41.1915 107.702 43.263 106.595 45.2194C106.017 46.2406 105.331 47.183 104.483 47.9974C104.072 48.3923 103.609 48.7221 103.003 48.4972C102.413 48.278 102.233 47.7254 102.215 47.1808C102.21 47.0408 102.205 46.9005 102.2 46.76C102.164 45.7808 102.128 44.7929 102.259 43.8322C102.516 41.9385 102.859 40.0556 103.201 38.1736L103.203 38.1637C103.267 37.8106 103.331 37.4575 103.395 37.1044C103.555 36.2157 103.73 35.3297 103.904 34.4437C104.071 33.5941 104.239 32.7445 104.393 31.8926C104.56 30.9763 103.938 30.3687 103.019 30.4924C102.296 30.5893 101.621 30.8222 100.995 31.199C100.487 31.505 100.067 31.9049 99.88 32.4778C99.6416 33.2068 99.4024 33.9416 99.246 34.6916C98.7648 36.9981 98.6402 39.3458 98.5343 41.6935C98.5278 41.836 98.5163 41.9857 98.4658 42.1166C98.3089 42.5237 98.1525 42.9311 97.9961 43.3384L97.9957 43.3393C97.3848 44.9303 96.7738 46.5213 96.131 48.0994C95.917 48.6237 95.6007 49.1343 95.2283 49.5603C94.577 50.3038 93.9351 50.1382 93.7248 49.1785C93.5793 48.5131 93.5238 47.8209 93.4971 47.1382C93.4172 45.0993 93.4834 43.0604 93.7932 41.044C93.9982 39.7088 94.2412 38.3798 94.4843 37.0508C94.6027 36.4037 94.721 35.7567 94.8349 35.109C94.9142 34.6584 95.1591 34.3177 95.4884 34.0176C96.3118 33.2683 96.3529 32.3461 95.5892 31.5274C95.0374 30.9358 94.3357 30.6118 93.5497 30.4606C92.8063 30.3174 92.2004 30.5553 91.7256 31.1347C91.6793 31.1914 91.6319 31.2477 91.5845 31.3042L91.5845 31.3043C91.3985 31.5258 91.2113 31.7487 91.0758 31.9982C90.9597 32.2126 90.8425 32.4266 90.7251 32.6405C90.2468 33.5131 89.7679 34.3865 89.3699 35.2948C87.5413 39.4661 86.1231 43.7913 84.7054 48.1152L84.6857 48.1753C84.5994 48.4392 84.5119 48.7025 84.4244 48.9662L84.3868 49.0794C84.3414 48.9586 84.3385 48.8501 84.3414 48.7423C84.4264 45.3127 84.8356 41.9206 85.61 38.5791C85.8363 37.603 86.1161 36.6397 86.3959 35.6764L86.396 35.6764L86.396 35.6763L86.3969 35.6731C86.4927 35.3434 86.5884 35.0138 86.682 34.6837C86.834 34.147 86.7029 33.7008 86.2822 33.3565C85.337 32.5819 83.2607 32.545 82.706 34.2092C82.4517 34.9715 82.2154 35.744 82.0288 36.5258C81.3877 39.212 80.9756 41.9401 80.7544 44.6899C80.6112 46.4743 80.5499 48.2657 80.4886 50.0562V50.0564L80.4886 50.057C80.4766 50.4093 80.4645 50.7617 80.4518 51.1139C80.4238 51.8899 80.5527 52.6588 80.9475 53.3451C81.5065 54.3165 82.3912 54.6998 83.4783 54.707C84.4494 54.7135 85.0121 54.1386 85.36 53.3307C85.8679 52.1503 86.3593 50.9591 86.7886 49.7484C87.5227 47.679 88.2376 45.603 88.9525 43.5269C89.2633 42.6243 89.574 41.7218 89.8864 40.8198C89.916 40.735 89.9528 40.6525 89.9923 40.564C90.0125 40.5188 90.0333 40.4721 90.0543 40.4227C90.0543 40.6106 90.0553 40.7939 90.0564 40.9743C90.0585 41.3516 90.0606 41.7156 90.0528 42.0797L90.0472 42.3295L90.0383 42.7087C89.9895 44.7645 89.9407 46.8202 90.3107 48.8581C90.5341 50.0883 90.8899 51.2737 91.7055 52.2603C92.8999 53.7053 94.8213 53.8934 96.247 52.6776C96.654 52.3304 97.0365 51.9203 97.3175 51.4683C97.7402 50.7893 98.125 50.086 98.5098 49.3829L98.5105 49.3816C98.662 49.1049 98.8135 48.8281 98.9672 48.5528C99.0036 48.4875 99.0359 48.4195 99.0706 48.3465C99.0881 48.3096 99.1062 48.2715 99.1257 48.2317C99.1757 48.3551 99.2223 48.476 99.268 48.5945C99.3672 48.8517 99.462 49.0976 99.5774 49.3332C99.746 49.6775 99.934 50.0174 100.156 50.3292C101.207 51.8032 102.715 52.2501 104.406 51.6093C105.493 51.1971 106.29 50.4304 106.947 49.4989C107.867 48.1927 108.526 46.749 109.125 45.2751C109.154 45.2041 109.184 45.1343 109.222 45.0485C109.246 44.9942 109.272 44.9335 109.303 44.8621C109.325 44.9875 109.344 45.1038 109.362 45.2138L109.362 45.2145L109.362 45.2158C109.399 45.4408 109.432 45.6397 109.472 45.837C109.719 47.0774 110.084 48.2701 110.948 49.2378C111.752 50.1368 112.734 50.6091 113.961 50.4217C114.893 50.2793 115.731 49.9097 116.473 49.3231C117.377 48.6078 118.026 47.6907 118.558 46.6796C118.596 46.6084 118.633 46.5373 118.673 46.4613C118.723 46.3651 118.777 46.2613 118.841 46.1401C118.877 46.2479 118.91 46.3473 118.941 46.4407L118.941 46.4409L118.941 46.4412C119.005 46.6357 119.061 46.8043 119.123 46.9704C120.055 49.4569 122.157 50.677 124.762 50.22C126.486 49.9176 127.791 48.942 128.831 47.5743C130.085 45.9267 130.823 44.0339 131.298 42.0435C131.52 41.1113 131.687 40.1655 131.854 39.2194L131.854 39.2193L131.854 39.2192L131.854 39.2171C131.94 38.7298 132.026 38.2424 132.119 37.7568C132.127 37.7164 132.13 37.6741 132.134 37.6316C132.145 37.4835 132.156 37.3333 132.366 37.2512C133.879 36.6567 134.992 35.5704 135.839 34.2201C136.496 33.1728 137.084 32.0792 137.648 30.9785C137.85 30.5843 137.949 30.1127 137.991 29.6665C138.053 29.0264 137.78 28.6112 137.332 28.4753C136.772 28.3046 136.257 28.5158 135.932 29.0777C135.808 29.2929 135.694 29.514 135.58 29.7352L135.58 29.7355L135.58 29.7358L135.58 29.736L135.58 29.7361C135.451 29.9854 135.323 30.2346 135.18 30.4751C134.812 31.0949 134.439 31.7147 134.022 32.3013C133.557 32.9544 132.922 33.4187 132.198 33.7854C132.171 33.6585 132.145 33.535 132.121 33.4139L132.121 33.4135L132.12 33.413L132.12 33.4122C132.067 33.1516 132.016 32.9023 131.954 32.6557C131.625 31.356 131.158 30.1272 130.146 29.1862C129.483 28.5693 128.719 28.2612 127.807 28.4492C127.591 28.4938 127.378 28.5554 127.154 28.6204ZM128.783 35.1947C128.779 35.2999 128.776 35.405 128.776 35.5097C128.674 38.7954 128.041 41.9546 126.453 44.8664C126.219 45.2967 125.924 45.7003 125.611 46.0771C125.408 46.3209 125.144 46.535 124.866 46.6883C124.225 47.0434 123.48 46.8612 123.175 46.1972C122.92 45.6417 122.755 45.0183 122.679 44.4093C122.395 42.1115 122.787 39.8745 123.422 37.6751C123.884 36.0738 124.507 34.5369 125.463 33.1605C125.741 32.7591 126.061 32.3685 126.429 32.051C127.24 31.3509 128.097 31.5722 128.426 32.5906C128.592 33.1027 128.66 33.6489 128.728 34.1903C128.741 34.2936 128.754 34.3966 128.768 34.4993C128.798 34.7277 128.791 34.9612 128.783 35.1947ZM2.15266 61.0596L2.15267 61.0594C2.26821 59.7377 2.38375 58.416 2.5259 57.0967C2.77661 54.7744 3.05541 52.4549 3.35654 50.1383C3.68145 47.6438 4.03157 45.1514 4.39682 42.6627C4.82691 39.7328 5.27717 36.8065 5.73464 33.8809C6.30016 30.2661 6.86569 26.6513 7.46868 23.0429C7.68336 21.7606 8.0306 20.5007 8.62062 19.3326C8.86773 18.8437 9.1631 18.3584 9.52979 17.9563C10.1328 17.2945 11.1414 16.8193 12.2386 17.4363C12.7861 17.7436 13.3012 18.1262 13.7766 18.5385C14.126 18.8415 14.2399 19.2856 14.1275 19.7637C13.9995 20.31 13.8678 20.8555 13.7361 21.401L13.7361 21.4011C13.4274 22.6799 13.1187 23.9587 12.8581 25.2474L12.7372 25.8453C11.8904 30.0326 11.0435 34.2206 10.2898 38.4252C9.68684 41.7883 9.202 45.1746 8.73013 48.5601C8.41179 50.8472 8.16405 53.1442 7.91638 55.4406L7.83033 56.2375C7.60123 58.3566 7.39159 60.4787 7.22446 62.6036C7.19516 62.9737 7.27062 63.3536 7.34573 63.7317C7.3722 63.865 7.39863 63.9981 7.42041 64.1304C7.55153 64.9281 7.29362 65.4279 6.5307 65.663C5.64747 65.9349 4.73902 66.0051 3.82986 65.7867C2.75932 65.5299 2.12607 64.7596 2.06051 63.6523C2.04863 63.4544 2.05172 63.2555 2.05482 63.0565C2.05623 62.9661 2.05763 62.8756 2.05763 62.7851C2.03962 62.7844 2.01945 62.783 2 62.7808C2.05234 62.2072 2.1025 61.6334 2.15266 61.0596ZM102.146 28.5513C104.035 28.8645 106.094 27.0187 106.087 25.011C106.087 24.9807 106.088 24.9504 106.089 24.9201C106.09 24.854 106.092 24.7878 106.086 24.7224C105.973 23.5413 105.334 22.8477 104.325 22.9699C102.737 23.1623 101.422 23.8979 100.601 25.3169C99.8094 26.6853 100.605 28.296 102.146 28.5513Z" fill="#4B4B4B"/>
</svg>
