<svg width="24" height="30" viewBox="0 0 24 30" fill="none" xmlns="http://www.w3.org/2000/svg">
<path d="M24 12C24 8.70654 22.6631 5.70653 20.5109 3.48914C18.3587 1.33696 15.3587 0 12 0C8.64132 0 5.70653 1.33696 3.48914 3.48914C1.33696 5.64131 0 8.64132 0 12C0 15.4892 1.33696 18.6848 3.48914 21L12 30L20.5109 21C22.6631 18.6848 24 15.4892 24 12ZM12 16.4022C9.29349 16.4022 7.10871 14.2174 7.10871 11.5109C7.10871 8.80436 9.29349 6.61958 12 6.61958C14.7065 6.61958 16.8913 8.80436 16.8913 11.5109C16.8913 14.2174 14.7065 16.4022 12 16.4022Z" fill="black"/>
<path d="M24 12C24 8.70654 22.6631 5.70653 20.5109 3.48914C18.3587 1.33696 15.3587 0 12 0C8.64132 0 5.70653 1.33696 3.48914 3.48914C1.33696 5.64131 0 8.64132 0 12C0 15.4892 1.33696 18.6848 3.48914 21L12 30L20.5109 21C22.6631 18.6848 24 15.4892 24 12ZM12 16.4022C9.29349 16.4022 7.10871 14.2174 7.10871 11.5109C7.10871 8.80436 9.29349 6.61958 12 6.61958C14.7065 6.61958 16.8913 8.80436 16.8913 11.5109C16.8913 14.2174 14.7065 16.4022 12 16.4022Z" fill="url(#paint0_linear)"/>
<defs>
<linearGradient id="paint0_linear" x1="12" y1="0" x2="12" y2="30.0001" gradientUnits="userSpaceOnUse">
<stop stop-color="#A7A7A7"/>
<stop offset="1" stop-color="#A7A7A7" stop-opacity="0.62"/>
</linearGradient>
</defs>
</svg>
