<svg width="36" height="45" viewBox="0 0 36 45" fill="none" xmlns="http://www.w3.org/2000/svg">
<path d="M36.0001 18C36.0001 13.0598 33.9946 8.5598 30.7664 5.23371C27.5381 2.00544 23.0381 0 18 0C12.962 0 8.5598 2.00544 5.2337 5.23371C2.00544 8.46197 0 12.962 0 18C0 23.2337 2.00544 28.0272 5.2337 31.5001L18 45.0001L30.7664 31.5001C33.9946 28.0272 36.0001 23.2337 36.0001 18ZM18 24.6033C13.9402 24.6033 10.6631 21.3261 10.6631 17.2663C10.6631 13.2065 13.9402 9.92937 18 9.92937C22.0598 9.92937 25.337 13.2065 25.337 17.2663C25.337 21.3261 22.0598 24.6033 18 24.6033Z" fill="black"/>
<path d="M36.0001 18C36.0001 13.0598 33.9946 8.5598 30.7664 5.23371C27.5381 2.00544 23.0381 0 18 0C12.962 0 8.5598 2.00544 5.2337 5.23371C2.00544 8.46197 0 12.962 0 18C0 23.2337 2.00544 28.0272 5.2337 31.5001L18 45.0001L30.7664 31.5001C33.9946 28.0272 36.0001 23.2337 36.0001 18ZM18 24.6033C13.9402 24.6033 10.6631 21.3261 10.6631 17.2663C10.6631 13.2065 13.9402 9.92937 18 9.92937C22.0598 9.92937 25.337 13.2065 25.337 17.2663C25.337 21.3261 22.0598 24.6033 18 24.6033Z" fill="url(#paint0_linear)"/>
<defs>
<linearGradient id="paint0_linear" x1="19" y1="-1.40956e-05" x2="18" y2="44.5" gradientUnits="userSpaceOnUse">
<stop stop-color="#E46857"/>
<stop offset="0.0001" stop-color="#FF8372"/>
<stop offset="1" stop-color="#F35050"/>
</linearGradient>
</defs>
</svg>
