<svg width="1012" height="1255" viewBox="0 0 1012 1255" fill="none" xmlns="http://www.w3.org/2000/svg">
<g filter="url(#filter0_d)">
<path d="M1006.18 339.038C995.902 325.132 980.919 315.699 963.372 315.692C937.163 315.689 914.839 316.977 890.781 304.379C851.281 283.659 829.013 241.113 789.339 219.99C762.612 205.765 731.767 203.37 702.097 205.621C669.162 208.116 636.061 214.335 605.338 226.681C557.526 245.871 525.395 283.646 510.069 332.304C501.677 358.937 498.36 387.03 496.415 414.787C494.421 443.555 497.102 471.767 484.011 498.366C460.083 547.018 403.153 573.812 358.975 600.411C336.354 614.02 313.72 628.351 294.933 647.077C272.829 669.091 261.154 700.6 253.379 730.176C249.609 744.533 247.71 759.644 247.644 774.859C246.521 798.105 250.289 820 258.924 840.426C259.645 842.159 260.449 843.844 261.254 845.529C264.383 853.07 267.963 860.364 272.156 867.286C293.161 902.076 328.05 927.281 364.274 944.431C368.315 946.347 372.404 948.191 376.589 949.891C393.844 979.047 416.168 1010.73 444.581 1041.1C468.702 1066.89 491.312 1068.29 512.585 1055.77C513.843 1055.02 515.095 1054.23 516.335 1053.39C516.612 1053.21 516.882 1053 517.159 1052.82C518.122 1052.16 519.085 1051.5 520.066 1050.77C520.475 1050.47 520.879 1050.14 521.282 1049.81C522.125 1049.17 522.937 1048.54 523.768 1047.85C524.225 1047.47 524.701 1047.04 525.158 1046.66C525.934 1046.01 526.681 1045.36 527.451 1044.67C527.927 1044.23 528.426 1043.76 528.902 1043.32C529.642 1042.64 530.383 1041.96 531.117 1041.25C531.617 1040.78 532.11 1040.27 532.58 1039.8C533.314 1039.09 534.043 1038.36 534.741 1037.62C535.204 1037.12 535.698 1036.62 536.186 1036.08C536.908 1035.31 537.661 1034.54 538.377 1033.74C538.841 1033.24 539.268 1032.72 539.732 1032.22C540.502 1031.38 541.237 1030.51 542.001 1029.64C542.435 1029.14 542.838 1028.66 543.265 1028.13C544.048 1027.2 544.837 1026.29 545.613 1025.32C545.993 1024.87 546.366 1024.39 546.739 1023.91C547.54 1022.9 548.371 1021.89 549.166 1020.86C549.515 1020.41 549.834 1019.98 550.183 1019.53C551.026 1018.42 551.869 1017.32 552.712 1016.21C553.007 1015.81 553.308 1015.44 553.573 1015.04C554.458 1013.83 555.343 1012.62 556.229 1011.41C556.475 1011.08 556.716 1010.72 556.963 1010.39C557.89 1009.08 558.818 1007.77 559.775 1006.45C559.968 1006.16 560.167 1005.91 560.359 1005.62C561.329 1004.2 562.298 1002.79 563.292 1001.34C563.436 1001.13 563.581 1000.91 563.725 1000.69C564.737 999.178 565.749 997.662 566.76 996.147C566.857 996.003 566.947 995.828 567.073 995.678C568.133 994.091 569.157 992.479 570.211 990.862C570.235 990.825 570.259 990.789 570.283 990.753C576.058 981.752 581.756 972.359 587.351 962.924C587.586 962.533 587.814 962.112 588.049 961.721C588.7 960.591 589.356 959.49 590.007 958.36C590.519 957.476 591.061 956.586 591.573 955.702C592.06 954.854 592.554 954.036 593.042 953.188C593.765 951.949 594.488 950.711 595.21 949.472C595.301 949.297 595.421 949.117 595.512 948.943C611.008 922.333 625.758 896.373 639.908 877.601C642.533 874.138 645.14 870.898 647.717 867.976C650.624 864.675 653.478 861.729 656.325 859.223C658.721 857.119 661.134 855.262 663.493 853.76L663.547 853.718C665.912 852.246 668.62 850.924 671.593 849.675C675.089 848.228 678.993 846.949 683.235 845.792C687.001 844.76 691.044 843.861 695.322 843.04C705.381 841.098 716.697 839.657 728.819 838.493C764.895 834.966 807.948 833.646 845.313 827.954C845.433 827.93 845.584 827.9 845.704 827.876C848.862 827.403 851.979 826.876 855.059 826.325C855.209 826.295 855.36 826.265 855.51 826.235C886.27 820.67 912.023 811.473 924.968 794.662C925.04 794.554 925.142 794.44 925.215 794.331C926.076 793.159 926.901 791.962 927.659 790.748C927.708 790.675 927.756 790.603 927.81 790.561C935.392 777.915 936.421 761.414 928.129 739.574C916.818 709.798 903.243 682.943 889.172 659.253C913.302 664.517 939.395 666.607 961.917 656.115C976.744 649.22 987.162 633.068 995.936 620.122C1028.09 572.74 1040.1 512.137 1038.26 455.638C1037.05 417.091 1029.59 370.689 1006.18 339.038ZM484.923 910.636C469.413 914.258 451.463 914.268 430.835 908.368C430.829 908.338 432.015 881.639 446.631 858.614C463.096 832.625 496.58 811.222 564.685 837.692C564.655 837.698 540.845 897.618 484.923 910.636ZM692.676 757.861C700.278 668.858 749.335 657.802 782.976 661.047C801.279 662.812 815.044 668.797 815.044 668.797C812.955 680.442 809.591 690.559 805.307 699.357C773.927 764.133 692.676 757.861 692.676 757.861ZM1035.49 453.843C1035.48 508.71 1020.83 565.491 989.079 610.666C980.571 622.745 970.937 635.456 957.26 641.841C933.329 652.958 904.031 648.754 878.796 642.49C837.21 577.862 794.828 541.263 794.828 541.263C794.828 541.263 768.829 517.509 729.512 527.687C729.361 527.717 729.187 527.783 729.036 527.813C727.135 528.317 725.216 528.887 723.254 529.56C723.254 529.56 643.128 549.338 525.343 622.788L521.197 625.366L517.02 627.95C399.229 701.369 346.183 764.612 346.183 764.612C314.218 796.629 325.211 834.07 325.211 834.07C325.211 834.07 336.333 876.553 366.448 931.955C350.344 924.904 334.921 915.777 320.799 905.798C302.714 893.041 286.658 877.441 273.858 859.346C268.979 852.436 264.996 845.785 261.764 839.141C254.618 822.266 250.896 804.365 250.578 785.504C251.229 750.936 263.447 716.503 279.475 686.284C290.932 664.671 311.522 648.714 331.19 635.037C376.58 603.535 429.898 581.684 467.986 540.533C485.613 521.475 496.445 497.985 497.896 471.984C499.584 441.526 499.918 411.493 505.071 381.314C513.528 331.928 534.849 286.36 577.428 257.859C601.435 241.784 629.677 232.999 657.737 227.221C691.025 220.37 726.572 216.542 760.102 223.468C808.891 233.517 835.59 272.396 870.787 303.232C887.271 317.684 906.416 327.289 928.117 330.723C948.651 333.951 969.867 326.472 989.079 336.251C1028.75 356.436 1035.51 415.147 1035.49 453.843Z" fill="#161616"/>
</g>
<defs>
<filter id="filter0_d" x="0.716431" y="0.99408" width="1287.57" height="1253.01" filterUnits="userSpaceOnUse" color-interpolation-filters="sRGB">
<feFlood flood-opacity="0" result="BackgroundImageFix"/>
<feColorMatrix in="SourceAlpha" type="matrix" values="0 0 0 0 0 0 0 0 0 0 0 0 0 0 0 0 0 0 127 0"/>
<feOffset dy="4"/>
<feGaussianBlur stdDeviation="75"/>
<feColorMatrix type="matrix" values="0 0 0 0 0 0 0 0 0 0 0 0 0 0 0 0 0 0 0.25 0"/>
<feBlend mode="normal" in2="BackgroundImageFix" result="effect1_dropShadow"/>
<feBlend mode="normal" in="SourceGraphic" in2="effect1_dropShadow" result="shape"/>
</filter>
</defs>
</svg>
