<svg width="1045" height="1058" viewBox="0 0 1045 1058" fill="none" xmlns="http://www.w3.org/2000/svg">
<g filter="url(#filter0_d)">
<path d="M819.338 720.676C827.041 709.735 830.31 696.43 826.032 683.543C819.636 664.296 813.24 648.218 816.618 627.475C822.191 593.411 847.998 566.673 853.824 532.382C857.745 509.283 851.974 486.048 843.078 464.81C833.206 441.234 820.558 418.445 803.993 398.898C778.229 368.473 742.646 354.099 703.173 354.723C681.567 355.062 660.127 359.485 639.27 364.832C617.658 370.391 597.596 379.246 574.867 376.127C533.299 370.433 499.726 335.168 469.409 309.22C453.893 295.931 437.844 282.808 419.507 273.584C397.945 262.726 371.957 261.845 348.34 263.355C336.877 264.092 325.316 266.386 314.128 270.052C296.784 274.902 281.625 283.014 268.734 294.341C267.637 295.294 266.596 296.296 265.555 297.298C260.781 301.437 256.299 305.846 252.239 310.616C231.82 334.533 221.828 366.306 218.077 397.093C217.656 400.528 217.3 403.981 217.074 407.469C199.876 427.258 182.062 451.385 166.694 479.664C153.647 503.671 158.133 520.619 172.525 533.182C173.384 533.922 174.263 534.651 175.183 535.356C175.383 535.515 175.604 535.663 175.804 535.822C176.524 536.368 177.245 536.913 178.018 537.456C178.339 537.683 178.68 537.899 179.021 538.114C179.695 538.578 180.356 539.02 181.071 539.46C181.457 539.705 181.895 539.947 182.28 540.192C182.951 540.602 183.61 540.992 184.301 541.39C184.739 541.632 185.21 541.883 185.648 542.125C186.328 542.503 187.007 542.881 187.708 543.247C188.178 543.498 188.67 543.737 189.128 543.968C189.829 544.334 190.549 544.688 191.258 545.022C191.738 545.24 192.229 545.48 192.741 545.707C193.483 546.05 194.236 546.413 194.998 546.744C195.478 546.962 195.966 547.149 196.446 547.367C197.252 547.728 198.067 548.056 198.894 548.404C199.362 548.602 199.818 548.78 200.306 548.966C201.186 549.312 202.045 549.669 202.945 550.003C203.369 550.172 203.814 550.328 204.258 550.485C205.191 550.828 206.135 551.191 207.089 551.523C207.501 551.67 207.901 551.798 208.313 551.945C209.331 552.294 210.349 552.643 211.367 552.992C211.735 553.111 212.082 553.241 212.439 553.338C213.542 553.693 214.646 554.048 215.749 554.403C216.052 554.504 216.376 554.592 216.679 554.693C217.868 555.054 219.057 555.415 220.258 555.797C220.517 555.868 220.755 555.95 221.014 556.021C222.288 556.388 223.563 556.755 224.869 557.131C225.064 557.184 225.258 557.238 225.452 557.291C226.812 557.664 228.171 558.037 229.531 558.41C229.661 558.446 229.811 558.469 229.952 558.525C231.376 558.916 232.81 559.275 234.255 559.654C234.287 559.663 234.32 559.671 234.352 559.68C242.372 561.724 250.66 563.614 258.955 565.42C259.299 565.497 259.664 565.562 260.008 565.639C260.997 565.841 261.966 566.054 262.955 566.256C263.729 566.416 264.515 566.597 265.289 566.757C266.03 566.908 266.751 567.071 267.493 567.223C268.579 567.451 269.665 567.679 270.751 567.908C270.902 567.931 271.064 567.976 271.214 567.999C294.537 572.883 317.201 577.377 334.44 583.185C337.624 584.268 340.64 585.391 343.415 586.57C346.548 587.899 349.408 589.276 351.943 590.754C354.073 592 356.026 593.319 357.705 594.685L357.749 594.714C359.408 596.092 361.039 597.757 362.682 599.635C364.598 601.849 366.49 604.405 368.376 607.237C370.053 609.751 371.7 612.5 373.347 615.441C377.228 622.353 381.049 630.311 384.863 638.928C396.26 664.559 407.739 695.852 421.041 721.901C421.088 721.984 421.147 722.087 421.194 722.169C422.312 724.373 423.46 726.533 424.616 728.66C424.675 728.763 424.734 728.866 424.792 728.97C436.388 750.199 449.428 766.865 464.933 772.267C465.03 772.294 465.139 772.341 465.236 772.368C466.308 772.714 467.388 773.027 468.465 773.288C468.53 773.306 468.594 773.324 468.639 773.353C479.776 775.834 492.145 772.561 506.158 761.141C525.262 745.566 541.669 729.041 555.63 712.925C557.655 731.93 562.49 751.601 575.693 765.578C584.376 774.783 598.78 778.491 610.428 781.773C653.072 793.819 700.507 787.843 741.546 772.698C769.558 762.403 801.811 745.595 819.338 720.676ZM272.347 477.44C265.901 466.934 261.512 453.756 260.808 437.167C260.829 437.155 280.724 431.509 301.2 436.621C324.304 442.367 348.195 461.731 345.383 518.204C345.372 518.184 295.558 515.327 272.347 477.44ZM435.251 592.704C502.464 576.559 522.559 609.884 528.388 635.38C531.56 649.252 530.526 660.821 530.526 660.821C521.464 662.129 513.214 662.128 505.707 661.131C450.48 653.9 435.251 592.704 435.251 592.704ZM742.189 770.228C701.895 783.611 656.623 786.717 615.699 774.429C604.751 771.13 593.065 767.159 585.038 758.674C571.032 743.814 566.967 721.274 565.407 701.213C602.713 654.899 619.243 614.842 619.243 614.842C619.243 614.842 630.34 589.951 613.267 563.564C613.208 563.461 613.117 563.349 613.058 563.246C612.224 561.972 611.337 560.702 610.365 559.426C610.365 559.426 576.28 505.415 493.59 436.852L490.685 434.437L487.768 432C405.098 363.426 345.708 339.911 345.708 339.911C314.393 324.254 289.583 341.467 289.583 341.467C289.583 341.467 261.101 360.005 227.769 395.644C229.016 382.097 231.953 368.543 235.834 355.736C240.786 339.342 248.323 323.743 258.485 309.927C262.369 304.657 266.28 300.108 270.371 296.113C281.018 286.746 293.254 279.643 307.027 274.805C332.571 266.844 360.838 267.411 386.942 271.804C405.61 274.941 422.354 286.165 437.199 297.269C471.412 322.911 500.474 356.729 539.991 374.653C558.288 382.945 578.183 385.165 597.63 379.882C620.409 373.687 642.544 366.601 665.963 363.017C704.294 357.172 742.96 361.704 774.284 386.014C791.949 399.719 805.295 418.313 816.388 437.508C829.544 460.28 841.034 485.449 844.133 511.762C848.664 550.042 826.631 579.139 812.58 612.513C805.991 628.145 803.612 644.55 806.388 661.324C809.03 677.19 819.701 690.944 817.21 707.439C812.073 741.501 770.609 760.794 742.189 770.228Z" fill="#161616"/>
</g>
<defs>
<filter id="filter0_d" x="0" y="0" width="1044.31" height="1057.05" filterUnits="userSpaceOnUse" color-interpolation-filters="sRGB">
<feFlood flood-opacity="0" result="BackgroundImageFix"/>
<feColorMatrix in="SourceAlpha" type="matrix" values="0 0 0 0 0 0 0 0 0 0 0 0 0 0 0 0 0 0 127 0"/>
<feOffset dy="4"/>
<feGaussianBlur stdDeviation="45"/>
<feColorMatrix type="matrix" values="0 0 0 0 0 0 0 0 0 0 0 0 0 0 0 0 0 0 0.25 0"/>
<feBlend mode="normal" in2="BackgroundImageFix" result="effect1_dropShadow"/>
<feBlend mode="normal" in="SourceGraphic" in2="effect1_dropShadow" result="shape"/>
</filter>
</defs>
</svg>
