<svg width="902" height="983" viewBox="0 0 902 983" fill="none" xmlns="http://www.w3.org/2000/svg">
<g filter="url(#filter0_d)">
<path d="M798.786 279.185C791.425 263.54 778.573 251.361 761.366 247.925C735.663 242.802 713.518 239.704 692.385 222.648C657.695 194.609 644.168 148.533 609.386 120.065C585.953 100.892 556.17 92.5174 526.633 88.9283C493.845 84.9403 460.167 84.5722 427.624 90.6768C376.984 100.156 338.092 130.925 313.554 175.651C300.12 200.131 291.378 227.035 284.048 253.877C276.472 281.7 273.588 309.892 255.553 333.421C222.581 376.461 161.513 391.615 112.989 409.07C88.145 417.997 63.1473 427.629 41.0634 442.323C15.0842 459.594 -2.52162 488.216 -15.9253 515.702C-22.4278 529.046 -27.2433 543.495 -30.2798 558.404C-35.9235 580.982 -36.5063 603.192 -32.0282 624.911C-31.6601 626.751 -31.2 628.561 -30.7399 630.371C-29.145 638.378 -27.0593 646.231 -24.2988 653.839C-10.4964 692.062 18.7955 723.598 50.9705 747.495C54.5591 750.164 58.2091 752.771 61.9818 755.256C73.2077 787.221 88.9118 822.653 110.842 857.992C129.46 887.994 151.36 893.792 174.671 885.663C176.051 885.172 177.431 884.65 178.812 884.067C179.118 883.945 179.425 883.791 179.732 883.669C180.805 883.208 181.879 882.748 182.983 882.227C183.443 882.012 183.903 881.767 184.363 881.521C185.314 881.061 186.234 880.601 187.185 880.079C187.707 879.803 188.259 879.466 188.78 879.19C189.67 878.699 190.528 878.208 191.418 877.687C191.97 877.349 192.553 876.981 193.105 876.644C193.964 876.122 194.822 875.601 195.681 875.048C196.264 874.68 196.847 874.282 197.399 873.913C198.258 873.361 199.117 872.778 199.945 872.195C200.497 871.797 201.08 871.398 201.662 870.968C202.521 870.355 203.411 869.741 204.27 869.097C204.822 868.698 205.343 868.269 205.895 867.87C206.815 867.195 207.705 866.49 208.625 865.784C209.146 865.385 209.637 864.986 210.159 864.557C211.109 863.79 212.06 863.054 213.011 862.256C213.471 861.888 213.931 861.489 214.391 861.09C215.373 860.262 216.385 859.434 217.366 858.575C217.796 858.207 218.195 857.839 218.624 857.471C219.667 856.55 220.71 855.63 221.753 854.71C222.121 854.372 222.489 854.066 222.826 853.728C223.93 852.716 225.034 851.703 226.139 850.691C226.445 850.415 226.752 850.108 227.059 849.832C228.224 848.728 229.39 847.623 230.586 846.519C230.832 846.274 231.077 846.059 231.322 845.814C232.549 844.617 233.776 843.421 235.034 842.194C235.218 842.01 235.402 841.826 235.586 841.641C236.874 840.353 238.162 839.065 239.45 837.776C239.573 837.654 239.696 837.5 239.849 837.377C241.199 836.028 242.518 834.647 243.867 833.267C243.898 833.236 243.929 833.205 243.959 833.175C251.382 825.475 258.804 817.376 266.135 809.216C266.442 808.879 266.749 808.511 267.055 808.173C267.914 807.192 268.773 806.241 269.632 805.259C270.306 804.492 271.012 803.725 271.687 802.958C272.331 802.222 272.975 801.516 273.619 800.78C274.57 799.706 275.521 798.633 276.472 797.559C276.594 797.406 276.748 797.252 276.87 797.099C297.267 774.03 316.805 751.452 334.35 735.807C337.601 732.923 340.791 730.255 343.889 727.892C347.385 725.224 350.759 722.892 354.041 720.99C356.802 719.395 359.532 718.045 362.139 717.033L362.2 717.002C364.807 716.021 367.721 715.254 370.88 714.609C374.592 713.873 378.671 713.382 383.057 713.076C386.952 712.799 391.093 712.707 395.449 712.738C405.693 712.799 417.072 713.597 429.188 714.824C465.258 718.413 507.739 725.53 545.496 727.248C545.619 727.248 545.772 727.248 545.895 727.248C549.085 727.402 552.244 727.494 555.373 727.555C555.526 727.555 555.679 727.555 555.833 727.555C587.088 728.107 614.14 724.119 630.121 710.161C630.213 710.069 630.335 709.977 630.427 709.885C631.501 708.904 632.544 707.891 633.525 706.848C633.587 706.787 633.648 706.726 633.709 706.695C643.616 695.774 647.849 679.791 643.984 656.753C638.709 625.34 630.642 596.351 621.471 570.368C644.107 580.246 669.289 587.393 693.428 581.503C709.316 577.638 722.689 563.834 733.823 552.851C774.617 512.665 798.234 455.576 807.467 399.806C813.816 361.767 815.564 314.801 798.786 279.185ZM175.898 737.924C159.979 738.445 142.373 734.948 123.295 725.132C123.295 725.101 129.675 699.148 148.508 679.423C169.733 657.152 206.754 642.703 268.374 681.969C268.343 681.969 233.285 736.083 175.898 737.924ZM409.496 628.684C434.341 542.881 484.612 541.624 516.971 551.379C534.577 556.686 546.907 565.245 546.907 565.245C542.582 576.258 537.307 585.522 531.387 593.314C487.955 650.71 409.496 628.684 409.496 628.684ZM805.105 397.505C794.37 451.312 768.912 504.137 728.946 542.237C718.241 552.422 706.31 563.005 691.649 566.595C666.007 572.822 638.095 562.975 614.57 551.9C586.413 480.393 551.999 436.219 551.999 436.219C551.999 436.219 531.142 407.843 490.593 410.144C490.44 410.144 490.256 410.174 490.103 410.174C488.14 410.297 486.146 410.481 484.091 410.757C484.091 410.757 401.644 414.5 271.779 463.521L267.209 465.239L262.608 466.957C132.742 515.947 68.3615 567.607 68.3615 567.607C30.7576 592.762 34.2235 631.629 34.2235 631.629C34.2235 631.629 36.8307 675.466 55.5406 735.684C41.1247 725.622 27.7824 713.658 15.8816 701.112C0.637604 685.068 -12.0606 666.631 -21.0782 646.385C-24.5135 638.654 -27.1206 631.353 -28.9916 624.205C-32.7029 606.259 -32.8563 587.976 -29.4824 569.417C-22.0904 535.642 -3.38044 504.26 18.2434 477.755C33.7021 458.797 57.0129 447.17 78.9741 437.599C129.644 415.573 186.204 404.56 231.598 371.644C252.609 356.398 267.822 335.477 274.325 310.26C281.931 280.719 288.127 251.331 299.077 222.74C317.02 175.958 346.833 135.434 394.16 115.801C420.845 104.727 450.26 101.628 478.907 101.444C512.892 101.23 548.502 104.42 580.033 117.764C625.918 137.152 644.506 180.498 673 217.617C686.343 235.011 703.243 248.171 723.854 255.779C743.362 262.957 765.63 259.767 782.561 273.111C817.527 300.659 812.681 359.558 805.105 397.505Z" fill="#161616"/>
</g>
<defs>
<filter id="filter0_d" x="-125" y="0" width="1027" height="983" filterUnits="userSpaceOnUse" color-interpolation-filters="sRGB">
<feFlood flood-opacity="0" result="BackgroundImageFix"/>
<feColorMatrix in="SourceAlpha" type="matrix" values="0 0 0 0 0 0 0 0 0 0 0 0 0 0 0 0 0 0 127 0"/>
<feOffset dy="4"/>
<feGaussianBlur stdDeviation="45"/>
<feColorMatrix type="matrix" values="0 0 0 0 0 0 0 0 0 0 0 0 0 0 0 0 0 0 0.25 0"/>
<feBlend mode="normal" in2="BackgroundImageFix" result="effect1_dropShadow"/>
<feBlend mode="normal" in="SourceGraphic" in2="effect1_dropShadow" result="shape"/>
</filter>
</defs>
</svg>
