<svg width="9" height="18" viewBox="0 0 9 18" fill="none" xmlns="http://www.w3.org/2000/svg">
<path d="M0.138807 9.35883L8.1761 17.8501C8.36534 18.05 8.66883 18.05 8.85807 17.8501C9.04731 17.6501 9.04731 17.3295 8.85807 17.1296L1.16355 9.00047L8.85807 0.871378C9.04731 0.671452 9.04731 0.350815 8.85807 0.150888C8.76524 0.0528106 8.64027 -3.14488e-08 8.51887 -4.20618e-08C8.39747 -5.26748e-08 8.2725 0.0490379 8.17967 0.150888L0.142377 8.64211C-0.0468618 8.83827 -0.0468609 9.16268 0.138807 9.35883Z" fill="white" fill-opacity="0.5"/>
<path d="M0.138807 9.35883L8.1761 17.8501C8.36534 18.05 8.66883 18.05 8.85807 17.8501C9.04731 17.6501 9.04731 17.3295 8.85807 17.1296L1.16355 9.00047L8.85807 0.871378C9.04731 0.671452 9.04731 0.350815 8.85807 0.150888C8.76524 0.0528106 8.64027 -3.14488e-08 8.51887 -4.20618e-08C8.39747 -5.26748e-08 8.2725 0.0490379 8.17967 0.150888L0.142377 8.64211C-0.0468618 8.83827 -0.0468609 9.16268 0.138807 9.35883Z" fill="url(#paint0_linear)"/>
<defs>
<linearGradient id="paint0_linear" x1="9" y1="18" x2="-0.435017" y2="17.769" gradientUnits="userSpaceOnUse">
<stop stop-color="#E46857"/>
<stop offset="0.0001" stop-color="#FF8372"/>
<stop offset="1" stop-color="#F35050"/>
</linearGradient>
</defs>
</svg>
