<svg width="23" height="19" viewBox="0 0 23 19" fill="none" xmlns="http://www.w3.org/2000/svg">
<path d="M22.2348 2.82034C21.7757 2.33935 21.1416 2.05513 20.4202 2.05513H16.7909V2.01141C16.7909 1.46483 16.5722 0.940113 16.2006 0.590304C15.8289 0.218631 15.326 0 14.7795 0H8.22053C7.65209 0 7.14924 0.218631 6.77757 0.590304C6.40589 0.961976 6.18726 1.46483 6.18726 2.01141V2.05513H2.57985C1.85837 2.05513 1.22433 2.33935 0.765209 2.82034C0.306084 3.27947 0 3.93536 0 4.63498V15.5228C0 16.2443 0.284221 16.8783 0.765209 17.3374C1.22433 17.7966 1.88023 18.1026 2.57985 18.1026H20.4202C21.1416 18.1026 21.7757 17.8184 22.2348 17.3374C22.6939 16.8783 23 16.2224 23 15.5228V4.63498C23 3.9135 22.7158 3.27947 22.2348 2.82034ZM21.8631 15.5228H21.8413C21.8413 15.9163 21.6882 16.2661 21.4259 16.5285C21.1635 16.7909 20.8137 16.9439 20.4202 16.9439H2.57985C2.18631 16.9439 1.8365 16.7909 1.57414 16.5285C1.31179 16.2661 1.15875 15.9163 1.15875 15.5228V4.63498C1.15875 4.24144 1.31179 3.89163 1.57414 3.62927C1.8365 3.36692 2.18631 3.21388 2.57985 3.21388H6.79943C7.12738 3.21388 7.38973 2.95152 7.38973 2.62357V1.98954C7.38973 1.74905 7.47719 1.53042 7.63023 1.37738C7.78327 1.22433 8.0019 1.13688 8.2424 1.13688H14.7795C15.02 1.13688 15.2386 1.22433 15.3916 1.37738C15.5447 1.53042 15.6321 1.74905 15.6321 1.98954V2.62357C15.6321 2.95152 15.8945 3.21388 16.2224 3.21388H20.442C20.8356 3.21388 21.1854 3.36692 21.4477 3.62927C21.7101 3.89163 21.8631 4.24144 21.8631 4.63498V15.5228Z" fill="url(#paint0_linear)"/>
<path d="M11.4999 4.70057C10.0132 4.70057 8.65771 5.31274 7.69573 6.27472C6.71189 7.25856 6.12158 8.5922 6.12158 10.0789C6.12158 11.5656 6.73375 12.9211 7.69573 13.8831C8.67957 14.8669 10.0132 15.4572 11.4999 15.4572C12.9866 15.4572 14.3421 14.8451 15.3041 13.8831C16.2879 12.8992 16.8782 11.5656 16.8782 10.0789C16.8782 8.5922 16.2661 7.23669 15.3041 6.27472C14.3421 5.31274 12.9866 4.70057 11.4999 4.70057ZM14.4733 13.0741C13.7081 13.8175 12.6587 14.2985 11.4999 14.2985C10.3412 14.2985 9.29174 13.8175 8.52653 13.0741C7.76132 12.3089 7.30219 11.2595 7.30219 10.1008C7.30219 8.94202 7.78318 7.89259 8.52653 7.12738C9.29174 6.36217 10.3412 5.90304 11.4999 5.90304C12.6587 5.90304 13.7081 6.38403 14.4733 7.12738C15.2385 7.89259 15.6976 8.94202 15.6976 10.1008C15.7195 11.2595 15.2385 12.3089 14.4733 13.0741Z" fill="url(#paint1_linear)"/>
<path d="M19.2832 6.82129C19.8749 6.82129 20.3545 6.34166 20.3545 5.75C20.3545 5.15834 19.8749 4.67871 19.2832 4.67871C18.6915 4.67871 18.2119 5.15834 18.2119 5.75C18.2119 6.34166 18.6915 6.82129 19.2832 6.82129Z" fill="url(#paint2_linear)"/>
<defs>
<linearGradient id="paint0_linear" x1="0" y1="0" x2="24.0331" y2="1.49509" gradientUnits="userSpaceOnUse">
<stop stop-color="#E46857"/>
<stop offset="0.0001" stop-color="#FF8372"/>
<stop offset="1" stop-color="#F35050"/>
</linearGradient>
<linearGradient id="paint1_linear" x1="6.12158" y1="4.70057" x2="17.3779" y2="5.25172" gradientUnits="userSpaceOnUse">
<stop stop-color="#E46857"/>
<stop offset="0.0001" stop-color="#FF8372"/>
<stop offset="1" stop-color="#F35050"/>
</linearGradient>
<linearGradient id="paint2_linear" x1="18.2119" y1="4.67871" x2="20.454" y2="4.78849" gradientUnits="userSpaceOnUse">
<stop stop-color="#E46857"/>
<stop offset="0.0001" stop-color="#FF8372"/>
<stop offset="1" stop-color="#F35050"/>
</linearGradient>
</defs>
</svg>
