<svg width="10" height="13" viewBox="0 0 10 13" fill="none" xmlns="http://www.w3.org/2000/svg">
<path d="M10 5.2C10 3.77283 9.44293 2.47283 8.54619 1.51196C7.64946 0.579348 6.39946 0 5 0C3.60054 0 2.37772 0.579348 1.4538 1.51196C0.557065 2.44457 0 3.74457 0 5.2C0 6.71196 0.557065 8.09674 1.4538 9.1L5 13L8.54619 9.1C9.44293 8.09674 10 6.71196 10 5.2ZM5 7.10761C3.87228 7.10761 2.96196 6.16087 2.96196 4.98804C2.96196 3.81522 3.87228 2.86848 5 2.86848C6.12772 2.86848 7.03804 3.81522 7.03804 4.98804C7.03804 6.16087 6.12772 7.10761 5 7.10761Z" fill="black"/>
<path d="M10 5.2C10 3.77283 9.44293 2.47283 8.54619 1.51196C7.64946 0.579348 6.39946 0 5 0C3.60054 0 2.37772 0.579348 1.4538 1.51196C0.557065 2.44457 0 3.74457 0 5.2C0 6.71196 0.557065 8.09674 1.4538 9.1L5 13L8.54619 9.1C9.44293 8.09674 10 6.71196 10 5.2ZM5 7.10761C3.87228 7.10761 2.96196 6.16087 2.96196 4.98804C2.96196 3.81522 3.87228 2.86848 5 2.86848C6.12772 2.86848 7.03804 3.81522 7.03804 4.98804C7.03804 6.16087 6.12772 7.10761 5 7.10761Z" fill="white" fill-opacity="0.8"/>
<path d="M10 5.2C10 3.77283 9.44293 2.47283 8.54619 1.51196C7.64946 0.579348 6.39946 0 5 0C3.60054 0 2.37772 0.579348 1.4538 1.51196C0.557065 2.44457 0 3.74457 0 5.2C0 6.71196 0.557065 8.09674 1.4538 9.1L5 13L8.54619 9.1C9.44293 8.09674 10 6.71196 10 5.2ZM5 7.10761C3.87228 7.10761 2.96196 6.16087 2.96196 4.98804C2.96196 3.81522 3.87228 2.86848 5 2.86848C6.12772 2.86848 7.03804 3.81522 7.03804 4.98804C7.03804 6.16087 6.12772 7.10761 5 7.10761Z" fill="url(#paint0_linear)"/>
<defs>
<linearGradient id="paint0_linear" x1="5.27777" y1="-4.07207e-06" x2="4.97734" y2="12.855" gradientUnits="userSpaceOnUse">
<stop stop-color="#E46857"/>
<stop offset="0.0001" stop-color="#FF8372"/>
<stop offset="1" stop-color="#F35050"/>
</linearGradient>
</defs>
</svg>
