<svg width="17" height="16" viewBox="0 0 17 16" fill="none" xmlns="http://www.w3.org/2000/svg">
<path d="M12.6365 9.30618L12.4486 9.48959L12.4929 9.74838L13.2456 14.1437C13.2456 14.1438 13.2456 14.1439 13.2456 14.144C13.2456 14.144 13.2456 14.144 13.2456 14.1441C13.2674 14.2727 13.2142 14.4038 13.1082 14.4813C13.0489 14.5244 12.978 14.5467 12.9069 14.5467C12.8527 14.5467 12.7979 14.5337 12.7474 14.5071L8.80477 12.4319L8.57188 12.3093L8.339 12.4319L4.39631 14.5072L4.39596 14.5073C4.28153 14.5677 4.14181 14.5583 4.03484 14.4816C3.92955 14.4043 3.87682 14.274 3.89894 14.1451L3.89896 14.1449L4.65209 9.74927L4.69644 9.49043L4.5085 9.30701L1.31853 6.1937L1.31779 6.19298C1.22523 6.10302 1.19068 5.96675 1.23093 5.84038C1.27186 5.71579 1.37904 5.62579 1.50811 5.60693L5.91586 4.96515L6.17599 4.92727L6.29225 4.69152L8.26465 0.692074L8.26536 0.690625C8.32237 0.574095 8.44106 0.5 8.57146 0.5C8.70203 0.5 8.82052 0.573606 8.87863 0.69152L8.8787 0.691651L10.8511 4.6911L10.9674 4.92686L11.2275 4.96473L15.6363 5.60655L15.6365 5.60658C15.765 5.62523 15.8718 5.71573 15.9111 5.83847L15.9111 5.83848L15.9123 5.84204C15.9525 5.96455 15.9193 6.1014 15.8253 6.19364C15.8252 6.19371 15.8252 6.19377 15.8251 6.19384L12.6365 9.30618Z" stroke="url(#paint0_linear)"/>
<defs>
<linearGradient id="paint0_linear" x1="0.714355" y1="0" x2="17.1556" y2="0.840756" gradientUnits="userSpaceOnUse">
<stop stop-color="#E46857"/>
<stop offset="0.0001" stop-color="#FF8372"/>
<stop offset="1" stop-color="#F35050"/>
</linearGradient>
</defs>
</svg>
