<svg width="16" height="16" viewBox="0 0 16 16" fill="none" xmlns="http://www.w3.org/2000/svg">
<path d="M15.6034 6.54288L12.4143 9.65185L13.167 14.042C13.2209 14.3581 13.0903 14.678 12.8311 14.8668C12.6844 14.9734 12.51 15.0278 12.3355 15.0278C12.2015 15.0278 12.0666 14.9957 11.9431 14.9308L8.00041 12.8582L4.05772 14.9308C3.77366 15.0804 3.42976 15.0552 3.16972 14.8676C2.91053 14.6788 2.7803 14.3594 2.83467 14.0429L3.5878 9.6527L0.397826 6.5433C0.167291 6.31951 0.0855296 5.98447 0.183728 5.67935C0.283191 5.37422 0.546599 5.15212 0.864374 5.10576L5.27235 4.46475L7.24475 0.470329C7.38593 0.182063 7.67926 0 7.99999 0C8.32156 0 8.61362 0.182063 8.75565 0.469907L10.7281 4.46433L15.1369 5.10534C15.4538 5.15128 15.7181 5.3738 15.8158 5.67892C15.9161 5.98405 15.8323 6.31909 15.6034 6.54288Z" fill="url(#paint0_linear)"/>
<defs>
<linearGradient id="paint0_linear" x1="0.142883" y1="0" x2="16.584" y2="0.841808" gradientUnits="userSpaceOnUse">
<stop stop-color="#E46857"/>
<stop offset="0.0001" stop-color="#FF8372"/>
<stop offset="1" stop-color="#F35050"/>
</linearGradient>
</defs>
</svg>
