<svg width="20" height="21" viewBox="0 0 20 21" fill="none" xmlns="http://www.w3.org/2000/svg">
<path d="M7.99832 7.61927C8.21508 7.45851 8.359 7.21694 8.39849 6.94784C8.43797 6.67874 8.3704 6.40519 8.20981 6.1876L7.14622 4.74084C7.02161 4.57121 6.83381 4.4593 6.62671 4.43177C6.41961 4.40424 6.20987 4.46197 6.0449 4.59252C5.84832 4.74883 5.62894 4.92291 5.42096 5.08721C4.90935 5.49042 4.71628 6.18227 4.94269 6.79686C6.19145 10.1886 8.81708 12.8779 12.1456 14.1852C12.8301 14.4543 13.6076 14.1763 13.9709 13.5298L14.3799 12.8033C14.5808 12.4462 14.4755 11.9933 14.1385 11.7642L12.838 10.8796C12.6107 10.7251 12.3308 10.6709 12.0623 10.7295C11.7946 10.7881 11.5612 10.9542 11.4164 11.1904C11.3743 11.2597 11.333 11.3281 11.2944 11.3911C11.2409 11.4791 11.154 11.5412 11.0548 11.5643C10.9548 11.5865 10.8504 11.5679 10.7652 11.511C9.51736 10.6833 8.45026 9.60246 7.63502 8.33776C7.52444 8.16635 7.56657 7.93722 7.73155 7.81732C7.81404 7.75604 7.9053 7.68854 7.99832 7.61927Z" fill="white"/>
<path d="M14.8195 9.48686C14.6045 9.48686 14.4299 9.31012 14.4299 9.09253C14.4299 6.49919 12.3448 4.389 9.78236 4.389C9.56736 4.389 9.39273 4.21226 9.39273 3.99467C9.39273 3.77708 9.56736 3.60034 9.78236 3.60034C12.7739 3.60034 15.2083 6.06401 15.2083 9.09164C15.2083 9.31101 15.0345 9.48686 14.8195 9.48686Z" fill="white"/>
<path d="M13.5998 9.48706C13.3848 9.48706 13.2101 9.31032 13.2101 9.09273C13.2101 7.1797 11.6727 5.62459 9.78329 5.62459C9.56829 5.62459 9.39365 5.44786 9.39365 5.23027C9.39365 5.01267 9.56829 4.83594 9.78329 4.83594C12.1027 4.83594 13.9894 6.74541 13.9894 9.09273C13.9885 9.31121 13.8148 9.48706 13.5998 9.48706Z" fill="white"/>
<path d="M12.401 9.48693C12.186 9.48693 12.0113 9.31019 12.0113 9.0926C12.0113 7.84833 11.0118 6.83675 9.78236 6.83675C9.56736 6.83675 9.39273 6.66002 9.39273 6.44242C9.39273 6.22483 9.56736 6.0481 9.78236 6.0481C11.4409 6.0481 12.7897 7.41404 12.7897 9.09171C12.7906 9.31108 12.616 9.48693 12.401 9.48693Z" fill="white"/>
<path d="M19.625 7.14588C19.625 3.19904 16.4641 0 12.5651 0H7.56571C3.54741 0 0.289062 3.29762 0.289062 7.36436V10.5412C0.289062 13.679 2.22933 16.3567 4.96114 17.418V19.9136C4.96114 20.2094 5.14542 20.4776 5.41834 20.5806C5.4982 20.6108 5.58069 20.625 5.66318 20.625C5.86414 20.625 6.06071 20.538 6.19673 20.3799L8.31689 17.9056H12.5651C16.4649 17.9056 19.6259 14.7065 19.6259 10.7597L19.625 7.14588ZM17.9813 10.7597C17.9813 13.7829 15.5514 16.2421 12.5642 16.2421H8.79954L5.89748 19.6569C5.85975 19.7013 5.79832 19.7173 5.74391 19.6969C5.68951 19.6765 5.65353 19.6241 5.65353 19.5655C5.65353 18.8381 5.65353 17.2039 5.65353 15.9037C3.48598 15.1097 1.93359 13.0057 1.93359 10.5421V7.36436C1.93359 4.22038 4.46094 1.66346 7.56659 1.66346H12.5651C15.5523 1.66346 17.9822 4.12269 17.9822 7.14588L17.9813 10.7597Z" fill="white"/>
</svg>
