<svg width="21" height="22" viewBox="0 0 21 22" fill="none" xmlns="http://www.w3.org/2000/svg">
<path d="M19.0313 6.53606V2.75H17.7188V6.45769C16.0657 6.83375 12.075 8.02519 10.5 11.0275C8.92502 8.02519 4.93437 6.83375 3.28127 6.45769V2.75H1.96877V6.53606C-0.39377 9.04612 -0.65225 12.9876 1.36043 15.8125H1.31252V22H19.6875V15.8125H19.6396C21.6523 12.9876 21.3938 9.04612 19.0313 6.53606ZM18.3094 7.73575C18.6465 8.13502 18.9284 8.58189 19.1468 9.06331C16.1385 9.63673 13.3648 11.1461 11.1871 13.3946C11.4995 9.42631 16.9031 8.03 18.3094 7.73575ZM11.1563 15.4C13.3208 12.7597 16.2948 10.9907 19.5681 10.3964C20.182 13.5005 18.2777 16.5383 15.3146 17.1815C13.8758 17.4938 12.3775 17.1875 11.1563 16.3316V15.4ZM2.69065 7.73575C4.09633 8.03 9.4999 9.42631 9.81293 13.3952C7.6352 11.1467 4.86152 9.63742 1.85327 9.064C2.07164 8.58232 2.3535 8.13523 2.69065 7.73575ZM1.43196 10.3936C4.70587 10.9881 7.68007 12.7582 9.84377 15.4V16.335C7.32931 18.0986 3.9262 17.3928 2.24276 14.7586C1.42363 13.4769 1.1314 11.9037 1.43196 10.3936ZM18.375 20.625H2.62502V17.1669C4.91209 19.0214 8.06579 19.1673 10.5 17.5312C12.9334 19.1707 16.0891 19.0247 18.375 17.1669V20.625Z" fill="white"/>
<path d="M19.0312 0H17.7188V1.375H19.0312V0Z" fill="white"/>
<path d="M3.28125 0H1.96875V1.375H3.28125V0Z" fill="white"/>
</svg>
