<svg width="21" height="21" viewBox="0 0 21 21" fill="none" xmlns="http://www.w3.org/2000/svg">
<g clip-path="url(#clip0)">
<path d="M17.9246 3.07535C15.9415 1.09216 13.3046 0 10.5 0C7.69535 0 5.05854 1.09216 3.07535 3.07535C1.09221 5.05854 0 7.69535 0 10.5C0 13.3046 1.09221 15.9415 3.07535 17.9246C5.05854 19.9078 7.69535 21 10.5 21C13.3046 21 15.9415 19.9078 17.9246 17.9246C19.9078 15.9415 21 13.3046 21 10.5C21 7.69535 19.9078 5.05854 17.9246 3.07535ZM10.5 19.7695C5.38876 19.7695 1.23047 15.6112 1.23047 10.5C1.23047 5.38876 5.38876 1.23047 10.5 1.23047C15.6112 1.23047 19.7695 5.38876 19.7695 10.5C19.7695 15.6112 15.6112 19.7695 10.5 19.7695Z" fill="white" stroke="white" stroke-width="0.25"/>
<path d="M11.159 9.88468H9.84099C9.09012 9.88468 8.47927 9.27383 8.47927 8.523C8.47927 7.77212 9.09016 7.16128 9.84099 7.16128H12.4769C12.8167 7.16128 13.0922 6.88582 13.0922 6.54604C13.0922 6.20627 12.8167 5.93081 12.4769 5.93081H11.1152V4.56909C11.1152 4.22932 10.8398 3.95386 10.5 3.95386C10.1602 3.95386 9.88476 4.22932 9.88476 4.56909V5.93081H9.84103C8.41168 5.93081 7.24884 7.09369 7.24884 8.523C7.24884 9.95231 8.41172 11.1151 9.84103 11.1151H11.159C11.9099 11.1151 12.5207 11.726 12.5207 12.4769C12.5207 13.2277 11.9099 13.8386 11.159 13.8386H8.52308C8.1833 13.8386 7.90784 14.114 7.90784 14.4538C7.90784 14.7936 8.1833 15.0691 8.52308 15.0691H9.88476V16.4308C9.88476 16.7706 10.1602 17.046 10.5 17.046C10.8398 17.046 11.1152 16.7706 11.1152 16.4308V15.0691H11.159C12.5883 15.0691 13.7511 13.9062 13.7511 12.4769C13.7511 11.0476 12.5883 9.88468 11.159 9.88468Z" fill="white" stroke="white" stroke-width="0.25"/>
</g>
<defs>
<clipPath id="clip0">
<rect width="21" height="21" fill="white" transform="matrix(1 0 0 -1 0 21)"/>
</clipPath>
</defs>
</svg>
