<svg width="23" height="23" viewBox="0 0 23 23" fill="none" xmlns="http://www.w3.org/2000/svg">
<path d="M22.3503 8.35226C22.1038 8.10597 21.7042 8.10597 21.458 8.35242L20.9485 8.86191L20.4073 8.32071L20.9168 7.81122C21.1632 7.56477 21.1632 7.16535 20.9168 6.9189C20.6703 6.67262 20.2709 6.67262 20.0246 6.9189L19.515 7.4284L18.9737 6.88719L19.4832 6.3777C19.7297 6.13125 19.7297 5.73184 19.4832 5.48539C19.2368 5.2391 18.8374 5.2391 18.5911 5.48539L18.0814 5.99488L17.5402 5.45368L18.0497 4.94402C18.2962 4.69773 18.2962 4.29816 18.0497 4.05187C17.8034 3.80542 17.4039 3.80542 17.1576 4.05187L16.6479 4.56136L16.1067 4.02016L16.6162 3.5105C16.8625 3.26422 16.8625 2.86464 16.6162 2.61819C16.3698 2.3719 15.9703 2.3719 15.7239 2.61835L15.2144 3.12785L14.6732 2.58648L15.1825 2.07699C15.429 1.8307 15.429 1.43112 15.1825 1.18484C14.9361 0.938388 14.5367 0.938388 14.2902 1.18484L13.3346 2.14041C13.3346 2.14057 13.3345 2.14073 13.3343 2.1409L11.4242 4.05105C11.4238 4.05138 11.4235 4.05154 11.4233 4.05187C11.423 4.0522 11.4229 4.05253 11.4225 4.05269L2.66929 12.8059C1.59279 13.8824 1 15.3135 1 16.8359C1 18.1458 1.43934 19.3881 2.24769 20.3951L1.18484 21.458C0.938388 21.7043 0.938388 22.1038 1.18484 22.3503C1.30806 22.4733 1.46957 22.535 1.63091 22.535C1.79242 22.535 1.95393 22.4733 2.07699 22.3503L3.13984 21.2873C4.147 22.0958 5.38927 22.5351 6.69923 22.5351C8.22147 22.5351 9.65269 21.9422 10.7292 20.8658L19.4826 12.1123C19.4827 12.1121 19.4831 12.1119 19.4832 12.1118C19.4834 12.1114 19.4836 12.1113 19.4837 12.1111L21.3942 10.2006C21.3942 10.2006 21.3945 10.2005 21.3945 10.2003L22.3503 9.24457C22.5966 8.99812 22.5966 8.59871 22.3503 8.35226ZM9.83703 19.9735C8.99878 20.8116 7.88449 21.2733 6.69923 21.2733C5.51397 21.2733 4.39969 20.8116 3.5616 19.9735C2.72351 19.1354 2.26182 18.0211 2.26182 16.8359C2.26182 15.6506 2.72351 14.5363 3.5616 13.6981L11.8694 5.39009L13.6054 7.12609L12.14 8.59131C12.0217 8.70961 11.9552 8.87013 11.9552 9.03739C11.9552 9.20464 12.0217 9.36516 12.14 9.48346L14.0515 11.3949C14.1747 11.5182 14.3361 11.5796 14.4976 11.5796C14.6591 11.5796 14.8206 11.518 14.9436 11.3949L16.409 9.92953L18.1449 11.6654L9.83703 19.9735ZM15.5167 9.03739L14.4976 10.0565L13.4784 9.03739L14.4976 8.01823L15.5167 9.03739ZM19.0372 10.7732L12.7617 4.49794L13.7809 3.47879L14.7672 4.46508C14.7677 4.46558 14.768 4.46591 14.7683 4.46623C14.7687 4.46673 14.769 4.46689 14.7695 4.46722L16.2014 5.89926C16.2015 5.89942 16.2017 5.89959 16.2018 5.89975C16.202 5.89992 16.2022 5.90008 16.2023 5.90024L17.6345 7.33245C17.6349 7.33278 17.635 7.3331 17.6354 7.33327C17.6355 7.3336 17.6359 7.33376 17.636 7.33409L19.0684 8.76629C19.0686 8.76646 19.0687 8.76662 19.0689 8.76695C19.069 8.76711 19.0692 8.76728 19.0695 8.76744L20.0563 9.75423L19.0372 10.7732Z" fill="white" stroke="white" stroke-width="0.1"/>
<path d="M8.37153 13.1809C7.84199 13.1809 7.34416 13.3871 6.96972 13.7615L5.05842 15.673C4.68398 16.0474 4.47778 16.5453 4.47778 17.0748C4.47778 17.6042 4.68398 18.102 5.05842 18.4765C5.43286 18.8509 5.93069 19.0571 6.46023 19.0571C6.9896 19.0571 7.48743 18.8509 7.86187 18.4765L9.77333 16.5652C10.1478 16.1907 10.354 15.6929 10.354 15.1633C10.354 14.6338 10.1478 14.136 9.77333 13.7615C9.39889 13.3873 8.90106 13.1809 8.37153 13.1809ZM8.88118 15.673L6.96972 17.5843C6.83368 17.7203 6.65262 17.7954 6.46023 17.7954C6.26783 17.7954 6.08677 17.7205 5.95073 17.5843C5.81453 17.4483 5.73961 17.2672 5.73961 17.0748C5.73961 16.8823 5.81453 16.7014 5.95073 16.5653L7.86203 14.6539C7.99807 14.5178 8.17913 14.4429 8.37153 14.4429C8.56409 14.4429 8.74514 14.5178 8.88118 14.6539C9.01739 14.7901 9.09231 14.971 9.09231 15.1635C9.09214 15.3559 9.01722 15.5368 8.88118 15.673Z" fill="white" stroke="white" stroke-width="0.1"/>
</svg>
