<svg width="22" height="21" viewBox="0 0 22 21" fill="none" xmlns="http://www.w3.org/2000/svg">
<path d="M14.3123 9.73989C12.2305 11.4563 9.70863 12.5537 7.03376 12.9072C6.53874 12.9685 6.08308 13.2083 5.75226 13.5816C5.42143 13.9549 5.23817 14.4361 5.23684 14.9349V16.5151V19.0252C5.23768 19.2264 5.18588 19.4243 5.08658 19.5993C4.98728 19.7743 4.84393 19.9203 4.67077 20.0228C4.4976 20.1253 4.30064 20.1807 4.09944 20.1835C3.89825 20.1864 3.6998 20.1365 3.52382 20.039L1.76185 19.0741C1.44847 18.9023 1.18706 18.6494 1.005 18.3419C0.822944 18.0343 0.726941 17.6835 0.727051 17.3261V10.0895C0.727051 5.4119 5.20188 1 10.7255 1C16.2491 1 20.7239 5.43287 20.7239 10.0895V17.3261C20.724 17.6835 20.628 18.0343 20.446 18.3419C20.2639 18.6494 20.0025 18.9023 19.6891 19.0741L17.9272 20.039C17.7512 20.1365 17.5527 20.1864 17.3515 20.1835C17.1503 20.1807 16.9534 20.1253 16.7802 20.0228C16.6071 19.9203 16.4637 19.7743 16.3644 19.5993C16.2651 19.4243 16.2133 19.2264 16.2141 19.0252V16.5081V14.005" stroke="white" stroke-width="1.4" stroke-linecap="round" stroke-linejoin="round"/>
<path d="M5.22974 18.0673C6.78461 19.3233 8.72305 20.0085 10.7219 20.0085C12.7207 20.0085 14.6592 19.3233 16.214 18.0673" stroke="white" stroke-width="1.4" stroke-linecap="round" stroke-linejoin="round"/>
</svg>
