<svg width="18" height="22" viewBox="0 0 18 22" fill="none" xmlns="http://www.w3.org/2000/svg">
<path d="M0.840332 15.3041C0.840332 16.9395 1.23707 18.431 1.92023 19.5664C2.61217 20.702 3.65842 21.5237 4.89077 21.5237L13.4639 21.5237C14.949 21.5237 16.0122 20.4729 16.6281 19.3121C17.2439 18.1512 17.514 16.8292 17.514 15.7869L17.514 0.720477C17.514 0.338893 17.1767 4.31549e-05 16.7969 4.31715e-05L8.2238 4.35463e-05C7.85222 4.35625e-05 7.51489 0.338894 7.51489 0.720478L7.51489 9.08413L4.89077 9.08413L4.8147 9.08413L4.80651 9.08413C3.60811 9.12656 2.5955 9.94005 1.92053 11.0502C1.23707 12.1771 0.840332 13.6686 0.840332 15.3041ZM2.27514 15.3041C2.27514 13.9059 2.62126 12.6433 3.14409 11.7874C3.66752 10.9314 4.29157 10.5244 4.89107 10.5244C5.49846 10.5244 6.11433 10.9311 6.63776 11.7874C7.1524 12.6433 7.51549 13.9056 7.51549 15.3041L7.51549 15.7872C7.51549 16.5328 7.22877 17.7445 6.77293 18.6598C6.34255 19.5582 5.86156 20.0919 4.89138 20.0919C4.29187 20.0919 3.66782 19.6767 3.14439 18.8208C2.62096 17.9648 2.27514 16.7107 2.27514 15.3041ZM3.74298 15.3041C3.74298 15.6853 3.80209 16.033 3.96272 16.3549C4.12275 16.6682 4.43523 17.0159 4.89107 17.0159C5.3551 17.0159 5.66728 16.6685 5.81943 16.3549C5.97946 16.0327 6.04704 15.6853 6.04704 15.3041C6.04704 14.9313 5.97946 14.5754 5.81943 14.2617C5.66728 13.9396 5.3554 13.5925 4.89107 13.5925C4.43523 13.5925 4.12305 13.9399 3.96272 14.2617C3.80239 14.5754 3.74298 14.9313 3.74298 15.3041ZM7.49822 10.5247L7.51519 10.5247L7.51519 10.542C7.5064 10.5417 7.49822 10.5332 7.49822 10.5247ZM7.59945 20.0919C7.76827 19.8376 7.9286 19.5748 8.06347 19.2954C8.62054 18.1597 8.94121 16.8549 8.94121 15.7872L8.94121 1.43243L16.0883 1.43243L16.0883 3.34732L15.1348 3.34732C14.755 3.33884 14.4007 3.68617 14.4007 4.07594C14.4089 4.44874 14.755 4.78789 15.1348 4.7791L16.0883 4.7791L16.0883 6.6946L15.1348 6.6946C14.755 6.68612 14.4007 7.04194 14.4007 7.42322C14.4089 7.79602 14.755 8.13517 15.1348 8.13517L16.0883 8.13517L16.0883 10.0416L15.1348 10.0416C14.755 10.0334 14.4007 10.3889 14.4007 10.7705C14.4089 11.1518 14.755 11.4906 15.1348 11.4824L16.0883 11.4824L16.0883 13.3892L15.1348 13.3892C14.755 13.3892 14.4007 13.7365 14.4007 14.1178C14.4089 14.4991 14.755 14.8379 15.1348 14.8297L16.0883 14.8297L16.0883 15.7872C16.0883 16.5582 15.8352 17.7445 15.3627 18.6429C14.8899 19.5409 14.291 20.0919 13.4639 20.0919L7.59945 20.0919Z" fill="white"/>
</svg>
