<svg width="11" height="16" viewBox="0 0 11 16" fill="none" xmlns="http://www.w3.org/2000/svg">
<path fill-rule="evenodd" clip-rule="evenodd" d="M11 1.94118V9.70588C10.9975 10.3631 10.795 11.0039 10.4193 11.5431C10.0437 12.0824 9.51268 12.4944 8.89706 12.7244L10.2235 14.4941C10.2745 14.5621 10.3116 14.6395 10.3327 14.7218C10.3538 14.8041 10.3585 14.8897 10.3464 14.9739C10.3344 15.058 10.306 15.1389 10.2627 15.212C10.2194 15.2851 10.1621 15.349 10.0941 15.4C10.0261 15.451 9.94878 15.4881 9.86647 15.5092C9.78416 15.5303 9.69849 15.5349 9.61437 15.5229C9.53026 15.5109 9.44933 15.4824 9.37621 15.4391C9.30309 15.3958 9.23922 15.3386 9.18824 15.2706L7.44118 12.9412H3.55882L1.81176 15.2706C1.7088 15.4079 1.55551 15.4986 1.38563 15.5229C1.21574 15.5472 1.04317 15.503 0.905882 15.4C0.768594 15.297 0.677831 15.1437 0.653562 14.9739C0.629292 14.804 0.673505 14.6314 0.776471 14.4941L2.10294 12.7244C1.48732 12.4944 0.956346 12.0824 0.580678 11.5431C0.20501 11.0039 0.00246598 10.3631 0 9.70588V1.94118C0 1.42634 0.204516 0.932598 0.568557 0.568557C0.932598 0.204516 1.42634 0 1.94118 0H9.05882C9.57366 0 10.0674 0.204516 10.4314 0.568557C10.7955 0.932598 11 1.42634 11 1.94118ZM9.70588 3.88235H1.29412V6.47059H9.70588V3.88235ZM9.05882 1.29412H1.94118C1.76957 1.29412 1.60498 1.36229 1.48364 1.48364C1.36229 1.60498 1.29412 1.76957 1.29412 1.94118V2.58824H9.70588V1.94118C9.70588 1.76957 9.63771 1.60498 9.51636 1.48364C9.39502 1.36229 9.23043 1.29412 9.05882 1.29412ZM3.23529 11.6471H7.76471C8.27954 11.6471 8.77328 11.4425 9.13733 11.0785C9.50137 10.7145 9.70588 10.2207 9.70588 9.70588V7.76471H1.29412V9.70588C1.29412 10.2207 1.49863 10.7145 1.86267 11.0785C2.22672 11.4425 2.72046 11.6471 3.23529 11.6471ZM3.2352 10.353C3.59257 10.353 3.88226 10.0633 3.88226 9.70591C3.88226 9.34855 3.59257 9.05885 3.2352 9.05885C2.87784 9.05885 2.58815 9.34855 2.58815 9.70591C2.58815 10.0633 2.87784 10.353 3.2352 10.353ZM7.7648 10.353C8.12216 10.353 8.41186 10.0633 8.41186 9.70591C8.41186 9.34855 8.12216 9.05885 7.7648 9.05885C7.40744 9.05885 7.11774 9.34855 7.11774 9.70591C7.11774 10.0633 7.40744 10.353 7.7648 10.353Z" fill="#A5A5A5"/>
</svg>
