<svg width="10" height="11" viewBox="0 0 10 11" fill="none" xmlns="http://www.w3.org/2000/svg">
<path fill-rule="evenodd" clip-rule="evenodd" d="M0.340116 1.49184C0.711733 0.981806 2.25129 0.0637536 2.25129 0.0637536C2.25129 0.0637536 2.676 -0.191261 2.94144 0.318768C3.15379 0.828797 3.84394 2.71591 3.84394 2.71591C3.84394 2.71591 3.84394 3.17493 3.5785 3.32794C3.31305 3.53195 2.83526 3.83797 2.78217 3.88897C2.46364 4.348 5.59585 8.22422 6.12673 8.02021C6.2329 7.96921 6.65761 7.61219 6.86996 7.40817C7.1354 7.20416 7.6132 7.30617 7.6132 7.30617C7.6132 7.30617 9.31202 8.42823 9.73672 8.73425C10.2145 9.09127 9.89599 9.44829 9.89599 9.44829C9.89599 9.44829 8.56878 10.6214 7.98481 10.8764C5.06496 12.1004 -1.57106 3.88897 0.340116 1.49184Z" fill="white"/>
<path fill-rule="evenodd" clip-rule="evenodd" d="M0.340116 1.49184C0.711733 0.981806 2.25129 0.0637536 2.25129 0.0637536C2.25129 0.0637536 2.676 -0.191261 2.94144 0.318768C3.15379 0.828797 3.84394 2.71591 3.84394 2.71591C3.84394 2.71591 3.84394 3.17493 3.5785 3.32794C3.31305 3.53195 2.83526 3.83797 2.78217 3.88897C2.46364 4.348 5.59585 8.22422 6.12673 8.02021C6.2329 7.96921 6.65761 7.61219 6.86996 7.40817C7.1354 7.20416 7.6132 7.30617 7.6132 7.30617C7.6132 7.30617 9.31202 8.42823 9.73672 8.73425C10.2145 9.09127 9.89599 9.44829 9.89599 9.44829C9.89599 9.44829 8.56878 10.6214 7.98481 10.8764C5.06496 12.1004 -1.57106 3.88897 0.340116 1.49184Z" fill="url(#paint0_linear)"/>
<defs>
<linearGradient id="paint0_linear" x1="0" y1="0" x2="10.4689" y2="0.465993" gradientUnits="userSpaceOnUse">
<stop stop-color="#ffffff"/>
<stop offset="0.0001" stop-color="#ffffff"/>
<stop offset="1" stop-color="#ffffff"/>
</linearGradient>
</defs>
</svg>
