<svg width="21" height="23" viewBox="0 0 21 23" fill="none" xmlns="http://www.w3.org/2000/svg">
<path d="M17.3747 7.00245C17.309 6.23442 16.717 5.63121 15.9988 5.63121H13.1647C13.4142 5.14771 13.5574 4.59005 13.5574 3.99623C13.5574 2.15794 12.1919 0.662354 10.5134 0.662354C8.83497 0.662354 7.46944 2.15794 7.46944 3.99623C7.46944 4.5901 7.61266 5.14776 7.86216 5.63121H4.90945C4.19016 5.63121 3.59744 6.23617 3.53333 7.00595L0 20.7077V20.8241C0 21.6587 0.61991 22.3377 1.3819 22.3377H19.6181C20.38 22.3377 21 21.6587 21 20.8241V20.7047L17.3747 7.00245ZM10.5134 2.344C11.3452 2.344 12.0219 3.08517 12.0219 3.99619C12.0219 4.82679 11.4594 5.51589 10.7296 5.63116H10.297C9.56739 5.51585 9.00482 4.82675 9.00482 3.99619C9.00482 3.08517 9.68153 2.344 10.5134 2.344ZM1.60884 20.656L5.0496 7.31295H10.2026C10.3048 7.32431 10.4085 7.3302 10.5134 7.3302C10.6182 7.3302 10.7219 7.32436 10.8241 7.31295H15.8582L19.3885 20.656H1.60884Z" fill="white"/>
<path d="M10.4484 16.8117L8.53891 13.6269L10.1067 11.4781C10.168 11.3918 10.1767 11.3055 10.1767 11.2383C10.1767 10.9218 9.80892 10.5956 9.51988 10.5956C9.39724 10.5956 9.29216 10.6436 9.20455 10.7779L7.31271 13.5982V10.9793C7.31271 10.7107 7.02367 10.5956 6.74341 10.5956C6.45437 10.5956 6.17407 10.7107 6.17407 10.9793V17.2145C6.17407 17.4736 6.45433 17.6079 6.74341 17.6079C7.02367 17.6079 7.31271 17.4736 7.31271 17.2145V15.3343L7.78566 14.6821L9.43227 17.416C9.52866 17.5887 9.67755 17.6558 9.82643 17.6558C10.1592 17.6558 10.5096 17.3392 10.5096 17.0322C10.5097 16.9556 10.4922 16.8788 10.4484 16.8117Z" fill="white"/>
<path d="M14.5649 13.9245H13.0759C12.8482 13.9245 12.7256 14.1739 12.7256 14.4138C12.7256 14.6632 12.8482 14.903 13.0759 14.903H13.7854V15.469C13.7854 16.2173 13.435 16.5722 12.8657 16.5722C12.2877 16.5722 11.9548 16.2173 11.9548 15.469V12.7926C11.9547 12.0443 12.2876 11.6894 12.8744 11.6894C13.6188 11.6894 13.759 12.1882 13.7853 12.6391C13.794 12.9364 14.048 13.0323 14.3546 13.0323C14.7312 13.0323 14.9239 12.9172 14.9239 12.4376C14.9239 11.2865 14.0393 10.5958 12.8306 10.5958C11.7183 10.5958 10.8162 11.1905 10.8162 12.7926V15.469C10.8162 17.0709 11.7095 17.6657 12.8657 17.6657C14.0218 17.6657 14.924 17.071 14.924 15.469V14.3274C14.924 14.1164 14.7926 13.9245 14.5649 13.9245Z" fill="white"/>
</svg>
